<?xml version="1.0" encoding="UTF-8" standalone="no"?>
<!DOCTYPE svg PUBLIC "-//W3C//DTD SVG 1.1//EN" "http://www.w3.org/Graphics/SVG/1.1/DTD/svg11.dtd">
<svg height="100%" stroke-miterlimit="10" style="fill-rule:nonzero;clip-rule:evenodd;stroke-linecap:round;stroke-linejoin:round;" version="1.1" viewBox="0 0 1024 1024" width="100%" xml:space="preserve" xmlns="http://www.w3.org/2000/svg" xmlns:xlink="http://www.w3.org/1999/xlink">
<defs/>
<g id="Layer-1">
<g opacity="1">
<path d="M345.859 469.554C345.859 485.544 338.083 496.898 322.53 503.616C332.533 507.339 339.981 512.469 344.873 519.004C349.765 525.539 352.211 533.589 352.211 543.154C352.211 575.281 328.116 591.344 279.926 591.344L203.259 591.344L203.259 563.306L223.63 563.306L223.63 454.33L203.259 454.33L203.259 426.292L279.926 426.292C302.195 426.292 318.752 429.87 329.595 437.025C340.437 444.181 345.859 455.024 345.859 469.554ZM303.035 471.744C303.035 465.319 300.717 460.81 296.08 458.218C291.444 455.626 284.927 454.33 276.53 454.33L266.454 454.33L266.454 491.568L279.707 491.568C287.519 491.568 293.36 490.071 297.23 487.078C301.1 484.084 303.035 478.973 303.035 471.744ZM308.183 541.949C308.183 533.917 305.864 528.149 301.228 524.644C296.591 521.139 288.614 519.387 277.297 519.387L266.454 519.387L266.454 563.306L283.321 563.306C290.914 563.306 296.957 561.59 301.447 558.158C305.937 554.727 308.183 549.323 308.183 541.949Z" fill="#ffbc00" fill-rule="nonzero" opacity="1" stroke="none"/>
<path d="M433.218 454.33L459.942 533.516L485.242 454.33L470.018 454.33L470.018 426.292L529.49 426.292L529.49 454.33L514.266 454.33L541.318 533.516L567.385 454.33L550.737 454.33L550.737 426.292L616.999 426.292L616.999 454.33L599.037 454.33L553.256 592.22L522.699 592.22L496.742 516.868L472.099 592.22L440.447 592.22L393.352 454.33L375.828 454.33L375.828 426.292L450.304 426.292L450.304 454.33L433.218 454.33Z" fill="#ffbc00" fill-rule="nonzero" opacity="1" stroke="none"/>
<path d="M817.934 510.844C817.934 528.149 814.265 542.825 806.927 554.873C799.589 566.92 789.458 576.011 776.534 582.144C763.611 588.277 748.679 591.344 731.739 591.344L640.725 591.344L640.725 563.306L665.806 563.306L665.806 454.33L640.725 454.33L640.725 426.292L729.768 426.292C746.781 426.292 761.877 429.194 775.056 434.999C788.235 440.804 798.676 450.04 806.38 462.708C814.083 475.377 817.934 491.422 817.934 510.844ZM773.03 509.42C773.03 491.239 768.813 477.512 760.38 468.239C751.946 458.966 739.552 454.33 723.196 454.33L708.63 454.33L708.63 563.306L718.706 563.306C733.528 563.306 744.937 560.805 752.932 555.804C760.927 550.802 766.276 544.45 768.977 536.747C771.679 529.043 773.03 519.935 773.03 509.42Z" fill="#ffbc00" fill-rule="nonzero" opacity="1" stroke="none"/>
</g>
</g>
</svg>
