<?xml version="1.0" encoding="UTF-8" standalone="no"?>
<!DOCTYPE svg PUBLIC "-//W3C//DTD SVG 1.1//EN" "http://www.w3.org/Graphics/SVG/1.1/DTD/svg11.dtd">
<!-- Created with Vectornator (http://vectornator.io/) -->
<svg height="100%" stroke-miterlimit="10" style="fill-rule:nonzero;clip-rule:evenodd;stroke-linecap:round;stroke-linejoin:round;" version="1.1" viewBox="0 0 1024 1024" width="100%" xml:space="preserve" xmlns="http://www.w3.org/2000/svg" xmlns:xlink="http://www.w3.org/1999/xlink">
<defs/>
<g id="Layer-1">
<path d="M0 5.68434e-14L1024 5.68434e-14L1024 1024L0 1024L270.17 671.255L739.268 663.532L733.44 385.034L271.131 396.836L274.669 673.137L0 1024L0 882.595L0 5.68434e-14Z" fill="#000000" fill-rule="nonzero" opacity="1" stroke="none"/>
<g opacity="1">
<path d="M512 36.0194C468.905 36.0194 433.97 70.9544 433.97 114.048C433.97 157.143 468.905 192.078 512 192.078C555.095 192.078 590.03 157.143 590.03 114.048C590.03 70.9544 555.095 36.0194 512 36.0194ZM512 831.92C468.905 831.92 433.97 866.855 433.97 909.95C433.97 953.044 468.905 987.979 512 987.979C555.095 987.979 590.03 953.044 590.03 909.95C590.03 866.855 555.095 831.92 512 831.92ZM863.133 636.846C820.038 636.846 785.103 671.781 785.103 714.876C785.103 757.97 820.038 792.905 863.133 792.905C906.227 792.905 941.162 757.97 941.162 714.876C941.162 671.781 906.227 636.846 863.133 636.846ZM863.133 231.093C820.038 231.093 785.103 266.028 785.103 309.122C785.103 352.217 820.038 387.152 863.133 387.152C906.227 387.152 941.162 352.217 941.162 309.122C941.162 266.028 906.227 231.093 863.133 231.093ZM160.867 231.093C117.773 231.093 82.8378 266.028 82.8378 309.122C82.8378 352.217 117.773 387.152 160.867 387.152C203.962 387.152 238.897 352.217 238.897 309.122C238.897 266.028 203.962 231.093 160.867 231.093ZM160.867 636.846C117.773 636.846 82.8378 671.781 82.8378 714.876C82.8378 757.97 117.773 792.905 160.867 792.905C203.962 792.905 238.897 757.97 238.897 714.876C238.897 671.781 203.962 636.846 160.867 636.846Z" fill="#ffbc00" fill-rule="nonzero" opacity="1" stroke="none"/>
<path d="M160.867 558.817C147.602 558.817 137.458 548.673 137.458 535.408L137.458 488.59C137.458 475.325 147.602 465.181 160.867 465.181C174.132 465.181 184.276 475.325 184.276 488.59L184.276 535.408C184.276 548.673 173.352 558.817 160.867 558.817ZM356.721 851.427C352.82 851.427 348.918 850.647 345.017 848.306L304.441 824.897C293.517 818.655 289.616 803.829 295.858 792.905C302.101 781.981 316.926 778.08 327.85 784.322L368.426 807.731C379.35 813.973 383.251 828.799 377.009 839.723C372.327 847.526 364.524 851.427 356.721 851.427ZM667.279 851.427C659.476 851.427 651.673 847.526 646.991 839.723C640.749 828.799 644.65 813.973 655.574 807.731L696.15 784.322C707.074 778.08 721.899 781.981 728.142 792.905C734.384 803.829 730.483 818.655 719.559 824.897L678.983 848.306C675.082 850.647 671.18 851.427 667.279 851.427ZM863.133 558.817C849.868 558.817 839.724 548.673 839.724 535.408L839.724 488.59C839.724 475.325 849.868 465.181 863.133 465.181C876.398 465.181 886.542 475.325 886.542 488.59L886.542 535.408C886.542 548.673 876.398 558.817 863.133 558.817ZM707.854 242.797C703.953 242.797 700.051 242.017 696.15 239.676L655.574 216.267C644.65 210.025 640.749 195.199 646.991 184.275C653.233 173.351 668.059 169.449 678.983 175.692L719.559 199.101C730.483 205.343 734.384 220.169 728.142 231.093C724.24 238.896 715.657 242.797 707.854 242.797ZM316.146 242.797C308.343 242.797 300.54 238.896 295.858 231.093C289.616 220.169 293.517 205.343 304.441 199.101L345.017 175.692C355.941 169.449 370.767 173.351 377.009 184.275C383.251 195.199 379.35 210.025 368.426 216.267L327.85 239.676C323.949 242.017 320.047 242.797 316.146 242.797ZM512 215.487C455.819 215.487 410.562 170.23 410.562 114.048C410.562 57.8676 455.819 12.6105 512 12.6105C568.181 12.6105 613.438 57.8676 613.438 114.048C613.438 170.23 568.181 215.487 512 215.487ZM512 59.4282C481.568 59.4282 457.379 83.6174 457.379 114.048C457.379 144.48 481.568 168.669 512 168.669C542.432 168.669 566.621 144.48 566.621 114.048C566.621 83.6174 542.432 59.4282 512 59.4282ZM512 1011.39C455.819 1011.39 410.562 966.131 410.562 909.95C410.562 853.768 455.819 808.511 512 808.511C568.181 808.511 613.438 853.768 613.438 909.95C613.438 966.131 568.181 1011.39 512 1011.39ZM512 855.329C481.568 855.329 457.379 879.518 457.379 909.95C457.379 940.381 481.568 964.57 512 964.57C542.432 964.57 566.621 940.381 566.621 909.95C566.621 879.518 542.432 855.329 512 855.329Z" fill="#ffbc00" fill-rule="nonzero" opacity="1" stroke="none"/>
<path d="M863.133 816.314C806.952 816.314 761.694 771.057 761.694 714.876C761.694 658.694 806.952 613.437 863.133 613.437C919.314 613.437 964.571 658.694 964.571 714.876C964.571 771.057 919.314 816.314 863.133 816.314ZM863.133 660.255C832.701 660.255 808.512 684.444 808.512 714.876C808.512 745.307 832.701 769.496 863.133 769.496C893.564 769.496 917.753 745.307 917.753 714.876C917.753 684.444 893.564 660.255 863.133 660.255Z" fill="#ffbc00" fill-rule="nonzero" opacity="1" stroke="none"/>
<path d="M863.133 410.561C806.952 410.561 761.694 365.304 761.694 309.122C761.694 252.941 806.952 207.684 863.133 207.684C919.314 207.684 964.571 252.941 964.571 309.122C964.571 365.304 919.314 410.561 863.133 410.561ZM863.133 254.502C832.701 254.502 808.512 278.691 808.512 309.122C808.512 339.554 832.701 363.743 863.133 363.743C893.564 363.743 917.753 339.554 917.753 309.122C917.753 278.691 893.564 254.502 863.133 254.502Z" fill="#ffbc00" fill-rule="nonzero" opacity="1" stroke="none"/>
<path d="M160.867 410.561C104.686 410.561 59.4289 365.304 59.4289 309.122C59.4289 252.941 104.686 207.684 160.867 207.684C217.048 207.684 262.306 252.941 262.306 309.122C262.306 365.304 217.048 410.561 160.867 410.561ZM160.867 254.502C130.436 254.502 106.247 278.691 106.247 309.122C106.247 339.554 130.436 363.743 160.867 363.743C191.299 363.743 215.488 339.554 215.488 309.122C215.488 278.691 191.299 254.502 160.867 254.502Z" fill="#ffbc00" fill-rule="nonzero" opacity="1" stroke="none"/>
<path d="M160.867 816.314C104.686 816.314 59.4289 771.057 59.4289 714.876C59.4289 658.694 104.686 613.437 160.867 613.437C217.048 613.437 262.306 658.694 262.306 714.876C262.306 771.057 217.048 816.314 160.867 816.314ZM160.867 660.255C130.436 660.255 106.247 684.444 106.247 714.876C106.247 745.307 130.436 769.496 160.867 769.496C191.299 769.496 215.488 745.307 215.488 714.876C215.488 684.444 191.299 660.255 160.867 660.255Z" fill="#ffbc00" fill-rule="nonzero" opacity="1" stroke="none"/>
</g>
</g>
</svg>
