<?xml version="1.0" encoding="UTF-8" standalone="no"?> <!-- Created with Vectornator for iOS (http://vectornator.io/) --><!DOCTYPE svg PUBLIC "-//W3C//DTD SVG 1.1//EN" "http://www.w3.org/Graphics/SVG/1.1/DTD/svg11.dtd">
<svg style="fill-rule:evenodd;clip-rule:evenodd;stroke-linecap:round;stroke-linejoin:round;" xmlns:vectornator="http://vectornator.io" xmlns:xlink="http://www.w3.org/1999/xlink" xmlns="http://www.w3.org/2000/svg" xml:space="preserve" version="1.1" viewBox="0 0 120 120">
<metadata>
<vectornator:setting key="DimensionsVisible" value="1"/>
<vectornator:setting key="SnapToGrid" value="0"/>
<vectornator:setting key="SnapToPoints" value="0"/>
<vectornator:setting key="GuidesVisible" value="1"/>
<vectornator:setting key="RulersVisible" value="1"/>
<vectornator:setting key="CMYKEnabledKey" value="0"/>
<vectornator:setting key="SnapToEdges" value="0"/>
<vectornator:setting key="DisplayWhiteBackground" value="0"/>
<vectornator:setting key="SnapToGuides" value="1"/>
<vectornator:setting key="GridSpacing" value="36"/>
<vectornator:setting key="Units" value="Pixels"/>
<vectornator:setting key="DynamicGuides" value="0"/>
<vectornator:setting key="New" value="1"/>
</metadata>
<defs/>
<g id="Layer 1" vectornator:layerName="Layer 1">
<g opacity="1">
<path d="M112.91+69.784C113.34+68.9018+113.721+67.9736+114.05+67.0011C117.822+55.8723+112.118+42.5405+100.11+39.3222C98.8124+23.0185+87.3541+11.8323+74.4134+9.92453C59.6021+7.7403+46.0341+17.149+41.5195+32.1035C36.0783+30.1756+30.7759+30.4105+25.7787+33.3309C23.5114+34.3794+21.4374+35.9262+19.5769+37.9615C16.8455+40.9493+15.0695+44.7205+14.3462+48.6965C13.2749+48.8655+12.2221+49.0345+11.2295+49.3897C5.44312+51.4651+1.79222+55.7362+0.791052+62.17C0.168008+66.1761+1.42555+70.1722+2.12737+71.7864C4.89885+78.1672+11.3255+81.7837+17.8553+80.827C18.1804+80.7797+18.6531+80.9258+18.9324+81.1607C19.2776+91.3586+24.229+100.378+31.6568+105.53C43.5749+113.797+58.9089+111.25+68.5826+99.9136C72.7276+104.153+77.6604+106.213+83.4554+105.465C89.2175+104.722+93.692+101.542+96.9561+96.3716C98.4643+96.7769+99.8938+97.3613+101.372+97.5231C107.161+98.1562+111.823+95.8273+115.311+90.6481C115.43+90.4705+115.602+90.3345+115.749+90.1784C116.248+89.0354+116.746+87.8924+117.244+86.7495C117.466+85.015+117.859+83.279+117.879+81.5474C117.935+76.8839+116.028+72.6329+112.91+69.784Z" opacity="1" fill="#c8ede6"/>
<path d="M94.812+73.5853C94.812+73.5853+111.557+73.5853+111.659+73.5853C115.526+73.5853+118.66+70.4501+118.66+66.5829C118.66+63.2099+116.273+60.394+113.097+59.7308C113.134+59.4358+113.158+59.1364+113.158+58.8314C113.158+54.8267+109.911+51.5797+105.906+51.5797C103.542+51.5797+101.448+52.7169+100.124+54.4686C99.7863+50.0099+95.8031+46.571+91.1439+47.141C87.7365+47.5578+84.9192+50.1918+84.2919+53.5663C84.0913+54.6491+84.1114+55.6989+84.3119+56.6844C83.3981+55.7004+82.0976+55.0816+80.6496+55.0816C77.9998+55.0816+75.8357+57.1456+75.6652+59.7523C74.4621+59.4859+73.153+59.5031+71.7737+60.0216C69.1383+61.0113+67.262+63.492+67.1517+66.305C66.9956+70.2997+70.1882+73.5882+74.1484+73.5882C74.4492+73.5882+75.5062+73.5882+75.7497+73.5882L90.2888+73.5882" opacity="1" fill="#fdfcef"/>
<path d="M111.659+74.3015L94.812+74.3015C94.4167+74.3015+94.0959+73.9806+94.0959+73.5853C94.0959+73.19+94.4167+72.8692+94.812+72.8692L111.659+72.8692C115.125+72.8692+117.945+70.049+117.945+66.5829C117.945+63.6238+115.845+61.0371+112.952+60.4312C112.588+60.3553+112.342+60.013+112.388+59.642C112.419+59.3756+112.443+59.1064+112.443+58.8314C112.443+55.2263+109.512+52.2958+105.908+52.2958C103.848+52.2958+101.948+53.2454+100.696+54.8997C100.517+55.1375+100.206+55.2378+99.9238+55.1547C99.6374+55.0702+99.434+54.8195+99.4111+54.523C99.2621+52.5508+98.2968+50.6974+96.7613+49.4399C95.2102+48.168+93.2422+47.6051+91.2327+47.8515C88.1318+48.2324+85.568+50.6344+84.998+53.6966C84.8204+54.6519+84.8261+55.6087+85.0166+56.5411C85.0796+56.8562+84.9278+57.1742+84.6413+57.3203C84.3606+57.4693+84.0083+57.4077+83.7891+57.1713C82.9656+56.2862+81.8513+55.7978+80.6524+55.7978C78.4066+55.7978+76.5303+57.5566+76.3842+59.7996C76.3699+60.0087+76.2668+60.2006+76.0992+60.3267C75.933+60.4513+75.7182+60.4957+75.5148+60.4527C74.3088+60.1834+73.1702+60.2636+72.0301+60.6919C69.6396+61.5899+67.9681+63.8558+67.8721+66.3322C67.8048+68.061+68.4264+69.6981+69.6224+70.9413C70.8184+72.1846+72.4282+72.8706+74.1527+72.8706L90.2946+72.8706C90.6899+72.8706+91.0107+73.1915+91.0107+73.5868C91.0107+73.9821+90.6899+74.3029+90.2946+74.3029L74.1527+74.3029C72.0344+74.3029+70.0592+73.4622+68.5897+71.9353C67.1216+70.41+66.3568+68.399+66.4399+66.2778C66.5602+63.2328+68.604+60.4498+71.5273+59.3527C72.6746+58.9202+73.8591+58.7812+75.0622+58.923C75.6022+56.3134+77.9225+54.3655+80.6539+54.3655C81.635+54.3655+82.5932+54.6233+83.4382+55.096C83.4368+54.5431+83.4884+53.9902+83.5915+53.4359C84.2732+49.7664+87.3426+46.8861+91.0594+46.4306C93.4556+46.1399+95.8146+46.8116+97.6694+48.3327C99.1074+49.5115+100.129+51.1271+100.588+52.906C102.039+51.594+103.91+50.8636+105.908+50.8636C110.301+50.8636+113.876+54.4385+113.876+58.8314C113.876+58.9502+113.873+59.0691+113.866+59.1866C117.094+60.1519+119.377+63.164+119.377+66.5829C119.377+70.8396+115.915+74.3015+111.659+74.3015Z" opacity="1" fill="#472b29"/>
<path d="M90.7543+58.161C88.1648+57.9906+85.9347+59.7795+85.7757+62.1557C85.7557+62.4507+85.7686+62.7415+85.8115+63.0237C85.3117+62.4593+84.5726+62.0769+83.7232+62.0211C82.1692+61.9194+80.8272+62.9449+80.6324+64.3414C80.3502+64.264+80.0552+64.2125+79.7501+64.1924C77.4842+64.0434+75.5334+65.6089+75.3931+67.6886" opacity="1" fill="#fdfcef"/>
<path d="M75.3945+68.0467C75.3859+68.0467+75.3788+68.0467+75.3702+68.0452C75.1725+68.0324+75.0235+67.8619+75.0379+67.6643C75.1883+65.3898+77.3066+63.6424+79.7759+63.8358C79.9678+63.8472+80.164+63.873+80.3602+63.9117C80.7527+62.5252+82.1563+61.557+83.7476+61.6658C84.3563+61.7045+84.9264+61.895+85.4133+62.213C85.4148+62.1858+85.4162+62.16+85.4191+62.1328C85.5895+59.5618+88.0101+57.6211+90.7787+57.8058C90.9763+57.8187+91.1253+57.9892+91.111+58.1868C91.0995+58.3831+90.962+58.5607+90.73+58.5191C88.3395+58.3616+86.277+60.0044+86.1309+62.1815C86.1137+62.4493+86.1252+62.7143+86.1639+62.9721C86.1882+63.1282+86.1066+63.2843+85.9619+63.3516C85.8158+63.4161+85.6454+63.3817+85.5408+63.2643C85.0868+62.7501+84.4136+62.4278+83.6975+62.3806C82.3397+62.3161+81.1566+63.1769+80.9862+64.3929C80.9704+64.4946+80.9131+64.5863+80.8286+64.6436C80.7441+64.7009+80.6352+64.7166+80.5378+64.6894C80.2643+64.6149+79.9907+64.5691+79.7272+64.5505C77.6604+64.4216+75.8772+65.8338+75.7497+67.713C75.7383+67.9006+75.5807+68.0467+75.3945+68.0467Z" opacity="1" fill="#472b29"/>
<path d="M114.493+60.5515C112.06+59.4043+109.245+60.2164+108.207+62.3662C108.078+62.6326+107.982+62.9091+107.919+63.1884" opacity="1" fill="#fdfcef"/>
<path d="M107.92+63.545C107.893+63.545+107.867+63.5421+107.839+63.535C107.647+63.492+107.526+63.2987+107.571+63.1053C107.642+62.7959+107.747+62.4937+107.884+62.2101C109.006+59.8869+112.038+59.0004+114.646+60.2264C114.825+60.3123+114.903+60.5243+114.818+60.7034C114.732+60.8838+114.516+60.9569+114.341+60.8752C112.085+59.8125+109.48+60.5501+108.53+62.5195C108.416+62.7558+108.327+63.0079+108.267+63.2657C108.23+63.4333+108.084+63.545+107.92+63.545Z" opacity="1" fill="#472b29"/>
<path d="M37.5607+101.597L23.1949+101.597C22.7996+101.597+22.4787+101.276+22.4787+100.88C22.4787+100.485+22.7996+100.164+23.1949+100.164L37.5607+100.164C37.956+100.164+38.2768+100.485+38.2768+100.88C38.2768+101.276+37.956+101.597+37.5607+101.597ZM41.6857+101.597L39.616+101.597C39.2207+101.597+38.8999+101.276+38.8999+100.88C38.8999+100.485+39.2207+100.164+39.616+100.164L41.6857+100.164C42.081+100.164+42.4018+100.485+42.4018+100.88C42.4018+101.276+42.0824+101.597+41.6857+101.597ZM47.4936+101.597L43.847+101.597C43.4517+101.597+43.1308+101.276+43.1308+100.88C43.1308+100.485+43.4517+100.164+43.847+100.164L47.4936+100.164C47.8889+100.164+48.2097+100.485+48.2097+100.88C48.2097+101.276+47.8889+101.597+47.4936+101.597ZM47.4936+104.269L33.7207+104.269C33.3254+104.269+33.0046+103.948+33.0046+103.553C33.0046+103.158+33.3254+102.837+33.7207+102.837L47.4936+102.837C47.8889+102.837+48.2097+103.158+48.2097+103.553C48.2097+103.948+47.8889+104.269+47.4936+104.269ZM31.24+104.269L30.4093+104.269C30.014+104.269+29.6931+103.948+29.6931+103.553C29.6931+103.158+30.014+102.837+30.4093+102.837L31.24+102.837C31.6353+102.837+31.9562+103.158+31.9562+103.553C31.9562+103.948+31.6368+104.269+31.24+104.269ZM27.8355+104.269L25.7501+104.269C25.3547+104.269+25.0339+103.948+25.0339+103.553C25.0339+103.158+25.3547+102.837+25.7501+102.837L27.8355+102.837C28.2308+102.837+28.5516+103.158+28.5516+103.553C28.5516+103.948+28.2322+104.269+27.8355+104.269ZM40.9208+98.9253L33.7207+98.9253C33.3254+98.9253+33.0046+98.6045+33.0046+98.2092C33.0046+97.8139+33.3254+97.493+33.7207+97.493L40.9208+97.493C41.3161+97.493+41.637+97.8139+41.637+98.2092C41.637+98.6045+41.3176+98.9253+40.9208+98.9253ZM40.9208+96.2555L39.1204+96.2555C38.7251+96.2555+38.4043+95.9347+38.4043+95.5394C38.4043+95.1441+38.7251+94.8233+39.1204+94.8233L40.9208+94.8233C41.3161+94.8233+41.637+95.1441+41.637+95.5394C41.637+95.9347+41.3176+96.2555+40.9208+96.2555ZM36.2401+106.939L33.7207+106.939C33.3254+106.939+33.0046+106.618+33.0046+106.223C33.0046+105.828+33.3254+105.507+33.7207+105.507L36.2401+105.507C36.6354+105.507+36.9563+105.828+36.9563+106.223C36.9563+106.618+36.6354+106.939+36.2401+106.939ZM88.7205+30.2673L74.3532+30.2673C73.9579+30.2673+73.6371+29.9465+73.6371+29.5511C73.6371+29.1558+73.9579+28.835+74.3532+28.835L88.7205+28.835C89.1158+28.835+89.4366+29.1558+89.4366+29.5511C89.4366+29.9465+89.1172+30.2673+88.7205+30.2673ZM92.8469+30.2673L90.7758+30.2673C90.3805+30.2673+90.0597+29.9465+90.0597+29.5511C90.0597+29.1558+90.3805+28.835+90.7758+28.835L92.8469+28.835C93.2422+28.835+93.5631+29.1558+93.5631+29.5511C93.5631+29.9465+93.2422+30.2673+92.8469+30.2673ZM98.6548+30.2673L95.0082+30.2673C94.6129+30.2673+94.2921+29.9465+94.2921+29.5511C94.2921+29.1558+94.6129+28.835+95.0082+28.835L98.6548+28.835C99.0501+28.835+99.371+29.1558+99.371+29.5511C99.371+29.9465+99.0501+30.2673+98.6548+30.2673ZM95.7516+24.9249L81.9787+24.9249C81.5834+24.9249+81.2626+24.604+81.2626+24.2087C81.2626+23.8134+81.5834+23.4926+81.9787+23.4926L95.7516+23.4926C96.1469+23.4926+96.4677+23.8134+96.4677+24.2087C96.4677+24.604+96.1483+24.9249+95.7516+24.9249ZM79.4994+24.9249L78.6687+24.9249C78.2734+24.9249+77.9526+24.604+77.9526+24.2087C77.9526+23.8134+78.2734+23.4926+78.6687+23.4926L79.4994+23.4926C79.8948+23.4926+80.2156+23.8134+80.2156+24.2087C80.2156+24.604+79.8947+24.9249+79.4994+24.9249ZM76.0949+24.9249L74.0095+24.9249C73.6142+24.9249+73.2933+24.604+73.2933+24.2087C73.2933+23.8134+73.6142+23.4926+74.0095+23.4926L76.0949+23.4926C76.4902+23.4926+76.811+23.8134+76.811+24.2087C76.811+24.604+76.4902+24.9249+76.0949+24.9249ZM92.0821+27.5946L84.882+27.5946C84.4867+27.5946+84.1658+27.2738+84.1658+26.8785C84.1658+26.4832+84.4867+26.1624+84.882+26.1624L92.0821+26.1624C92.4774+26.1624+92.7982+26.4832+92.7982+26.8785C92.7982+27.2738+92.4774+27.5946+92.0821+27.5946Z" opacity="1" fill="#ffffff"/>
<path d="M92.0821+24.9249L90.2803+24.9249C89.8849+24.9249+89.5641+24.604+89.5641+24.2087C89.5641+23.8134+89.8849+23.4926+90.2803+23.4926L92.0821+23.4926C92.4774+23.4926+92.7982+23.8134+92.7982+24.2087C92.7982+24.604+92.4774+24.9249+92.0821+24.9249ZM82.7966+27.5946L80.2772+27.5946C79.8819+27.5946+79.561+27.2738+79.561+26.8785C79.561+26.4832+79.8819+26.1624+80.2772+26.1624L82.7966+26.1624C83.1919+26.1624+83.5127+26.4832+83.5127+26.8785C83.5127+27.2738+83.1919+27.5946+82.7966+27.5946Z" opacity="1" fill="#ffffff"/>
<path d="M85.6869+39.6072C87.4787+39.1546+89.3149+40.2489+89.5784+41.2902L96.8444+70.0175C97.4875+72.5584+96.3918+74.3946+94.6015+74.8486L37.3816+89.3218C36.3361+89.5868+35.2733+89.3233+34.4813+88.7017" opacity="1" fill="#88ae45"/>
<path d="M36.5524+90.429C35.5884+90.429+34.646+90.1067+33.8625+89.4923C33.4257+89.1514+33.3512+88.5198+33.6921+88.0858C34.033+87.6475+34.666+87.5745+35.0986+87.9153C35.683+88.3737+36.4249+88.5327+37.1339+88.3522L94.3537+73.8804C94.9753+73.7243+95.4537+73.3404+95.7387+72.7718C96.071+72.1058+96.1183+71.2407+95.8719+70.2681L88.6059+41.5394C88.5687+41.3904+88.308+41.0553+87.768+40.7931C87.1851+40.5124+86.5133+40.4351+85.9333+40.5826C85.4033+40.7187+84.8505+40.395+84.7144+39.8564C84.5783+39.3193+84.9035+38.7736+85.4406+38.6376C86.489+38.3726+87.6277+38.4958+88.6432+38.9885C89.6314+39.4683+90.3447+40.2374+90.5495+41.0467L97.8155+69.7754C98.1807+71.2206+98.0833+72.567+97.5319+73.6698C96.9862+74.7598+96.0323+75.5246+94.8464+75.8254L37.6266+90.2972C37.2699+90.3832+36.909+90.429+36.5524+90.429Z" opacity="1" fill="#472b29"/>
<path d="M86.8413+72.5784L35.2461+85.6294C31.9289+86.4687+28.5287+84.4406+27.6894+81.1234L21.8843+58.1739C21.045+54.8568+23.0731+51.4565+26.3903+50.6172L77.9855+37.5662C81.3027+36.7269+84.7029+38.755+85.5422+42.0722L91.3473+65.0217C92.1866+68.3389+90.1599+71.7391+86.8413+72.5784Z" opacity="1" fill="#c0d078"/>
<path d="M33.7207+86.8225C32.436+86.8225+31.1655+86.4759+30.0254+85.7956C28.364+84.8059+27.1895+83.2332+26.7169+81.3684L20.9118+58.4203C19.935+54.5588+22.2825+50.6229+26.1439+49.6447L77.7377+36.5951C81.6063+35.6212+85.5351+37.9658+86.5133+41.8258L92.3184+64.7739C93.2952+68.6353+90.9477+72.5713+87.0877+73.5495L87.0877+73.5495L35.4925+86.6005C34.9067+86.7495+34.3123+86.8225+33.7207+86.8225ZM79.5109+38.3797C79.0884+38.3797+78.6601+38.4313+78.2319+38.5387L26.6381+51.5883C25.2932+51.9277+24.1574+52.7771+23.4412+53.9788C22.7251+55.1805+22.5174+56.5827+22.8583+57.9276L28.6633+80.8757C29.0028+82.2206+29.8521+83.3564+31.0538+84.0725C32.2555+84.7887+33.6563+84.9978+35.0026+84.6555L86.5978+71.6045C89.3879+70.8984+91.0838+68.0538+90.3776+65.2652L84.5726+42.3171C83.9739+39.9553+81.8427+38.3797+79.5109+38.3797ZM86.8428+72.5784L86.8571+72.5784L86.8428+72.5784Z" opacity="1" fill="#472b29"/>
<path d="M65.0348+46.3461L29.7304+55.2764C30.2832+57.465+29.0816+59.6564+27.0463+60.172L31.2801+76.9125C33.3168+76.3969+35.4166+77.7547+35.9708+79.9447L83.5012+67.9221C82.947+65.7321+84.1501+63.5407+86.1868+63.0251L81.9529+46.2845L81.9515+46.2845C79.9148+46.8002+77.8165+45.4423+77.2622+43.2552L72.9926+44.3352" opacity="1" fill="#88ae45"/>
<path d="M35.9708+80.4073C35.7617+80.4073+35.5741+80.2655+35.5197+80.0564C35.0313+78.1171+33.1722+76.9082+31.3961+77.3623C31.144+77.4281+30.8934+77.2735+30.8289+77.0257L26.5937+60.2851C26.5636+60.1648+26.5822+60.0373+26.6452+59.9328C26.7083+59.8268+26.8114+59.7494+26.9303+59.7194C28.7149+59.2696+29.7676+57.3275+29.2792+55.391C29.2162+55.1418+29.368+54.8883+29.6158+54.8252L64.9188+45.8949C65.178+45.8334+65.4215+45.9838+65.486+46.2315C65.549+46.4822+65.3972+46.7357+65.1494+46.7987L30.2761+55.6187C30.5998+57.7328+29.4797+59.7681+27.6063+60.4813L31.6267+76.3726C33.619+76.1248+35.5698+77.368+36.2888+79.3847L82.9584+67.5798C82.7994+66.5528+82.9756+65.5187+83.4654+64.6235C83.9581+63.7255+84.7144+63.0609+85.6282+62.7143L81.6078+46.8245C80.6381+46.9548+79.6584+46.73+78.7976+46.1757C77.9397+45.6214+77.2937+44.7935+76.9457+43.8153L73.1072+44.7878C72.8522+44.8551+72.6044+44.699+72.54+44.4512C72.4769+44.2006+72.6288+43.947+72.8766+43.884L77.1448+42.8041C77.4054+42.7439+77.6475+42.8929+77.7119+43.1407C78.2018+45.0785+80.0609+46.2874+81.8355+45.8348C82.0919+45.7718+82.3382+45.9236+82.4027+46.1714L86.638+62.9119C86.668+63.0322+86.6494+63.1597+86.5864+63.2643C86.5234+63.3703+86.4202+63.4476+86.3014+63.4777C85.442+63.694+84.7244+64.2597+84.2804+65.0704C83.8307+65.8911+83.7132+66.8636+83.9524+67.8075C83.9825+67.9278+83.9639+68.0553+83.9009+68.1598C83.8378+68.2658+83.7347+68.3432+83.6158+68.3732L36.0854+80.3958C36.0468+80.403+36.0081+80.4073+35.9708+80.4073Z" opacity="1" fill="#472b29"/>
<path d="M66.6261+46.4091C66.4169+46.4091+66.2293+46.2673+66.1749+46.0582C66.1119+45.8076+66.2637+45.5541+66.5115+45.491L67.3078+45.2891C67.5642+45.2289+67.8106+45.3779+67.875+45.6257C67.938+45.8763+67.7862+46.1298+67.5384+46.1929L66.7421+46.3948C66.702+46.4048+66.6647+46.4091+66.6261+46.4091Z" opacity="1" fill="#472b29"/>
<path d="M54.7028+54.0397C50.5279+55.0955+47.9994+59.3359+49.0553+63.5109C50.1111+67.6858+54.3515+70.2143+58.5265+69.1584C62.7014+68.1025+65.2299+63.8621+64.174+59.6872C63.1181+55.5123+58.8777+52.9838+54.7028+54.0397Z" opacity="1" fill="#c0d078"/>
<path d="M56.6172+69.8614C52.9248+69.8614+49.5518+67.3635+48.605+63.6252C47.4893+59.2066+50.1734+54.7035+54.5891+53.5863C59.0163+52.4763+63.5108+55.1547+64.628+59.5718C65.7438+63.989+63.0597+68.4921+58.6425+69.6093C57.965+69.7797+57.2861+69.8614+56.6172+69.8614ZM56.6287+54.2624C56.0257+54.2624+55.4184+54.3383+54.8183+54.4901C50.8996+55.4798+48.5177+59.4759+49.5088+63.396C49.9886+65.2953+51.1789+66.8923+52.8618+67.8963C54.5433+68.8989+56.517+69.1882+58.4133+68.7055C62.3335+67.7158+64.7154+63.7197+63.7242+59.801C63.2444+57.9018+62.0542+56.3048+60.3713+55.2993C59.2211+54.6147+57.935+54.2624+56.6287+54.2624Z" opacity="1" fill="#472b29"/>
<path d="M41.1896+62.5375C39.8709+62.8705+39.072+64.2097+39.4055+65.5283C39.739+66.8469+41.0785+67.6453+42.397+67.3114C43.7157+66.9784+44.5145+65.6391+44.1811+64.3206C43.8476+63.002+42.5081+62.2036+41.1896+62.5375Z" opacity="1" fill="#c0d078"/>
<path d="M41.7888+67.8533C41.2689+67.8533+40.7547+67.7115+40.2964+67.4394C39.6232+67.0383+39.1477+66.3995+38.9557+65.6404C38.7638+64.8842+38.8798+64.0964+39.2809+63.4247C39.6805+62.7515+40.3193+62.276+41.0784+62.0841C41.8346+61.8936+42.6252+62.0082+43.2956+62.4078C43.9673+62.8088+44.4428+63.4476+44.6347+64.2067C44.8267+64.963+44.7121+65.7507+44.311+66.4225C43.91+67.0956+43.2712+67.5712+42.5121+67.7631C42.2729+67.8218+42.0309+67.8533+41.7888+67.8533ZM41.7988+62.9248C41.6341+62.9248+41.4694+62.9463+41.3047+62.9878C40.7876+63.1182+40.3522+63.4419+40.0801+63.9002C39.8065+64.3585+39.7277+64.8957+39.8595+65.4127C39.9898+65.9298+40.3135+66.3666+40.7733+66.6387C41.2288+66.9109+41.7687+66.9897+42.2844+66.8579C42.8014+66.7275+43.2383+66.4038+43.5104+65.9441C43.7825+65.4872+43.8613+64.9501+43.7295+64.433C43.7295+64.433+43.7295+64.433+43.7295+64.4316C43.5992+63.916+43.2755+63.4791+42.8172+63.207C42.5049+63.0222+42.1555+62.9248+41.7988+62.9248Z" opacity="1" fill="#472b29"/>
<path d="M70.6324+55.0913C69.3137+55.4243+68.5148+56.7635+68.8483+58.0821C69.1818+59.4007+70.5213+60.1991+71.8398+59.8652C73.1585+59.5322+73.9574+58.193+73.6239+56.8744C73.2904+55.5558+71.9509+54.7574+70.6324+55.0913Z" opacity="1" fill="#c0d078"/>
<path d="M71.2394+60.404C69.9303+60.404+68.7344+59.5203+68.3978+58.1954C68.0039+56.6285+68.955+55.0344+70.5176+54.6391C72.0816+54.2495+73.6772+55.1948+74.0754+56.7588L74.0754+56.7588C74.4693+58.3229+73.5182+59.9185+71.9556+60.3152C71.7164+60.3754+71.4758+60.404+71.2394+60.404ZM71.2366+55.4798C71.0747+55.4798+70.91+55.4999+70.7467+55.5414C69.6797+55.8107+69.0309+56.8978+69.3001+57.9663C69.5708+59.0319+70.6637+59.685+71.7264+59.4114C72.792+59.1422+73.4409+58.0536+73.1716+56.988L73.1716+56.988C72.9453+56.0828+72.1289+55.4798+71.2366+55.4798Z" opacity="1" fill="#472b29"/>
<path d="M39.3668+91.5505C42.0638+91.5505+44.4041+91.5505+44.4371+91.5505C47.4592+91.5505+49.9099+89.1528+49.9099+86.1952C49.9099+83.6142+48.045+81.4615+45.5629+80.953C45.5915+80.7267+45.6116+80.499+45.6116+80.2655C45.6116+77.2018+43.0736+74.7183+39.944+74.7183C38.0964+74.7183+36.4593+75.5877+35.4252+76.9283C35.1602+73.518+32.0478+70.8869+28.407+71.3237C25.7443+71.6431+23.5415+73.6569+23.0516+76.2379C22.8941+77.0658+22.9113+77.8693+23.0674+78.6227C22.3541+77.8707+21.3372+77.3966+20.2057+77.3966C18.1346+77.3966+16.4431+78.975+16.3099+80.9688C15.3689+80.7654+14.3462+80.7783+13.2691+81.1736C11.2095+81.9298+9.74284+83.8276+9.6569+85.9803C9.53516+89.0354+12.0302+91.5505+15.1254+91.5505C15.3603+91.5505+16.1867+91.5505+16.3772+91.5505L27.7409+91.5505M30.0899+91.5505L30.6055+91.5505" opacity="1" fill="#fdfcef"/>
<path d="M44.4371+92.2666L39.3668+92.2666C38.9715+92.2666+38.6507+91.9458+38.6507+91.5505C38.6507+91.1552+38.9715+90.8343+39.3668+90.8343L44.4371+90.8343C47.0596+90.8343+49.1923+88.7532+49.1923+86.1952C49.1923+84.0124+47.6053+82.1031+45.4168+81.6563C45.0515+81.5803+44.8038+81.2366+44.8496+80.8656C44.8739+80.668+44.8911+80.4703+44.8911+80.2655C44.8911+77.6015+42.6696+75.4344+39.9397+75.4344C38.3757+75.4344+36.9348+76.1377+35.9866+77.3666C35.8061+77.6015+35.4982+77.6974+35.216+77.6158C34.9324+77.5298+34.7291+77.2806+34.7076+76.9856C34.5944+75.5246+33.8983+74.2012+32.7468+73.2559C31.5594+72.2819+30.0483+71.8508+28.4886+72.0327C26.131+72.3149+24.1817+74.0981+23.7506+76.3697C23.616+77.0801+23.6202+77.7877+23.7635+78.4766C23.8294+78.7903+23.6775+79.1082+23.3939+79.2572C23.1118+79.4047+22.7666+79.3474+22.5417+79.114C21.9302+78.468+21.098+78.1128+20.2+78.1128C18.5256+78.1128+17.1277+79.389+17.0188+81.016C17.0045+81.2251+16.9014+81.4156+16.7353+81.5402C16.5691+81.6663+16.3571+81.7135+16.1523+81.6677C15.2399+81.4701+14.3748+81.5274+13.5112+81.8468C11.7036+82.5099+10.4389+84.1828+10.3673+86.009C10.3172+87.2608+10.7712+88.4539+11.6492+89.3663C12.5587+90.3116+13.7919+90.8329+15.1211+90.8329L27.7352+90.8329C28.1305+90.8329+28.4513+91.1537+28.4513+91.5491C28.4513+91.9444+28.1305+92.2652+27.7352+92.2652L15.1225+92.2652C13.4238+92.2652+11.7824+91.5705+10.6165+90.3574C9.46784+89.1629+8.87201+87.5974+8.93646+85.9517C9.03385+83.5526+10.6738+81.3626+13.0185+80.5004C13.895+80.1796+14.7959+80.0578+15.7126+80.1509C16.2067+78.1515+18.0458+76.6791+20.2028+76.6791C20.919+76.6791+21.6065+76.8366+22.2281+77.1345C22.241+76.7922+22.2796+76.447+22.3455+76.1019C22.8912+73.223+25.349+70.9642+28.3196+70.609C30.2789+70.3698+32.1667+70.9213+33.6563+72.1444C34.7276+73.0224+35.4867+74.1625+35.8706+75.4416C37.0035+74.5135+38.4287+73.9993+39.9426+73.9993C43.4631+73.9993+46.3263+76.8094+46.3263+80.2626C46.3263+80.3113+46.3248+80.36+46.3234+80.4102C48.8514+81.2037+50.626+83.544+50.626+86.1923C50.626+89.5424+47.8488+92.2666+44.4371+92.2666ZM30.6041+92.2666L30.0899+92.2666C29.6946+92.2666+29.3737+91.9458+29.3737+91.5505C29.3737+91.1552+29.6946+90.8343+30.0899+90.8343L30.6041+90.8343C30.9994+90.8343+31.3202+91.1552+31.3202+91.5505C31.3202+91.9458+30.9994+92.2666+30.6041+92.2666Z" opacity="1" fill="#472b29"/>
<path d="M41.9907+83.9551C41.965+83.9551+41.9392+83.9522+41.912+83.9465C41.7186+83.9035+41.5969+83.7116+41.6413+83.5182C41.6943+83.2805+41.7773+83.0499+41.8862+82.8322C42.7513+81.079+45.1403+80.4331+47.2157+81.3913C47.3962+81.4744+47.475+81.6863+47.3905+81.8654C47.3074+82.0458+47.0926+82.1246+46.9164+82.0401C45.1905+81.2423+43.2239+81.7408+42.5293+83.1487C42.4434+83.3163+42.3818+83.4924+42.3417+83.6743C42.303+83.8419+42.1555+83.9551+41.9907+83.9551ZM34.603+92.2666L33.0175+92.2666C32.6222+92.2666+32.3013+91.9458+32.3013+91.5505C32.3013+91.1552+32.6222+90.8343+33.0175+90.8343L34.603+90.8343C34.9983+90.8343+35.3192+91.1552+35.3192+91.5505C35.3192+91.9458+34.9983+92.2666+34.603+92.2666Z" opacity="1" fill="#472b29"/>
<path d="M90.7543+60.722C85.8159+60.722+81.8126+64.7253+81.8126+69.6637C81.8126+74.6021+85.8159+78.6055+90.7543+78.6055C95.6927+78.6055+99.6961+74.6021+99.6961+69.6637C99.6961+64.7253+95.6927+60.722+90.7543+60.722Z" opacity="1" fill="#fbcd59"/>
<path d="M90.7543+79.3216C85.4291+79.3216+81.0964+74.9904+81.0964+69.6652C81.0964+64.3399+85.4291+60.0073+90.7543+60.0073C96.0796+60.0073+100.411+64.3399+100.411+69.6652C100.411+74.9904+96.0796+79.3216+90.7543+79.3216ZM90.7543+61.4381C86.2183+61.4381+82.5287+65.1277+82.5287+69.6637C82.5287+74.1983+86.2183+77.8879+90.7543+77.8879C95.289+77.8879+98.9785+74.1983+98.9785+69.6637C98.9785+65.1277+95.289+61.4381+90.7543+61.4381Z" opacity="1" fill="#472b29"/>
<path d="M90.7543+63.8171C87.5254+63.8171+84.9077+66.4347+84.9077+69.6637C84.9077+72.8927+87.5254+75.5103+90.7543+75.5103C93.9833+75.5103+96.6009+72.8927+96.6009+69.6637C96.6009+66.4347+93.9833+63.8171+90.7543+63.8171Z" opacity="1" fill="#f1bc19"/>
<path d="M90.7543+75.867C87.3326+75.867+84.5497+73.084+84.5497+69.6637C84.5497+66.242+87.3326+63.4591+90.7543+63.4591C94.1761+63.4591+96.959+66.242+96.959+69.6637C96.959+73.084+94.1761+75.867+90.7543+75.867ZM90.7543+64.1752C87.7279+64.1752+85.2658+66.6373+85.2658+69.6637C85.2658+72.6887+87.7279+75.1508+90.7543+75.1508C93.7808+75.1508+96.2429+72.6887+96.2429+69.6637C96.2429+66.6373+93.7808+64.1752+90.7543+64.1752Z" opacity="1" fill="#472b29"/>
<path d="M76.3713+71.0001C71.4329+71.0001+67.4296+75.0034+67.4296+79.9418C67.4296+84.8802+71.4329+88.8836+76.3713+88.8836C81.3097+88.8836+85.3131+84.8802+85.3131+79.9418C85.3131+75.0034+81.3097+71.0001+76.3713+71.0001Z" opacity="1" fill="#fbcd59"/>
<path d="M76.3713+89.5997C71.0461+89.5997+66.7134+85.2671+66.7134+79.9418C66.7134+74.6166+71.0461+70.2853+76.3713+70.2853C81.6966+70.2853+86.0292+74.6166+86.0292+79.9418C86.0292+85.2671+81.6966+89.5997+76.3713+89.5997ZM76.3713+71.7176C71.8353+71.7176+68.1457+75.4072+68.1457+79.9418C68.1457+84.4779+71.8353+88.1674+76.3713+88.1674C80.9074+88.1674+84.5969+84.4779+84.5969+79.9418C84.5969+75.4072+80.9074+71.7176+76.3713+71.7176Z" opacity="1" fill="#472b29"/>
<path d="M76.3713+74.0967C73.1408+74.0944+70.5207+76.7127+70.5207+79.9432C70.5207+83.1738+73.1408+85.7921+76.3713+85.7898C79.6019+85.7921+82.222+83.1738+82.222+79.9432C82.222+76.7127+79.6019+74.0944+76.3713+74.0967Z" opacity="1" fill="#f1bc19"/>
<path d="M76.3713+86.1465C72.9496+86.1465+70.1667+83.3635+70.1667+79.9418C70.1667+76.5201+72.9496+73.7371+76.3713+73.7371C79.7931+73.7371+82.576+76.5201+82.576+79.9418C82.576+83.3635+79.7931+86.1465+76.3713+86.1465ZM76.3713+74.4533C73.3449+74.4533+70.8828+76.9154+70.8828+79.9418C70.8828+82.9682+73.3449+85.4303+76.3713+85.4303C79.3977+85.4303+81.8598+82.9682+81.8598+79.9418C81.8598+76.9154+79.3977+74.4533+76.3713+74.4533Z" opacity="1" fill="#472b29"/>
<path d="M75.6094+81.5044C75.6179+81.5044+75.6337+81.513+75.6581+81.5288L75.6452+81.5231C75.7626+81.6033+75.8672+81.6677+75.9603+81.7135C76.0534+81.7594+76.1522+81.7923+76.2567+81.8124L76.2567+79.9304L76.1479+79.8702C76.0147+79.7972+75.8872+79.7212+75.7669+79.6396C75.6452+79.5594+75.5363+79.4706+75.4403+79.3732C75.343+79.2772+75.2613+79.1741+75.1954+79.0653C75.1295+78.9564+75.0837+78.8375+75.0594+78.7086C75.0436+78.6442+75.0336+78.584+75.0321+78.5267C75.0307+78.4694+75.0293+78.4093+75.0293+78.3448C75.0293+78.1558+75.0608+77.9896+75.1224+77.8492C75.1854+77.7074+75.2713+77.5871+75.3802+77.4897C75.489+77.3909+75.6179+77.3121+75.7669+77.2534C75.9159+77.1947+76.0791+77.156+76.2567+77.136L76.2567+76.967C76.2567+76.8867+76.2754+76.818+76.3112+76.7607C76.347+76.7034+76.4143+76.6762+76.5103+76.6762L76.5346+76.6762C76.7437+76.6762+76.8597+76.7793+76.8798+76.9841L76.8741+77.1474C76.9872+77.1675+77.1032+77.199+77.2221+77.242C77.341+77.2849+77.4756+77.3379+77.6246+77.4024L77.6074+77.3909C77.6761+77.4153+77.7291+77.4453+77.7678+77.4811C77.8065+77.517+77.8294+77.5757+77.838+77.6559L77.838+77.6917C77.838+77.7203+77.8308+77.7561+77.8165+77.8005C77.8022+77.8449+77.7807+77.8879+77.7535+77.928C77.7248+77.9681+77.6933+78.0039+77.6561+78.034C77.6203+78.0641+77.5787+78.0798+77.5343+78.0798C77.4985+78.0798+77.4642+78.077+77.4341+78.0698C77.404+78.0641+77.3682+78.0469+77.3281+78.0183L77.3281+78.024L77.2622+77.9882C77.1448+77.928+77.0159+77.8793+76.8755+77.8435L76.8755+79.4964L76.8998+79.5093C77.2264+79.6754+77.4785+79.8587+77.6561+80.0607C77.8337+80.2626+77.9511+80.4718+78.007+80.6909C78.0314+80.784+78.0485+80.8685+78.0586+80.9444C78.0686+81.0218+78.0743+81.0991+78.0743+81.1807C78.0743+81.3669+78.0442+81.5345+77.9827+81.6835C77.9225+81.8324+77.8394+81.9628+77.7349+82.0745C77.6303+82.1848+77.5043+82.2764+77.3567+82.3466C77.2092+82.4182+77.0488+82.4655+76.8755+82.4884L76.8755+82.9238C76.8755+83.004+76.8597+83.0728+76.8268+83.1301C76.7953+83.1859+76.728+83.2146+76.6277+83.2146L76.5919+83.2146C76.4902+83.2146+76.41+83.1874+76.3498+83.1329C76.2897+83.0785+76.2582+82.9983+76.2582+82.8938L76.2582+82.4884C76.0405+82.4641+75.8528+82.4154+75.6953+82.3438C75.5377+82.2707+75.3759+82.1805+75.2112+82.0716C75.1668+82.0358+75.1367+82.0014+75.1195+81.9685C75.1038+81.937+75.0851+81.8926+75.0651+81.8353L75.0651+81.7995C75.0651+81.7637+75.0765+81.7221+75.098+81.6763C75.1195+81.629+75.1467+81.5846+75.1797+81.5431C75.2126+81.5001+75.2456+81.4643+75.2828+81.4343C75.3186+81.4042+75.353+81.3884+75.3859+81.3884C75.4303+81.3884+75.469+81.4013+75.5048+81.4285C75.5392+81.4543+75.5721+81.4815+75.6036+81.5102L75.6094+81.5102C75.6179+81.5145+75.6237+81.5159+75.6265+81.5159L75.6094+81.5044ZM75.9202+78.932C76.0147+79.0209+76.1264+79.0996+76.2567+79.1684L76.2567+77.8421C76.1035+77.875+75.976+77.9366+75.8729+78.0297C75.7698+78.1228+75.7182+78.2474+75.7182+78.405C75.7182+78.4293+75.7196+78.4551+75.7211+78.4837C75.7225+78.5124+75.7282+78.5468+75.7368+78.5869C75.764+78.7272+75.8256+78.8432+75.9202+78.932ZM77.1648+80.5262C77.0846+80.4274+76.9872+80.3414+76.8741+80.2684L76.8741+81.7766C77.0144+81.7193+77.1333+81.6333+77.2278+81.5159C77.3224+81.3984+77.3696+81.2624+77.3696+81.1048C77.3696+81.0604+77.3653+81.0203+77.3582+80.9831C77.3496+80.9473+77.3424+80.9086+77.3338+80.8685C77.3023+80.7396+77.245+80.625+77.1648+80.5262ZM89.8133+71.2264C89.8219+71.2264+89.8377+71.2349+89.862+71.2507L89.8491+71.245C89.9666+71.3252+90.0711+71.3896+90.1642+71.4355C90.2573+71.4813+90.3562+71.5142+90.4607+71.5343L90.4607+69.6523L90.3519+69.5921C90.2187+69.5191+90.0912+69.4432+89.9709+69.3615C89.8491+69.2813+89.7403+69.1925+89.6443+69.0951C89.5469+68.9991+89.4653+68.896+89.3994+68.7872C89.3335+68.6783+89.2877+68.5594+89.2633+68.4305C89.2476+68.3661+89.2376+68.3059+89.2361+68.2486C89.2347+68.1913+89.2333+68.1312+89.2333+68.0667C89.2333+67.8777+89.2648+67.7115+89.3264+67.5712C89.3894+67.4294+89.4753+67.3091+89.5842+67.2117C89.693+67.1128+89.8219+67.0341+89.9709+66.9753C90.1198+66.9166+90.2831+66.8779+90.4607+66.8579L90.4607+66.6889C90.4607+66.6087+90.4793+66.5399+90.5152+66.4826C90.551+66.4253+90.6183+66.3981+90.7142+66.3981L90.7386+66.3981C90.9477+66.3981+91.0637+66.5012+91.0838+66.7061L91.078+66.8693C91.1912+66.8894+91.3072+66.9209+91.4261+66.9639C91.545+67.0068+91.6796+67.0598+91.8286+67.1243L91.8114+67.1128C91.8801+67.1372+91.9331+67.1673+91.9718+67.2031C92.0105+67.2389+92.0334+67.2976+92.042+67.3778L92.042+67.4136C92.042+67.4423+92.0348+67.4781+92.0205+67.5225C92.0062+67.5669+91.9847+67.6098+91.9575+67.6499C91.9288+67.69+91.8973+67.7258+91.8601+67.7559C91.8243+67.786+91.7827+67.8018+91.7383+67.8018C91.7025+67.8018+91.6681+67.7989+91.6381+67.7917C91.608+67.786+91.5722+67.7688+91.5321+67.7402L91.5321+67.7459L91.4662+67.7101C91.3487+67.6499+91.2198+67.6012+91.0795+67.5654L91.0795+69.2183L91.1038+69.2312C91.4304+69.3973+91.6825+69.5807+91.8601+69.7826C92.0377+69.9846+92.1551+70.1937+92.211+70.4128C92.2353+70.5059+92.2525+70.5904+92.2625+70.6663C92.2726+70.7437+92.2783+70.821+92.2783+70.9027C92.2783+71.0889+92.2482+71.2564+92.1866+71.4054C92.1265+71.5543+92.0434+71.6847+91.9388+71.7964C91.8343+71.9067+91.7082+71.9984+91.5607+72.0685C91.4132+72.1401+91.2528+72.1874+91.0795+72.2103L91.0795+72.6457C91.0795+72.726+91.0637+72.7947+91.0308+72.852C90.9993+72.9079+90.9319+72.9365+90.8317+72.9365L90.7959+72.9365C90.6942+72.9365+90.614+72.9093+90.5538+72.8549C90.4937+72.8004+90.4622+72.7202+90.4622+72.6157L90.4622+72.2103C90.2444+72.186+90.0568+72.1373+89.8993+72.0657C89.7417+71.9926+89.5799+71.9024+89.4152+71.7935C89.3708+71.7577+89.3407+71.7234+89.3235+71.6904C89.3077+71.6589+89.2891+71.6145+89.2691+71.5572L89.2691+71.5157C89.2691+71.4799+89.2805+71.4383+89.302+71.3925C89.3235+71.3452+89.3507+71.3008+89.3836+71.2593C89.4166+71.2163+89.4495+71.1805+89.4868+71.1504C89.5226+71.1204+89.557+71.1046+89.5899+71.1046C89.6343+71.1046+89.673+71.1175+89.7088+71.1447C89.7431+71.1705+89.7761+71.1977+89.8076+71.2264L89.8133+71.2264C89.8219+71.2306+89.8277+71.2321+89.8305+71.2321L89.8133+71.2264ZM90.1241+68.6525C90.2187+68.7413+90.3304+68.8201+90.4607+68.8889L90.4607+67.5626C90.3075+67.5955+90.18+67.6571+90.0769+67.7502C89.9737+67.8433+89.9222+67.9679+89.9222+68.1255C89.9222+68.1498+89.9236+68.1756+89.925+68.2042C89.9265+68.2329+89.9322+68.2673+89.9408+68.3074C89.968+68.4492+90.0296+68.5637+90.1241+68.6525ZM91.3688+70.2481C91.2886+70.1493+91.1912+70.0633+91.078+69.9903L91.078+71.4985C91.2184+71.4412+91.3373+71.3553+91.4318+71.2378C91.5263+71.1204+91.5736+70.9843+91.5736+70.8267C91.5736+70.7823+91.5693+70.7422+91.5621+70.705C91.5536+70.6692+91.5464+70.6305+91.5378+70.5904C91.5063+70.4615+91.449+70.3469+91.3688+70.2481Z" opacity="1" fill="#472b29"/>
</g>
</g>
</svg>
