<?xml version="1.0" encoding="UTF-8" standalone="no"?> <!-- Created with Vectornator for iOS (http://vectornator.io/) --><!DOCTYPE svg PUBLIC "-//W3C//DTD SVG 1.1//EN" "http://www.w3.org/Graphics/SVG/1.1/DTD/svg11.dtd">
<svg style="fill-rule:evenodd;clip-rule:evenodd;stroke-linecap:round;stroke-linejoin:round;" xmlns:vectornator="http://vectornator.io" xmlns:xlink="http://www.w3.org/1999/xlink" xmlns="http://www.w3.org/2000/svg" xml:space="preserve" version="1.1" viewBox="0 0 120 120">
<metadata>
<vectornator:setting key="DimensionsVisible" value="1"/>
<vectornator:setting key="SnapToGrid" value="0"/>
<vectornator:setting key="SnapToPoints" value="0"/>
<vectornator:setting key="GuidesVisible" value="1"/>
<vectornator:setting key="RulersVisible" value="1"/>
<vectornator:setting key="CMYKEnabledKey" value="0"/>
<vectornator:setting key="SnapToEdges" value="0"/>
<vectornator:setting key="DisplayWhiteBackground" value="0"/>
<vectornator:setting key="SnapToGuides" value="1"/>
<vectornator:setting key="GridSpacing" value="36"/>
<vectornator:setting key="Units" value="Pixels"/>
<vectornator:setting key="DynamicGuides" value="0"/>
<vectornator:setting key="New" value="1"/>
</metadata>
<defs/>
<g id="Layer 1" vectornator:layerName="Layer 1">
<g opacity="1">
<path d="M114.645+69.7578C115.074+68.8777+115.454+67.952+115.782+66.9819C119.544+55.8813+113.855+42.5834+101.877+39.3732C100.581+23.1109+89.1522+11.9545+76.2443+10.0516C61.4706+7.87286+47.937+17.2577+43.4339+32.1742C38.0064+30.2513+32.7176+30.4856+27.733+33.3986C25.4714+34.4444+23.4027+35.9873+21.5469+38.0174C18.8225+40.9976+17.051+44.7592+16.3295+48.7252C15.2609+48.8938+14.2108+49.0623+13.2207+49.4166C7.44899+51.4868+3.80735+55.747+2.80872+62.1645C2.18726+66.1604+3.44162+70.1464+4.14166+71.7565C6.9061+78.1211+13.3165+81.7285+19.8297+80.7741C20.154+80.727+20.6254+80.8727+20.904+81.107C21.2483+91.279+26.1872+100.275+33.5962+105.414C45.484+113.66+60.7792+111.12+70.4283+99.8124C74.5628+104.041+79.4831+106.096+85.2634+105.35C91.0109+104.608+95.474+101.437+98.7299+96.2793C100.234+96.6836+101.66+97.2665+103.134+97.4279C108.909+98.0594+113.559+95.7364+117.038+90.5704C117.157+90.3933+117.328+90.2575+117.475+90.1018C117.972+88.9617+118.47+87.8217+118.967+86.6816C119.188+84.9515+119.58+83.22+119.6+81.4927C119.657+76.8411+117.754+72.6008+114.645+69.7578Z" opacity="1" fill="#c8ede6"/>
<path d="M42.2129+22.2905L44.5499+22.2905C46.128+22.2905+47.4072+23.5697+47.4072+25.1478L47.4072+44.2403C47.4072+45.8184+46.128+47.0976+44.5499+47.0976L42.2129+47.0976C40.6348+47.0976+39.3556+45.8184+39.3556+44.2403L39.3556+25.1478C39.3556+23.5697+40.6348+22.2905+42.2129+22.2905Z" opacity="1" fill="#472b29"/>
<path d="M59.4703+20.7123L68.2831+28.5996L71.1521+30.7055L85.0648+44.4226L35.2201+44.7825L59.4703+20.7123Z" opacity="1" fill="#836f61"/>
<g opacity="1">
<path d="M58.8381+80.2122C56.4109+79.0679+53.6036+79.8779+52.5678+82.0223C52.4392+82.2881+52.3435+82.5638+52.2806+82.8424" opacity="1" fill="#fdfcef"/>
<path d="M52.2806+83.1981C52.2549+83.1981+52.2278+83.1952+52.2006+83.1895C52.0078+83.1452+51.8878+82.9538+51.932+82.7624C52.002+82.4552+52.1078+82.1538+52.2463+81.868C53.365+79.5508+56.3909+78.6636+58.9896+79.8908C59.1682+79.9751+59.2453+80.1879+59.161+80.3665C59.0767+80.5465+58.861+80.6194+58.6853+80.538C56.438+79.4793+53.8364+80.2137+52.8892+82.1795C52.7735+82.4181+52.6864+82.6681+52.6278+82.9238C52.5921+83.0852+52.4449+83.1981+52.2806+83.1981Z" opacity="1" fill="#472b29"/>
<path d="M15.4443+61.5226L1.11345+61.5226C0.719139+61.5226+0.399121+61.2026+0.399121+60.8083C0.399121+60.414+0.719139+60.0939+1.11345+60.0939L15.4428+60.0939C15.8371+60.0939+16.1572+60.414+16.1572+60.8083C16.1572+61.2026+15.8386+61.5226+15.4443+61.5226ZM19.5602+61.5226L17.4944+61.5226C17.1001+61.5226+16.78+61.2026+16.78+60.8083C16.78+60.414+17.1001+60.0939+17.4944+60.0939L19.5602+60.0939C19.9545+60.0939+20.2745+60.414+20.2745+60.8083C20.2745+61.2026+19.9545+61.5226+19.5602+61.5226ZM25.352+61.5226L21.7146+61.5226C21.3203+61.5226+21.0003+61.2026+21.0003+60.8083C21.0003+60.414+21.3203+60.0939+21.7146+60.0939L25.352+60.0939C25.7463+60.0939+26.0663+60.414+26.0663+60.8083C26.0663+61.2026+25.7477+61.5226+25.352+61.5226ZM25.352+64.187L11.614+64.187C11.2197+64.187+10.8997+63.867+10.8997+63.4727C10.8997+63.0784+11.2197+62.7584+11.614+62.7584L25.352+62.7584C25.7463+62.7584+26.0663+63.0784+26.0663+63.4727C26.0663+63.867+25.7477+64.187+25.352+64.187ZM9.14104+64.187L8.31243+64.187C7.91812+64.187+7.5981+63.867+7.5981+63.4727C7.5981+63.0784+7.91812+62.7584+8.31243+62.7584L9.14104+62.7584C9.53535+62.7584+9.85537+63.0784+9.85537+63.4727C9.85537+63.867+9.53535+64.187+9.14104+64.187ZM5.74514+64.187L3.66502+64.187C3.27071+64.187+2.95069+63.867+2.95069+63.4727C2.95069+63.0784+3.27071+62.7584+3.66502+62.7584L5.74514+62.7584C6.13945+62.7584+6.45946+63.0784+6.45946+63.4727C6.45946+63.867+6.13945+64.187+5.74514+64.187ZM18.7959+58.8582L11.614+58.8582C11.2197+58.8582+10.8997+58.5381+10.8997+58.1438C10.8997+57.7495+11.2197+57.4295+11.614+57.4295L18.7959+57.4295C19.1902+57.4295+19.5102+57.7495+19.5102+58.1438C19.5102+58.5381+19.1916+58.8582+18.7959+58.8582ZM18.7959+56.1951L17.0001+56.1951C16.6058+56.1951+16.2857+55.8751+16.2857+55.4808C16.2857+55.0865+16.6058+54.7665+17.0001+54.7665L18.7959+54.7665C19.1902+54.7665+19.5102+55.0865+19.5102+55.4808C19.5102+55.8751+19.1916+56.1951+18.7959+56.1951ZM14.127+66.8515L11.614+66.8515C11.2197+66.8515+10.8997+66.5314+10.8997+66.1371C10.8997+65.7428+11.2197+65.4228+11.614+65.4228L14.127+65.4228C14.5213+65.4228+14.8414+65.7428+14.8414+66.1371C14.8414+66.5314+14.5213+66.8515+14.127+66.8515Z" opacity="1" fill="#ffffff"/>
<path d="M91.8815+96.8489L46.2917+96.8489C41.9372+96.8489+38.3741+93.2858+38.3741+88.9313L38.3741+43.343C38.3741+38.9885+41.9372+35.4254+46.2917+35.4254L91.8814+35.4254C96.236+35.4254+99.799+38.9885+99.799+43.343L99.799+88.9327C99.7976+93.2858+96.236+96.8489+91.8815+96.8489Z" opacity="1" fill="#fdfcee"/>
<path d="M91.8815+97.8489L46.2917+97.8489C41.3743+97.8489+37.3741+93.8487+37.3741+88.9313L37.3741+43.343C37.3741+38.4256+41.3743+34.4253+46.2917+34.4253L91.8814+34.4253C96.7974+34.4253+100.799+38.4256+100.799+43.343L100.799+88.9327C100.798+93.8487+96.7974+97.8489+91.8815+97.8489ZM46.2917+36.4255C42.4772+36.4255+39.3742+39.5285+39.3742+43.343L39.3742+88.9327C39.3742+92.7472+42.4772+95.8503+46.2917+95.8503L91.8814+95.8503C95.6945+95.8503+98.7976+92.7472+98.7976+88.9327L98.7976+43.343C98.7976+39.5285+95.6945+36.4255+91.8814+36.4255C91.8814+36.4255+46.2917+36.4255+46.2917+36.4255Z" opacity="1" fill="#472b29"/>
<path d="M39.1399+45.3617L66.3771+45.3617L66.3771+90.0742L39.1399+90.0742L39.1399+45.3617Z" opacity="1" fill="#836f61"/>
<path d="M86.7012+45.6245L81.2808+45.6245C80.8865+45.6245+80.5665+45.3045+80.5665+44.9102C80.5665+44.5159+80.8865+44.1959+81.2808+44.1959L86.7012+44.1959C87.0955+44.1959+87.4155+44.5159+87.4155+44.9102C87.4155+45.3045+87.0955+45.6245+86.7012+45.6245ZM78.5707+45.6245L38.8256+45.6245C38.4313+45.6245+38.1113+45.3045+38.1113+44.9102C38.1113+44.5159+38.4313+44.1959+38.8256+44.1959L78.5707+44.1959C78.965+44.1959+79.285+44.5159+79.285+44.9102C79.285+45.3045+78.9664+45.6245+78.5707+45.6245ZM99.3462+45.6245L91.2171+45.6245C90.8228+45.6245+90.5028+45.3045+90.5028+44.9102C90.5028+44.5159+90.8228+44.1959+91.2171+44.1959L99.3462+44.1959C99.7405+44.1959+100.06+44.5159+100.06+44.9102C100.06+45.3045+99.7419+45.6245+99.3462+45.6245ZM99.3462+90.7885L49.6648+90.7885C49.2705+90.7885+48.9504+90.4685+48.9504+90.0742C48.9504+89.6799+49.2705+89.3599+49.6648+89.3599L99.3462+89.3599C99.7405+89.3599+100.06+89.6799+100.06+90.0742C100.06+90.4685+99.7419+90.7885+99.3462+90.7885ZM46.9546+90.7885L38.8256+90.7885C38.4313+90.7885+38.1113+90.4685+38.1113+90.0742C38.1113+89.6799+38.4313+89.3599+38.8256+89.3599L46.9546+89.3599C47.3489+89.3599+47.6689+89.6799+47.6689+90.0742C47.6689+90.4685+47.3504+90.7885+46.9546+90.7885Z" opacity="1" fill="#472b29"/>
<path d="M46.0517+38.5856C45.0536+38.5856+44.2445+39.3947+44.2445+40.3928C44.2445+41.3909+45.0536+42.2001+46.0517+42.2001C47.0498+42.2001+47.859+41.3909+47.859+40.3928C47.859+39.3947+47.0498+38.5856+46.0517+38.5856Z" opacity="1" fill="#ee3e54"/>
<path d="M46.0517+42.6287C44.8188+42.6287+43.8173+41.6258+43.8173+40.3943C43.8173+39.1628+44.8202+38.1598+46.0517+38.1598C47.2832+38.1598+48.2861+39.1628+48.2861+40.3943C48.2875+41.6258+47.2846+42.6287+46.0517+42.6287ZM46.0517+39.0156C45.2917+39.0156+44.6731+39.6342+44.6731+40.3928C44.6731+41.1514+45.2917+41.7715+46.0517+41.7715C46.8118+41.7715+47.4304+41.1529+47.4304+40.3928C47.4304+39.6328+46.8118+39.0156+46.0517+39.0156Z" opacity="1" fill="#472b29"/>
<path d="M52.3749+38.5856C51.3768+38.5856+50.5677+39.3947+50.5677+40.3928C50.5677+41.3909+51.3768+42.2001+52.3749+42.2001C53.373+42.2001+54.1822+41.3909+54.1822+40.3928C54.1822+39.3947+53.373+38.5856+52.3749+38.5856Z" opacity="1" fill="#f1bc19"/>
<path d="M52.3749+42.6287C51.1434+42.6287+50.1405+41.6258+50.1405+40.3943C50.1405+39.1628+51.1434+38.1598+52.3749+38.1598C53.6079+38.1598+54.6093+39.1628+54.6093+40.3943C54.6093+41.6258+53.6078+42.6287+52.3749+42.6287ZM52.3749+39.0156C51.6149+39.0156+50.9977+39.6342+50.9977+40.3928C50.9977+41.1514+51.6163+41.7715+52.3749+41.7715C53.1335+41.7715+53.7536+41.1529+53.7536+40.3928C53.7536+39.6328+53.135+39.0156+52.3749+39.0156Z" opacity="1" fill="#472b29"/>
<path d="M58.6981+38.5856C57.7+38.5856+56.8909+39.3947+56.8909+40.3928C56.8909+41.3909+57.7+42.2001+58.6981+42.2001C59.6963+42.2001+60.5054+41.3909+60.5054+40.3928C60.5054+39.3947+59.6963+38.5856+58.6981+38.5856Z" opacity="1" fill="#88ae45"/>
<path d="M58.6981+42.6287C57.4652+42.6287+56.4637+41.6258+56.4637+40.3943C56.4637+39.1628+57.4666+38.1598+58.6981+38.1598C59.9296+38.1598+60.9326+39.1628+60.9326+40.3943C60.9326+41.6258+59.9296+42.6287+58.6981+42.6287ZM58.6981+39.0156C57.9381+39.0156+57.3195+39.6342+57.3195+40.3928C57.3195+41.1514+57.9381+41.7715+58.6981+41.7715C59.4582+41.7715+60.0754+41.1529+60.0754+40.3928C60.0754+39.6328+59.4582+39.0156+58.6981+39.0156ZM44.2459+87.9012C43.9502+87.9012+43.7101+87.6612+43.7101+87.3655L43.7101+47.6204C43.7101+47.3247+43.9502+47.0846+44.2459+47.0846C44.5416+47.0846+44.7816+47.3247+44.7816+47.6204L44.7816+87.3655C44.7816+87.6612+44.5416+87.9012+44.2459+87.9012Z" opacity="1" fill="#472b29"/>
<path d="M41.5357+49.9619C41.2429+49.9619+41.0028+49.7262+41+49.4319C40.9971+49.1362+41.2343+48.8947+41.53+48.8904L42.4329+48.8804C42.4344+48.8804+42.4358+48.8804+42.4386+48.8804C42.7315+48.8804+42.9715+49.1162+42.9744+49.4105C42.9772+49.7062+42.7401+49.9477+42.4444+49.9519L41.5415+49.9619C41.54+49.9619+41.5372+49.9619+41.5357+49.9619ZM41.5357+52.6721C41.2429+52.6721+41.0028+52.4364+41+52.1421C40.9971+51.8463+41.2343+51.6035+41.53+51.6006L42.4329+51.5906C42.6944+51.5449+42.9701+51.8249+42.9744+52.1206C42.9772+52.4164+42.7401+52.6592+42.4444+52.6621L41.5415+52.6721C41.54+52.6721+41.5372+52.6721+41.5357+52.6721ZM41.5357+55.3808C41.2429+55.3808+41.0028+55.1451+41+54.8508C40.9971+54.5551+41.2343+54.3136+41.53+54.3093L42.4329+54.2993C42.4344+54.2993+42.4358+54.2993+42.4386+54.2993C42.7315+54.2993+42.9715+54.5351+42.9744+54.8294C42.9772+55.1251+42.7401+55.3665+42.4444+55.3708L41.5415+55.3808C41.54+55.3808+41.5372+55.3808+41.5357+55.3808ZM41.5357+58.091C41.2429+58.091+41.0028+57.8552+41+57.5609C40.9971+57.2652+41.2343+57.0238+41.53+57.0195L42.4329+57.0095C42.4344+57.0095+42.4358+57.0095+42.4386+57.0095C42.7315+57.0095+42.9715+57.2452+42.9744+57.5395C42.9772+57.8352+42.7401+58.0767+42.4444+58.081L41.5415+58.091C41.54+58.091+41.5372+58.091+41.5357+58.091ZM41.5357+60.8011C41.2429+60.8011+41.0028+60.5654+41+60.2711C40.9971+59.9754+41.2343+59.7325+41.53+59.7296L42.4329+59.7196C42.6944+59.7082+42.9701+59.9525+42.9744+60.2497C42.9772+60.5454+42.7401+60.7883+42.4444+60.7911L41.5415+60.8011C41.54+60.8011+41.5372+60.8011+41.5357+60.8011ZM41.5357+63.5113C41.2429+63.5113+41.0028+63.2756+41+62.9812C40.9971+62.6855+41.2343+62.4426+41.53+62.4398L42.4329+62.4298C42.4344+62.4298+42.4372+62.4298+42.4386+62.4298C42.7315+62.4298+42.9715+62.6655+42.9744+62.9598C42.9772+63.2555+42.7401+63.4984+42.4444+63.5013L41.5415+63.5113C41.54+63.5113+41.5372+63.5113+41.5357+63.5113ZM41.5357+66.2214C41.2429+66.2214+41.0028+65.9857+41+65.6914C40.9971+65.3957+41.2343+65.1542+41.53+65.1499L42.4329+65.1399C42.4344+65.1399+42.4358+65.1399+42.4386+65.1399C42.7315+65.1399+42.9715+65.3757+42.9744+65.67C42.9772+65.9657+42.7401+66.2071+42.4444+66.2114L41.5415+66.2214C41.54+66.2214+41.5372+66.2214+41.5357+66.2214ZM41.5357+68.9316C41.2429+68.9316+41.0028+68.6959+41+68.4016C40.9971+68.1058+41.2343+67.8644+41.53+67.8601L42.4329+67.8501C42.4344+67.8501+42.4358+67.8501+42.4386+67.8501C42.7315+67.8501+42.9715+68.0858+42.9744+68.3801C42.9772+68.6759+42.7401+68.9173+42.4444+68.9216L41.5415+68.9316C41.54+68.9316+41.5372+68.9316+41.5357+68.9316ZM41.5357+71.6417C41.2429+71.6417+41.0028+71.406+41+71.1117C40.9971+70.816+41.2343+70.5731+41.53+70.5702L42.4329+70.5602C42.6944+70.5288+42.9701+70.7931+42.9744+71.0903C42.9772+71.386+42.7401+71.6289+42.4444+71.6317L41.5415+71.6417C41.54+71.6417+41.5372+71.6417+41.5357+71.6417ZM41.5357+74.3505C41.2429+74.3505+41.0028+74.1147+41+73.8204C40.9971+73.5247+41.2343+73.2833+41.53+73.279L42.4329+73.269C42.4344+73.269+42.4358+73.269+42.4386+73.269C42.7315+73.269+42.9715+73.5047+42.9744+73.799C42.9772+74.0947+42.7401+74.3362+42.4444+74.3405L41.5415+74.3505C41.54+74.3505+41.5372+74.3505+41.5357+74.3505ZM41.5357+77.0606C41.2429+77.0606+41.0028+76.8249+41+76.5306C40.9971+76.2349+41.2343+75.9934+41.53+75.9891L42.4329+75.9791C42.4344+75.9791+42.4358+75.9791+42.4386+75.9791C42.7315+75.9791+42.9715+76.2149+42.9744+76.5092C42.9772+76.8049+42.7401+77.0463+42.4444+77.0506L41.5415+77.0606C41.54+77.0606+41.5372+77.0606+41.5357+77.0606ZM41.5357+79.7708C41.2429+79.7708+41.0028+79.535+41+79.2407C40.9971+78.945+41.2343+78.7021+41.53+78.6993L42.4329+78.6893C42.6944+78.6907+42.9701+78.9236+42.9744+79.2193C42.9772+79.515+42.7401+79.7579+42.4444+79.7608L41.5415+79.7708C41.54+79.7708+41.5372+79.7708+41.5357+79.7708ZM41.5357+82.4809C41.2429+82.4809+41.0028+82.2452+41+81.9509C40.9971+81.6552+41.2343+81.4123+41.53+81.4094L42.4329+81.3994C42.6944+81.3466+42.9701+81.6337+42.9744+81.9295C42.9772+82.2252+42.7401+82.4681+42.4444+82.4709L41.5415+82.4809C41.54+82.4809+41.5372+82.4809+41.5357+82.4809ZM41.5357+85.1911C41.2429+85.1911+41.0028+84.9554+41+84.661C40.9971+84.3653+41.2343+84.1239+41.53+84.1196L42.4329+84.1096C42.4344+84.1096+42.4358+84.1096+42.4386+84.1096C42.7315+84.1096+42.9715+84.3453+42.9744+84.6396C42.9772+84.9353+42.7401+85.1768+42.4444+85.1811L41.5415+85.1911C41.54+85.1911+41.5372+85.1911+41.5357+85.1911Z" opacity="1" fill="#fdfcef"/>
<path d="M66.8272+86.9969C66.5314+86.9969+66.2914+86.7569+66.2914+86.4611L66.2914+47.6189C66.2914+47.3232+66.5314+47.0832+66.8272+47.0832C67.1229+47.0832+67.3629+47.3232+67.3629+47.6189L67.3629+86.4611C67.3629+86.7569+67.1229+86.9969+66.8272+86.9969Z" opacity="1" fill="#472b29"/>
<g opacity="1">
<path d="M70.4402+53.9422L87.6026+53.9422L87.6026+64.7814L70.4402+64.7814L70.4402+53.9422Z" opacity="1" fill="#c0e5e4"/>
<path d="M87.6041+65.3171L70.4402+65.3171C70.1445+65.3171+69.9045+65.0771+69.9045+64.7814L69.9045+53.9422C69.9045+53.6464+70.1445+53.4064+70.4402+53.4064L87.6026+53.4064C87.8984+53.4064+88.1384+53.6464+88.1384+53.9422L88.1384+64.7814C88.1398+65.0785+87.8998+65.3171+87.6041+65.3171ZM70.976+64.2456L87.0669+64.2456L87.0669+54.4779L70.976+54.4779L70.976+64.2456Z" opacity="1" fill="#472b29"/>
</g>
<path d="M70.9445+64.6371C70.8117+64.6371+70.6831+64.5713+70.6088+64.4499C70.4945+64.2656+70.5531+64.0227+70.7374+63.9099L86.774+54.0422C86.9597+53.9293+87.2012+53.9865+87.314+54.1707C87.4283+54.355+87.3698+54.5979+87.1855+54.7108L71.1488+64.5785C71.086+64.6185+71.0146+64.6371+70.9445+64.6371ZM87.1969+64.7985C87.134+64.7985+87.0712+64.7842+87.0126+64.7528L80.7108+61.4097C80.5194+61.3083+80.4465+61.0697+80.5479+60.8783C80.6522+60.6854+80.8923+60.6168+81.0794+60.7154L87.3812+64.0585C87.5726+64.1599+87.6455+64.3985+87.5441+64.5899C87.4741+64.7228+87.3383+64.7985+87.1969+64.7985Z" opacity="1" fill="#472b29"/>
<path d="M78.5721+59.9725C78.4964+59.9725+78.4193+59.9496+78.3507+59.9039L70.4445+54.4965C70.2659+54.3736+70.2202+54.1293+70.3417+53.9507C70.4645+53.7722+70.7088+53.7264+70.8874+53.8479L78.7936+59.2553C78.9721+59.3782+79.0179+59.6225+78.8964+59.8011C78.8207+59.9125+78.6978+59.9725+78.5721+59.9725Z" opacity="1" fill="#472b29"/>
<g opacity="1">
<path d="M78.5707+71.106L95.7331+71.106L95.7331+81.9452L78.5707+81.9452L78.5707+71.106Z" opacity="1" fill="#c0e5e4"/>
<path d="M95.7331+82.4809L78.5707+82.4809C78.275+82.4809+78.0349+82.2409+78.0349+81.9452L78.0349+71.106C78.0349+70.8103+78.275+70.5703+78.5707+70.5703L95.7331+70.5703C96.0288+70.5703+96.2688+70.8103+96.2688+71.106L96.2688+81.9452C96.2688+82.2409+96.0288+82.4809+95.7331+82.4809ZM79.1064+81.4094L95.1973+81.4094L95.1973+71.6417L79.1064+71.6417L79.1064+81.4094Z" opacity="1" fill="#472b29"/>
<path d="M79.0221+81.4366L95.1102+71.846" opacity="1" fill="#f6cca4"/>
<path d="M79.0236+81.8295C78.8893+81.8295+78.7593+81.7609+78.685+81.638C78.5736+81.4523+78.635+81.2109+78.8221+81.0994L94.9088+71.5089C95.0945+71.3974+95.3359+71.4589+95.4474+71.646C95.5588+71.8317+95.4974+72.0732+95.3102+72.1846L79.2236+81.7752C79.1607+81.8123+79.0922+81.8295+79.0236+81.8295Z" opacity="1" fill="#472b29"/>
<g opacity="1">
<path d="M89.0241+78.3235L95.7331+81.6623" opacity="1" fill="#f6cca4"/>
<path d="M95.7331+82.0552C95.6731+82.0552+95.6145+82.0423+95.5574+82.0138L88.8499+78.6736C88.6556+78.5778+88.577+78.3407+88.6727+78.1464C88.7698+77.9507+89.0056+77.8735+89.1999+77.9692L95.9074+81.3094C96.1017+81.4051+96.1803+81.6423+96.0845+81.8366C96.016+81.9766+95.8774+82.0552+95.7331+82.0552Z" opacity="1" fill="#472b29"/>
</g>
<g opacity="1">
<path d="M78.5721+71.6475L86.7026+76.8877" opacity="1" fill="#f6cca4"/>
<path d="M86.7012+77.2806C86.6283+77.2806+86.554+77.2606+86.4897+77.2178L78.3607+71.9789C78.1778+71.8618+78.1249+71.6189+78.2435+71.436C78.3592+71.2531+78.6021+71.2003+78.7864+71.3189L86.9154+76.5577C87.0983+76.6749+87.1512+76.9178+87.0326+77.1006C86.9569+77.2163+86.8312+77.2806+86.7012+77.2806Z" opacity="1" fill="#472b29"/>
</g>
</g>
<path d="M75.8605+71.6417L70.4417+71.6417C70.1459+71.6417+69.9059+71.4017+69.9059+71.106C69.9059+70.8103+70.1459+70.5702+70.4417+70.5702L75.8605+70.5702C76.1563+70.5702+76.3963+70.8103+76.3963+71.106C76.3963+71.4017+76.1563+71.6417+75.8605+71.6417ZM75.8605+74.3505L70.4417+74.3505C70.1459+74.3505+69.9059+74.1104+69.9059+73.8147C69.9059+73.519+70.1459+73.279+70.4417+73.279L75.8605+73.279C76.1563+73.279+76.3963+73.519+76.3963+73.8147C76.3963+74.1104+76.1563+74.3505+75.8605+74.3505ZM75.8605+77.0606L70.4417+77.0606C70.1459+77.0606+69.9059+76.8206+69.9059+76.5249C69.9059+76.2291+70.1459+75.9891+70.4417+75.9891L75.8605+75.9891C76.1563+75.9891+76.3963+76.2291+76.3963+76.5249C76.3963+76.8206+76.1563+77.0606+75.8605+77.0606ZM75.8605+79.7708L70.4417+79.7708C70.1459+79.7708+69.9059+79.5308+69.9059+79.235C69.9059+78.9393+70.1459+78.6993+70.4417+78.6993L75.8605+78.6993C76.1563+78.6993+76.3963+78.9393+76.3963+79.235C76.3963+79.5308+76.1563+79.7708+75.8605+79.7708ZM75.8605+82.4809L70.4417+82.4809C70.1459+82.4809+69.9059+82.2409+69.9059+81.9452C69.9059+81.6494+70.1459+81.4094+70.4417+81.4094L75.8605+81.4094C76.1563+81.4094+76.3963+81.6494+76.3963+81.9452C76.3963+82.2409+76.1563+82.4809+75.8605+82.4809Z" opacity="1" fill="#472b29"/>
<path d="M94.8302+54.4793L89.4113+54.4793C89.1156+54.4793+88.8756+54.2393+88.8756+53.9436C88.8756+53.6479+89.1156+53.4078+89.4113+53.4078L94.8302+53.4078C95.1259+53.4078+95.3659+53.6479+95.3659+53.9436C95.3659+54.2393+95.1259+54.4793+94.8302+54.4793ZM94.8302+57.1881L89.4113+57.1881C89.1156+57.1881+88.8756+56.948+88.8756+56.6523C88.8756+56.3566+89.1156+56.1166+89.4113+56.1166L94.8302+56.1166C95.1259+56.1166+95.3659+56.3566+95.3659+56.6523C95.3659+56.948+95.1259+57.1881+94.8302+57.1881ZM94.8302+59.8982L89.4113+59.8982C89.1156+59.8982+88.8756+59.6582+88.8756+59.3625C88.8756+59.0667+89.1156+58.8267+89.4113+58.8267L94.8302+58.8267C95.1259+58.8267+95.3659+59.0667+95.3659+59.3625C95.3659+59.6582+95.1259+59.8982+94.8302+59.8982ZM94.8302+62.6084L89.4113+62.6084C89.1156+62.6084+88.8756+62.3684+88.8756+62.0726C88.8756+61.7769+89.1156+61.5369+89.4113+61.5369L94.8302+61.5369C95.1259+61.5369+95.3659+61.7769+95.3659+62.0726C95.3659+62.3684+95.1259+62.6084+94.8302+62.6084ZM94.8302+65.3171L89.4113+65.3171C89.1156+65.3171+88.8756+65.0771+88.8756+64.7814C88.8756+64.4856+89.1156+64.2456+89.4113+64.2456L94.8302+64.2456C95.1259+64.2456+95.3659+64.4856+95.3659+64.7814C95.3659+65.0771+95.1259+65.3171+94.8302+65.3171Z" opacity="1" fill="#472b29"/>
<path d="M50.5777+56.5623C50.6105+56.6337+50.6391+56.7023+50.662+56.7652C50.6848+56.8295+50.6963+56.8938+50.6963+56.958C50.6963+57.0938+50.6534+57.2081+50.5677+57.2995C50.482+57.3909+50.3691+57.4366+50.2291+57.4366C50.1362+57.4366+50.0462+57.4166+49.9605+57.3766C49.8076+57.2481+49.6433+57.1038+49.469+56.9395C49.2933+56.7766+49.1119+56.6109+48.9276+56.4423C48.6961+56.2337+48.459+56.0237+48.2161+55.8066C47.9732+55.5908+47.7604+55.4037+47.5747+55.2437C47.4618+55.1079+47.4061+54.9765+47.4061+54.8479C47.4061+54.6808+47.4818+54.5279+47.6347+54.3922L47.6247+54.3922C47.6504+54.3679+47.7247+54.3008+47.8432+54.1879C47.9632+54.0765+48.1018+53.945+48.2604+53.7922C48.419+53.6407+48.5904+53.4793+48.7719+53.3064C48.9547+53.135+49.1247+52.9735+49.2833+52.8207C49.4433+52.6692+49.5805+52.5392+49.6962+52.4321C49.8119+52.3249+49.8862+52.2578+49.9191+52.2349C50.0248+52.1878+50.1148+52.1621+50.1877+52.1621C50.3262+52.1621+50.4391+52.2106+50.5262+52.3064C50.612+52.4021+50.6548+52.5178+50.6548+52.6535C50.6548+52.8135+50.6148+52.945+50.5348+53.0493C50.422+53.1607+50.2762+53.3007+50.0977+53.4678C49.9176+53.6364+49.7362+53.8036+49.5505+53.9722C49.379+54.1322+49.209+54.2893+49.0433+54.445C48.8776+54.6008+48.7419+54.7308+48.6361+54.8336L50.5534+56.5466L50.5777+56.5623ZM57.8624+49.6491C57.9881+49.4262+58.141+49.3133+58.3195+49.3133C58.4453+49.3133+58.5538+49.3605+58.6481+49.4576C58.7424+49.5548+58.7867+49.6819+58.7867+49.8419C58.7867+49.9134+58.7767+49.9777+58.7581+50.0334L56.8595+55.3508C56.688+55.8308+56.5123+56.318+56.3337+56.8123C56.1537+57.3066+55.978+57.7938+55.8065+58.2724C55.7394+58.3838+55.6665+58.4624+55.5837+58.5067C55.5008+58.551+55.4222+58.5724+55.3494+58.5724C55.2237+58.5724+55.1165+58.5267+55.0265+58.4353C54.9365+58.3438+54.8922+58.2096+54.8922+58.0338C54.8922+57.9695+54.8951+57.9181+54.9022+57.8781L56.7909+52.6207C56.9638+52.1335+57.1423+51.6363+57.3281+51.1291C57.5109+50.6205+57.6895+50.1277+57.8624+49.6491ZM61.7183+54.8365L60.814+53.975C60.6354+53.8079+60.454+53.6379+60.2725+53.4664C60.0896+53.295+59.9454+53.1535+59.8411+53.0407C59.7553+52.9292+59.7111+52.8007+59.7111+52.6564C59.7111+52.5207+59.7553+52.4049+59.8453+52.3092C59.9354+52.2135+60.0454+52.1649+60.1782+52.1649C60.2511+52.1649+60.3382+52.1849+60.4368+52.2249C60.4768+52.2492+60.5725+52.3335+60.7254+52.4764C60.8783+52.6207+61.054+52.7835+61.2526+52.9678C61.4512+53.1521+61.6555+53.345+61.864+53.5493C62.0726+53.7536+62.2541+53.9264+62.4055+54.0693L62.7527+54.3936L62.7427+54.3936C62.8884+54.5379+62.9612+54.6893+62.9612+54.8494C62.9612+54.9779+62.9112+55.1051+62.8127+55.2322L61.6397+56.2866L60.4168+57.3652C60.3239+57.4138+60.2311+57.4381+60.1382+57.4381C60.0054+57.4381+59.8939+57.3924+59.8053+57.3009C59.7153+57.2095+59.6711+57.0952+59.6711+56.9595C59.6711+56.8395+59.7111+56.7109+59.7911+56.5752L61.7183+54.8365Z" opacity="1" fill="#fdfcef"/>
<g opacity="1">
<path d="M91.4171+23.9819L77.0878+23.9819C76.6934+23.9819+76.3734+23.6619+76.3734+23.2676C76.3734+22.8733+76.6934+22.5532+77.0878+22.5532L91.4171+22.5532C91.8114+22.5532+92.1315+22.8733+92.1315+23.2676C92.1315+23.6619+91.8114+23.9819+91.4171+23.9819ZM95.5331+23.9819L93.4673+23.9819C93.073+23.9819+92.7529+23.6619+92.7529+23.2676C92.7529+22.8733+93.073+22.5532+93.4673+22.5532L95.5331+22.5532C95.9274+22.5532+96.2474+22.8733+96.2474+23.2676C96.2474+23.6619+95.9274+23.9819+95.5331+23.9819ZM101.326+23.9819L97.6889+23.9819C97.2946+23.9819+96.9746+23.6619+96.9746+23.2676C96.9746+22.8733+97.2946+22.5532+97.6889+22.5532L101.326+22.5532C101.721+22.5532+102.041+22.8733+102.041+23.2676C102.041+23.6619+101.721+23.9819+101.326+23.9819ZM98.4318+18.653L84.6925+18.653C84.2982+18.653+83.9781+18.333+83.9781+17.9387C83.9781+17.5444+84.2982+17.2244+84.6925+17.2244L98.4304+17.2244C98.8247+17.2244+99.1447+17.5444+99.1447+17.9387C99.1447+18.333+98.8261+18.653+98.4318+18.653ZM82.2195+18.653L81.3909+18.653C80.9965+18.653+80.6765+18.333+80.6765+17.9387C80.6765+17.5444+80.9965+17.2244+81.3909+17.2244L82.2195+17.2244C82.6138+17.2244+82.9338+17.5444+82.9338+17.9387C82.9338+18.333+82.6138+18.653+82.2195+18.653ZM78.8236+18.653L76.742+18.653C76.3477+18.653+76.0277+18.333+76.0277+17.9387C76.0277+17.5444+76.3477+17.2244+76.742+17.2244L78.8236+17.2244C79.2179+17.2244+79.5379+17.5444+79.5379+17.9387C79.5379+18.333+79.2179+18.653+78.8236+18.653ZM94.7702+21.3189L87.5869+21.3189C87.1926+21.3189+86.8726+20.9989+86.8726+20.6046C86.8726+20.2103+87.1926+19.8902+87.5869+19.8902L94.7702+19.8902C95.1645+19.8902+95.4845+20.2103+95.4845+20.6046C95.4845+20.9989+95.1645+21.3189+94.7702+21.3189Z" opacity="1" fill="#ffffff"/>
<path d="M94.7702+18.653L92.9744+18.653C92.5801+18.653+92.26+18.333+92.26+17.9387C92.26+17.5444+92.5801+17.2244+92.9744+17.2244L94.7702+17.2244C95.1645+17.2244+95.4845+17.5444+95.4845+17.9387C95.4845+18.333+95.1645+18.653+94.7702+18.653ZM85.5082+21.3189L82.9952+21.3189C82.6009+21.3189+82.2809+20.9989+82.2809+20.6046C82.2809+20.2103+82.6009+19.8902+82.9952+19.8902L85.5082+19.8902C85.9025+19.8902+86.2226+20.2103+86.2226+20.6046C86.2226+20.9989+85.9025+21.3189+85.5082+21.3189Z" opacity="1" fill="#ffffff"/>
</g>
</g>
<path d="M76.7657+34.673L61.3579+17.1335C60.3511+16.1267+58.7238+16.1267+57.717+17.1335L27.4828+47.3677C26.476+48.3745+26.476+50.0018+27.4828+51.0086C28.4895+52.0154+30.1169+52.0154+31.1237+51.0086L59.5374+22.5948L70.9857+35.0318C71.4878+35.5339+72.147+35.7862+72.8062+35.7862C73.4653+35.7862+74.1245+35.5339+74.6266+35.0318C75.6334+34.0276+77.7725+35.6797+76.7657+34.673Z" opacity="1" fill="#472b29"/>
<path d="M32.4583+44.2701L92.0581+44.2701L92.0581+45.5736L32.4583+45.5736L32.4583+44.2701Z" opacity="1" fill="#472b29"/>
</g>
</g>
</svg>
