<?xml version="1.0" encoding="UTF-8" standalone="no"?> <!-- Created with Vectornator for iOS (http://vectornator.io/) --><!DOCTYPE svg PUBLIC "-//W3C//DTD SVG 1.1//EN" "http://www.w3.org/Graphics/SVG/1.1/DTD/svg11.dtd">
<svg style="fill-rule:evenodd;clip-rule:evenodd;stroke-linecap:round;stroke-linejoin:round;" xmlns:vectornator="http://vectornator.io" xmlns:xlink="http://www.w3.org/1999/xlink" xmlns="http://www.w3.org/2000/svg" xml:space="preserve" version="1.1" viewBox="0 0 120 120">
<metadata>
<vectornator:setting key="DimensionsVisible" value="1"/>
<vectornator:setting key="SnapToGrid" value="0"/>
<vectornator:setting key="SnapToPoints" value="0"/>
<vectornator:setting key="GuidesVisible" value="1"/>
<vectornator:setting key="RulersVisible" value="1"/>
<vectornator:setting key="CMYKEnabledKey" value="0"/>
<vectornator:setting key="SnapToEdges" value="0"/>
<vectornator:setting key="DisplayWhiteBackground" value="0"/>
<vectornator:setting key="SnapToGuides" value="1"/>
<vectornator:setting key="GridSpacing" value="36"/>
<vectornator:setting key="Units" value="Pixels"/>
<vectornator:setting key="DynamicGuides" value="0"/>
<vectornator:setting key="New" value="1"/>
</metadata>
<defs/>
<g id="Layer 1" vectornator:layerName="Layer 1">
<g opacity="1">
<path d="M111.97+69.3907C112.383+68.5439+112.748+67.6531+113.064+66.7197C116.684+56.0382+111.21+43.2424+99.6843+40.1535C98.4375+24.5052+87.4398+13.7687+75.0207+11.9376C60.8049+9.84117+47.7823+18.8716+43.4492+33.2249C38.2267+31.3746+33.1375+31.6+28.3412+34.4031C26.165+35.4093+24.1745+36.894+22.3887+38.8475C19.7671+41.7151+18.0625+45.3347+17.3683+49.1509C16.34+49.3131+15.3296+49.4753+14.3769+49.8163C8.8231+51.8082+5.31898+55.9076+4.35806+62.0828C3.76006+65.9278+4.96705+69.7633+5.64066+71.3126C8.30071+77.4369+14.469+80.908+20.7363+79.9897C21.0484+79.9443+21.502+80.0846+21.7701+80.31C22.1014+90.0979+26.8538+98.7545+33.983+103.699C45.4219+111.634+60.1395+109.19+69.4243+98.3091C73.4027+102.378+78.1372+104.355+83.6993+103.637C89.2297+102.924+93.5243+99.8721+96.6572+94.9094C98.1048+95.2984+99.4768+95.8593+100.895+96.0147C106.452+96.6223+110.964+94.4131+114.274+89.4161C115.542+87.5039+116.739+85.0253+116.739+80.6812C116.74+76.2051+114.963+72.1264+111.97+69.3907Z" opacity="1" fill="#c7ede6"/>
<path d="M95.618+60.2778C95.618+60.2778+111.69+60.2778+111.787+60.2778C115.499+60.2778+118.507+57.2686+118.507+53.5568C118.507+50.3194+116.217+47.6167+113.167+46.9802C113.203+46.6971+113.227+46.4097+113.227+46.1169C113.227+42.2732+110.11+39.1568+106.266+39.1568C103.997+39.1568+101.987+40.2483+100.717+41.9296C100.392+37.6501+96.5693+34.3494+92.0973+34.8966C88.8269+35.2966+86.1229+37.8247+85.5207+41.0635C85.3283+42.1028+85.3475+43.1104+85.54+44.0562C84.6629+43.1118+83.4147+42.5179+82.0249+42.5179C79.4817+42.5179+77.4045+44.4989+77.2409+47.0009C76.0861+46.7452+74.8297+46.7617+73.5058+47.2593C70.9763+48.2092+69.1755+50.5902+69.0696+53.2901C68.9198+57.1242+71.984+60.2805+75.7851+60.2805C76.0738+60.2805+77.0883+60.2805+77.322+60.2805L91.2766+60.2805" opacity="1" fill="#fdfcef"/>
<path d="M111.787+60.9651L95.618+60.9651C95.2386+60.9651+94.9306+60.6572+94.9306+60.2778C94.9306+59.8984+95.2386+59.5904+95.618+59.5904L111.787+59.5904C115.114+59.5904+117.821+56.8836+117.821+53.5568C117.821+50.7167+115.806+48.2326+113.029+47.6525C112.679+47.5796+112.443+47.2511+112.487+46.8964C112.517+46.6407+112.541+46.3809+112.541+46.1169C112.541+42.6582+109.727+39.8441+106.268+39.8441C104.291+39.8441+102.467+40.7556+101.265+42.3434C101.093+42.5716+100.796+42.6678+100.524+42.5881C100.249+42.5069+100.054+42.2664+100.032+41.9818C99.8892+40.0888+98.9626+38.3113+97.4889+37.103C96.0001+35.8822+94.1127+35.342+92.1826+35.5784C89.2063+35.9427+86.7456+38.2495+86.1985+41.1886C86.028+42.1055+86.0335+43.0238+86.2163+43.9188C86.2768+44.2212+86.1311+44.5264+85.8562+44.6666C85.5854+44.8068+85.2486+44.7491+85.0382+44.5236C84.2478+43.6727+83.1782+43.2053+82.0276+43.2053C79.8721+43.2053+78.0712+44.8921+77.931+47.0462C77.9172+47.2469+77.8183+47.4311+77.6574+47.5507C77.498+47.6703+77.2904+47.713+77.0965+47.6717C75.939+47.4147+74.8461+47.4903+73.7519+47.9013C71.4575+48.7619+69.8532+50.938+69.7611+53.3149C69.6965+54.9742+70.2931+56.5455+71.441+57.7387C72.5889+58.9333+74.1341+59.5904+75.7892+59.5904L91.2821+59.5904C91.6616+59.5904+91.9695+59.8984+91.9695+60.2778C91.9695+60.6572+91.6616+60.9651+91.2821+60.9651L75.7892+60.9651C73.756+60.9651+71.8603+60.1582+70.4498+58.6927C69.0394+57.2273+68.3067+55.2986+68.3864+53.2613C68.5019+50.3387+70.4636+47.6676+73.2694+46.6146C74.3705+46.2022+75.5074+46.0674+76.6621+46.2035C77.1804+43.6988+79.4074+41.8292+82.029+41.8292C82.9707+41.8292+83.8903+42.0767+84.7014+42.5303C84.7+42.0011+84.7495+41.4677+84.8485+40.937C85.5029+37.415+88.4489+34.6491+92.0162+34.2133C94.3189+33.9315+96.5803+34.579+98.3605+36.039C99.7407+37.1703+100.721+38.721+101.162+40.4284C102.555+39.1692+104.35+38.4681+106.268+38.4681C110.484+38.4681+113.915+41.8993+113.915+46.1156C113.915+46.2297+113.913+46.3438+113.906+46.4579C117.004+47.3817+119.196+50.2754+119.196+53.5568C119.196+57.6425+115.873+60.9651+111.787+60.9651Z" opacity="1" fill="#472b29"/>
<path d="M91.7234+45.4749C89.238+45.3114+87.0975+47.0284+86.9449+49.309C86.9257+49.5922+86.9381+49.8713+86.9793+50.1421C86.4995+49.6004+85.7902+49.2334+84.975+49.1798C83.4834+49.0822+82.1953+50.0665+82.0084+51.4068C81.7376+51.3326+81.4544+51.2831+81.1616+51.2638C78.9868+51.1209+77.1144+52.6234+76.9797+54.6195" opacity="1" fill="#fdfcef"/>
<path d="M76.9811+54.9618C76.9742+54.9618+76.9659+54.9618+76.9577+54.9618C76.768+54.9494+76.625+54.7858+76.6388+54.5961C76.7831+52.4145+78.8012+50.7566+81.1849+50.9215C81.3719+50.9339+81.5588+50.9586+81.7472+50.9944C82.1225+49.6637+83.4628+48.7481+84.9984+48.8388C85.5744+48.876+86.127+49.0629+86.5971+49.3667C86.5985+49.3406+86.5999+49.3131+86.6026+49.287C86.7676+46.8208+89.0812+44.9635+91.7468+45.1326C91.9365+45.145+92.0795+45.3086+92.0657+45.4983C92.0547+45.6866+91.9159+45.8447+91.7001+45.8186C89.4194+45.666+87.4275+47.2456+87.2859+49.3337C87.2694+49.5894+87.2804+49.8451+87.3175+50.0912C87.3409+50.2424+87.2625+50.3895+87.1237+50.4555C86.9848+50.5187+86.8198+50.4857+86.7195+50.3716C86.2837+49.8781+85.6376+49.5702+84.9502+49.5248C83.6608+49.4396+82.5115+50.2878+82.3479+51.4563C82.3328+51.5539+82.2778+51.6405+82.1967+51.6955C82.1142+51.7505+82.0097+51.7656+81.9176+51.7409C81.6578+51.6707+81.3952+51.6254+81.1368+51.6089C79.1504+51.4769+77.443+52.8406+77.322+54.6442C77.311+54.8229+77.1612+54.9618+76.9811+54.9618Z" opacity="1" fill="#472b29"/>
<path d="M114.509+47.768C112.174+46.6668+109.472+47.4463+108.476+49.5097C108.352+49.7654+108.26+50.0307+108.199+50.2988" opacity="1" fill="#fdfcef"/>
<path d="M108.199+50.6425C108.175+50.6425+108.15+50.6397+108.124+50.6342C107.938+50.593+107.821+50.4088+107.864+50.2232C107.931+49.9249+108.033+49.6334+108.168+49.3599C109.244+47.1315+112.153+46.2778+114.656+47.4586C114.828+47.5398+114.902+47.7446+114.821+47.9164C114.739+48.0896+114.533+48.1611+114.363+48.0814C112.198+47.0627+109.699+47.7707+108.786+49.6609C108.675+49.8891+108.59+50.1283+108.535+50.3758C108.499+50.5339+108.356+50.6425+108.199+50.6425Z" opacity="1" fill="#472b29"/>
<path d="M15.2801+58.4426L1.49179+58.4426C1.11237+58.4426+0.804437+58.1346+0.804437+57.7552C0.804437+57.3758+1.11237+57.0678+1.49179+57.0678L15.2801+57.0678C15.6595+57.0678+15.9675+57.3758+15.9675+57.7552C15.9675+58.1346+15.6595+58.4426+15.2801+58.4426ZM19.2406+58.4426L17.2542+58.4426C16.8748+58.4426+16.5668+58.1346+16.5668+57.7552C16.5668+57.3758+16.8748+57.0678+17.2542+57.0678L19.2406+57.0678C19.62+57.0678+19.928+57.3758+19.928+57.7552C19.928+58.1346+19.62+58.4426+19.2406+58.4426ZM24.8151+58.4426L21.3151+58.4426C20.9356+58.4426+20.6277+58.1346+20.6277+57.7552C20.6277+57.3758+20.9356+57.0678+21.3151+57.0678L24.8151+57.0678C25.1945+57.0678+25.5024+57.3758+25.5024+57.7552C25.5024+58.1346+25.1945+58.4426+24.8151+58.4426ZM24.8151+61.0064L11.5945+61.0064C11.2151+61.0064+10.9072+60.6984+10.9072+60.319C10.9072+59.9396+11.2151+59.6317+11.5945+59.6317L24.8137+59.6317C25.1931+59.6317+25.501+59.9396+25.501+60.319C25.501+60.6984+25.1945+61.0064+24.8151+61.0064ZM9.21489+61.0064L8.41756+61.0064C8.03814+61.0064+7.73021+60.6984+7.73021+60.319C7.73021+59.9396+8.03814+59.6317+8.41756+59.6317L9.21489+59.6317C9.59431+59.6317+9.90225+59.9396+9.90225+60.319C9.90225+60.6984+9.59431+61.0064+9.21489+61.0064ZM5.94722+61.0064L3.94564+61.0064C3.56622+61.0064+3.25829+60.6984+3.25829+60.319C3.25829+59.9396+3.56622+59.6317+3.94564+59.6317L5.94722+59.6317C6.32663+59.6317+6.63457+59.9396+6.63457+60.319C6.63457+60.6984+6.32663+61.0064+5.94722+61.0064ZM18.5065+55.8787L11.5945+55.8787C11.2151+55.8787+10.9072+55.5708+10.9072+55.1914C10.9072+54.812+11.2151+54.504+11.5945+54.504L18.5052+54.504C18.8846+54.504+19.1925+54.812+19.1925+55.1914C19.1925+55.5708+18.886+55.8787+18.5065+55.8787ZM18.5065+53.3149L16.7785+53.3149C16.3991+53.3149+16.0912+53.007+16.0912+52.6275C16.0912+52.2481+16.3991+51.9402+16.7785+51.9402L18.5065+51.9402C18.886+51.9402+19.1939+52.2481+19.1939+52.6275C19.1939+53.007+18.886+53.3149+18.5065+53.3149ZM14.0126+63.5688L11.5945+63.5688C11.2151+63.5688+10.9072+63.2609+10.9072+62.8815C10.9072+62.5021+11.2151+62.1941+11.5945+62.1941L14.0126+62.1941C14.392+62.1941+14.7+62.5021+14.7+62.8815C14.7+63.2609+14.3934+63.5688+14.0126+63.5688ZM88.3843+22.3194L74.596+22.3194C74.2165+22.3194+73.9086+22.0114+73.9086+21.632C73.9086+21.2526+74.2165+20.9447+74.596+20.9447L88.3843+20.9447C88.7637+20.9447+89.0716+21.2526+89.0716+21.632C89.0716+22.0114+88.7637+22.3194+88.3843+22.3194ZM92.3448+22.3194L90.3583+22.3194C89.9789+22.3194+89.671+22.0114+89.671+21.632C89.671+21.2526+89.9789+20.9447+90.3583+20.9447L92.3448+20.9447C92.7242+20.9447+93.0321+21.2526+93.0321+21.632C93.0321+22.0114+92.7242+22.3194+92.3448+22.3194ZM97.9178+22.3194L94.4178+22.3194C94.0384+22.3194+93.7305+22.0114+93.7305+21.632C93.7305+21.2526+94.0384+20.9447+94.4178+20.9447L97.9178+20.9447C98.2973+20.9447+98.6052+21.2526+98.6052+21.632C98.6052+22.0114+98.2986+22.3194+97.9178+22.3194ZM95.1341+17.1917L81.9149+17.1917C81.5355+17.1917+81.2275+16.8838+81.2275+16.5044C81.2275+16.125+81.5355+15.817+81.9149+15.817L95.1341+15.817C95.5135+15.817+95.8214+16.125+95.8214+16.5044C95.8214+16.8838+95.5135+17.1917+95.1341+17.1917ZM79.5339+17.1917L78.7366+17.1917C78.3571+17.1917+78.0492+16.8838+78.0492+16.5044C78.0492+16.125+78.3571+15.817+78.7366+15.817L79.5339+15.817C79.9133+15.817+80.2212+16.125+80.2212+16.5044C80.2212+16.8838+79.9147+17.1917+79.5339+17.1917ZM76.2662+17.1917L74.2646+17.1917C73.8852+17.1917+73.5773+16.8838+73.5773+16.5044C73.5773+16.125+73.8852+15.817+74.2646+15.817L76.2662+15.817C76.6456+15.817+76.9536+16.125+76.9536+16.5044C76.9536+16.8838+76.647+17.1917+76.2662+17.1917ZM91.6093+19.7556L84.6987+19.7556C84.3193+19.7556+84.0113+19.4476+84.0113+19.0682C84.0113+18.6888+84.3193+18.3808+84.6987+18.3808L91.6093+18.3808C91.9887+18.3808+92.2967+18.6888+92.2967+19.0682C92.2967+19.4476+91.9901+19.7556+91.6093+19.7556Z" opacity="1" fill="#ffffff"/>
<path d="M91.6093+17.1917L89.8813+17.1917C89.5019+17.1917+89.194+16.8838+89.194+16.5044C89.194+16.125+89.5019+15.817+89.8813+15.817L91.6093+15.817C91.9887+15.817+92.2967+16.125+92.2967+16.5044C92.2967+16.8838+91.9901+17.1917+91.6093+17.1917ZM82.6985+19.7556L80.2804+19.7556C79.9009+19.7556+79.593+19.4476+79.593+19.0682C79.593+18.6888+79.9009+18.3808+80.2804+18.3808L82.6985+18.3808C83.0779+18.3808+83.3858+18.6888+83.3858+19.0682C83.3858+19.4476+83.0779+19.7556+82.6985+19.7556Z" opacity="1" fill="#ffffff"/>
<path d="M81.8791+92.7181L41.0325+92.7181C35.8553+92.7181+31.6199+88.4826+31.6199+83.3055L31.6199+42.4588C31.6199+37.2817+35.8553+33.0462+41.0325+33.0462L81.8791+33.0462C87.0563+33.0462+91.2918+37.2817+91.2918+42.4588L91.2918+83.3055C91.2918+88.4826+87.0563+92.7181+81.8791+92.7181Z" opacity="1" fill="#39c1d7"/>
<path d="M81.8791+93.6818L41.0325+93.6818C35.311+93.6818+30.6562+89.027+30.6562+83.3069L30.6562+42.4588C30.6562+36.7373+35.311+32.0839+41.0325+32.0839L81.8791+32.0839C87.5993+32.0839+92.2541+36.7387+92.2541+42.4588L92.2541+83.3055C92.2541+89.027+87.5993+93.6818+81.8791+93.6818ZM41.0325+34.0085C36.3722+34.0085+32.5822+37.7986+32.5822+42.4588L32.5822+83.3055C32.5822+87.9658+36.3736+91.7558+41.0325+91.7558L81.8791+91.7558C86.5394+91.7558+90.3281+87.9658+90.3281+83.3055L90.3281+42.4588C90.3281+37.7986+86.538+34.0085+81.8791+34.0085C81.8791+34.0085+41.0325+34.0085+41.0325+34.0085Z" opacity="1" fill="#472b29"/>
<path d="M79.4019+88.4565L43.5097+88.4565C39.3141+88.4565+35.8815+85.0239+35.8815+80.8283L35.8815+44.9361C35.8815+40.7405+39.3141+37.3078+43.5097+37.3078L79.4019+37.3078C83.5975+37.3078+87.0302+40.7405+87.0302+44.9361L87.0302+80.8283C87.0302+85.0239+83.5975+88.4565+79.4019+88.4565Z" opacity="1" fill="#fdfcee"/>
<path d="M79.2576+88.9377L43.6554+88.9377C39.1038+88.9377+35.4017+85.2342+35.4017+80.6839L35.4017+45.0804C35.4017+40.5287+39.1038+36.8267+43.6554+36.8267L77.5584+36.8267C77.8238+36.8267+78.0396+37.0425+78.0396+37.3078C78.0396+37.5731+77.8251+37.789+77.5584+37.789L43.6554+37.789C39.6344+37.789+36.3626+41.0594+36.3626+45.0804L36.3626+80.6826C36.3626+84.7036+39.6344+87.974+43.6554+87.974L79.2576+87.974C83.2772+87.974+86.549+84.7036+86.549+80.6826L86.549+60.9871C86.549+60.7218+86.7635+60.506+87.0302+60.506C87.2969+60.506+87.5113+60.7218+87.5113+60.9871L87.5113+80.6826C87.5099+85.2342+83.8092+88.9377+79.2576+88.9377ZM87.0288+58.6281C86.7635+58.6281+86.5477+58.4123+86.5477+58.147L86.5477+54.3583C86.5477+54.093+86.7621+53.8772+87.0288+53.8772C87.2955+53.8772+87.5099+54.093+87.5099+54.3583L87.5099+58.147C87.5099+58.4123+87.2955+58.6281+87.0288+58.6281ZM87.0288+52.9437C86.7635+52.9437+86.5477+52.7279+86.5477+52.4626L86.5477+50.5682C86.5477+50.3029+86.7621+50.0871+87.0288+50.0871C87.2955+50.0871+87.5099+50.3029+87.5099+50.5682L87.5099+52.4626C87.5099+52.7293+87.2955+52.9437+87.0288+52.9437Z" opacity="1" fill="#472b29"/>
<path d="M65.1242+70.8287C65.9353+70.3283+66.2721+69.1694+66.092+68.5714L65.8762+66.842C69.0751+65.235+71.4369+61.9948+71.4369+58.2295C71.4369+52.8736+66.8385+48.5158+61.3726+48.5158C55.9068+48.5158+51.4761+52.8585+51.4761+58.2144C51.4761+61.9797+53.6702+65.2364+56.8691+66.8434L56.6533+68.5728C56.6533+69.5791+57.3228+70.4382+58.2452+70.7462" opacity="1" fill="#fbcd59"/>
<path d="M65.1242+71.2754C64.9757+71.2754+64.8287+71.1998+64.7448+71.0624C64.6142+70.8534+64.6802+70.5771+64.8891+70.4479C65.516+70.0616+65.791+69.1226+65.6631+68.7006L65.4322+66.8984C65.4074+66.71+65.5064+66.5286+65.6755+66.4433C68.9033+64.8212+70.9887+61.5975+70.9887+58.2295C70.9887+53.1197+66.6735+48.9626+61.3713+48.9626C56.1611+48.9626+51.9229+53.1128+51.9229+58.213C51.9229+61.6951+53.8956+64.8487+57.0684+66.442C57.2375+66.5272+57.3351+66.7087+57.3118+66.897L57.0959+68.6264C57.1001+69.3605+57.6169+70.0629+58.3854+70.32C58.6205+70.3984+58.747+70.6513+58.6686+70.885C58.5889+71.1187+58.3373+71.2479+58.1036+71.1668C56.9681+70.7888+56.2051+69.744+56.2051+68.57L56.388+67.0936C53.0735+65.3037+51.0293+61.9302+51.0293+58.2116C51.0293+52.6179+55.669+48.0663+61.3713+48.0663C67.167+48.0663+71.8823+52.6248+71.8823+58.2281C71.8823+61.8312+69.724+65.2776+66.356+67.0936L66.5333+68.5137C66.7642+69.2574+66.3202+70.6128+65.3579+71.2067C65.2851+71.2534+65.204+71.2754+65.1242+71.2754Z" opacity="1" fill="#472b29"/>
<path d="M60.1904+69.8925C60.1821+69.8925+60.1739+69.8925+60.1656+69.8911C60.0144+69.8774+59.9031+69.744+59.9155+69.5928C60.1203+67.3259+59.9608+65.5058+59.3999+63.9304C58.7758+64.0775+58.1256+63.9799+57.6376+63.6321C57.1812+63.309+56.9035+62.8664+56.876+62.4168C56.8526+62.0388+57.0052+61.691+57.3145+61.4105C57.4726+61.2662+57.6431+61.1782+57.8218+61.1493C58.2383+61.0806+58.6658+61.3336+58.9752+61.8202C59.2638+62.2739+59.5113+62.7426+59.7189+63.2334C59.8+63.1935+59.877+63.1468+59.9526+63.0946C60.0694+63.0135+60.1753+62.9241+60.2715+62.8292C59.9388+62.3893+59.8811+61.7872+60.0983+61.0407C60.2014+60.6929+60.5299+60.3603+60.864+60.2654C61.0936+60.1994+61.3122+60.2448+61.4799+60.3933C61.7163+60.6036+61.7768+60.9363+61.6586+61.383C61.5514+61.7968+61.3616+62.3069+61.0372+62.7729C61.4469+62.9942+61.9899+62.9818+62.2456+62.9612C62.636+62.9296+63.0113+62.7591+63.3055+62.4856C62.7817+62.113+62.5466+61.6167+62.6539+61.0806C62.7281+60.7122+63.0484+60.3355+63.4168+60.1857C63.6657+60.084+63.9145+60.0977+64.1124+60.231C64.3805+60.4111+64.4121+60.7149+64.4355+60.9349C64.485+61.405+64.3791+61.8876+64.1399+62.3096C64.2513+62.3536+64.3668+62.3907+64.4822+62.421C64.8493+61.7487+65.2287+61.2648+65.5889+61.1246C65.9092+60.9995+66.2309+61.1026+66.4604+61.4133C66.9457+62.0622+66.7587+62.4746+66.6048+62.6643C66.2776+63.0629+65.5133+63.1578+64.7572+63.0409C63.8182+64.9985+62.9096+68.3954+63.025+69.4718C63.0415+69.623+62.9316+69.7578+62.7803+69.7743C62.6209+69.8004+62.4944+69.6808+62.4765+69.5309C62.3597+68.4367+63.2065+65.059+64.2265+62.9213C64.0794+62.8774+63.9365+62.8265+63.8017+62.7674C63.4017+63.1963+62.856+63.4644+62.2868+63.5125C61.6462+63.5633+61.0826+63.4547+60.677+63.2018C60.5519+63.3269+60.4145+63.4451+60.2591+63.551C60.1492+63.6279+60.0323+63.6939+59.9141+63.7517C60.5025+65.4013+60.6702+67.297+60.4585+69.6478C60.4502+69.7853+60.332+69.8925+60.1904+69.8925ZM57.9592+61.6869C57.9428+61.6869+57.929+61.6869+57.9125+61.6896C57.8245+61.7047+57.7393+61.7666+57.6857+61.8161C57.5015+61.9838+57.4149+62.1735+57.4272+62.3825C57.4451+62.6615+57.6417+62.9598+57.9565+63.1825C58.2933+63.4204+58.7525+63.4919+59.1979+63.4094C59.0054+62.9598+58.7772+62.5296+58.5133+62.1144C58.3785+61.9013+58.1668+61.6869+57.9592+61.6869ZM65.0294+62.5186C65.5614+62.5749+66.0288+62.4966+66.1814+62.3124C66.3037+62.1639+66.1333+61.8889+66.0219+61.7391C65.9078+61.5865+65.8418+61.6126+65.791+61.6332C65.5573+61.7254+65.2974+62.0484+65.0294+62.5186ZM61.0675+60.7837C61.0537+60.7837+61.0386+60.7864+61.0166+60.7919C60.8613+60.8359+60.6798+61.0243+60.6289+61.1933C60.4846+61.691+60.4873+62.0883+60.6399+62.3783C60.8915+61.9962+61.04+61.581+61.1293+61.2401C61.1871+61.0188+61.1829+60.8593+61.1169+60.8002C61.1087+60.7961+61.0963+60.7837+61.0675+60.7837ZM63.7385+60.6655C63.7083+60.6655+63.6698+60.6737+63.6272+60.6916C63.4347+60.7713+63.2326+61.0023+63.1969+61.1865C63.1185+61.5769+63.3783+61.8642+63.6547+62.0525C63.8457+61.7267+63.9296+61.3528+63.8911+60.9913C63.8774+60.8634+63.8622+60.7218+63.8072+60.6833C63.788+60.6723+63.766+60.6655+63.7385+60.6655Z" opacity="1" fill="#472b29"/>
<path d="M64.0849+75.6374L59.2432+75.6374C58.5971+75.6374+58.0692+75.1081+58.0692+74.4634L58.0692+74.4634C58.0692+73.8173+58.5985+73.2894+59.2432+73.2894L64.0849+73.2894C64.7311+73.2894+65.2589+73.8186+65.2589+74.4634L65.2589+74.4634C65.2603+75.1081+64.7311+75.6374+64.0849+75.6374Z" opacity="1" fill="#cbc9bc"/>
<path d="M64.0849+76.0842L59.2432+76.0842C58.3497+76.0842+57.6211+75.3569+57.6211+74.462C57.6211+73.5671+58.3483+72.8399+59.2432+72.8399L64.0849+72.8399C64.9785+72.8399+65.7071+73.5671+65.7071+74.462C65.7071+75.3569+64.9785+76.0842+64.0849+76.0842ZM59.2432+73.7348C58.8418+73.7348+58.516+74.0606+58.516+74.462C58.516+74.8634+58.8418+75.1892+59.2432+75.1892L64.0849+75.1892C64.4864+75.1892+64.8122+74.8634+64.8122+74.462C64.8122+74.0606+64.4864+73.7348+64.0849+73.7348L59.2432+73.7348Z" opacity="1" fill="#472b29"/>
<path d="M63.92+75.8161C63.92+76.9255+62.1507+77.2073+61.6242+77.2073C60.3829+77.2073+59.3779+76.5626+59.3779+75.768" opacity="1" fill="#e1e0d8"/>
<path d="M61.6242+77.6541C60.1134+77.6541+58.9298+76.8251+58.9298+75.7666C58.9298+75.5192+59.1305+75.3198+59.3766+75.3198C59.6226+75.3198+59.8234+75.5205+59.8234+75.7666C59.8234+76.2368+60.5629+76.7591+61.6242+76.7591C62.016+76.7591+63.4732+76.5241+63.4732+75.8147C63.4732+75.5673+63.6739+75.3679+63.92+75.3679C64.1661+75.3679+64.3668+75.5686+64.3668+75.8147C64.3668+77.2045+62.5191+77.6541+61.6242+77.6541ZM69.2057+58.4687C69.0916+58.4687+68.9995+58.3766+68.9995+58.2625C68.9995+57.6054+68.9074+56.9565+68.7246+56.3296C68.693+56.221+68.7534+56.1056+68.8648+56.0739C68.9748+56.0451+69.0889+56.1056+69.1205+56.2142C69.3157+56.8768+69.4147+57.5669+69.4147+58.2625C69.4119+58.3766+69.3198+58.4687+69.2057+58.4687ZM68.4235+55.2354C68.3479+55.2354+68.2778+55.1941+68.2393+55.124C67.2165+53.1348+65.2727+51.7312+63.0388+51.3683C62.6566+51.3064+62.2607+51.2735+61.8634+51.2735C61.7493+51.2735+61.6572+51.1814+61.6572+51.0672C61.6572+50.9531+61.7493+50.861+61.8634+50.861C62.2827+50.861+62.7006+50.894+63.1062+50.9614C65.4679+51.3449+67.5245+52.8296+68.6077+54.9343C68.6586+55.036+68.6201+55.1611+68.5184+55.212C68.4881+55.2271+68.4565+55.2354+68.4235+55.2354Z" opacity="1" fill="#472b29"/>
<path d="M64.0849+73.288C64.0849+73.288+65.4789+73.288+65.4789+72.114L65.4789+72.114C65.4789+71.4679+64.9648+70.94+64.3365+70.94L58.6136+70.94C57.9854+70.94+57.4712+71.4693+57.4712+72.114L57.4712+72.114C57.4712+72.7601+57.9854+73.288+58.6136+73.288L64.0616+73.288" opacity="1" fill="#e1e0d8"/>
<path d="M64.0849+73.7348C64.0767+73.7348+64.0684+73.7348+64.0602+73.7348L58.6122+73.7348C57.7352+73.7348+57.0231+73.0076+57.0231+72.1126C57.0231+71.2177+57.7365+70.4905+58.6122+70.4905L64.3351+70.4905C65.2122+70.4905+65.9257+71.2177+65.9257+72.1126C65.927+73.3966+64.7214+73.7348+64.0849+73.7348ZM58.6136+71.3854C58.2301+71.3854+57.918+71.7112+57.918+72.1126C57.918+72.5141+58.2301+72.8399+58.6136+72.8399L64.0616+72.8399C64.0698+72.8399+64.0767+72.8412+64.0849+72.8399C64.2458+72.8385+65.0335+72.7945+65.0335+72.1126C65.0335+71.7112+64.7201+71.3854+64.3365+71.3854L58.6136+71.3854Z" opacity="1" fill="#472b29"/>
<path d="M45.9031+96.5219C48.4916+96.5219+50.7379+96.5219+50.7695+96.5219C53.6702+96.5219+56.0223+94.2207+56.0223+91.3819C56.0223+88.9047+54.2324+86.8385+51.8501+86.3505C51.8775+86.1333+51.8968+85.9147+51.8968+85.6906C51.8968+82.7501+49.4608+80.3664+46.4571+80.3664C44.6837+80.3664+43.1124+81.2008+42.1199+82.4876C41.8656+79.2144+38.8783+76.689+35.3838+77.1083C32.8282+77.4149+30.7139+79.3477+30.2438+81.8249C30.0926+82.6195+30.1091+83.3907+30.2589+84.1138C29.5743+83.3921+28.5983+82.9371+27.5122+82.9371C25.5244+82.9371+23.9009+84.452+23.773+86.3656C22.8699+86.1704+21.8883+86.1828+20.8545+86.5622C18.8777+87.288+17.47+89.1095+17.3875+91.1757C17.2707+94.1079+19.6654+96.5219+22.6362+96.5219C22.8616+96.5219+23.6548+96.5219+23.8377+96.5219L34.7446+96.5219M36.9991+96.5219L37.494+96.5219" opacity="1" fill="#fdfcef"/>
<path d="M50.7695+97.2107L45.9031+97.2107C45.5237+97.2107+45.2157+96.9027+45.2157+96.5233C45.2157+96.1439+45.5237+95.836+45.9031+95.836L50.7695+95.836C53.2866+95.836+55.3349+93.8385+55.3349+91.3833C55.3349+89.2882+53.8118+87.4557+51.7098+87.0255C51.3565+86.954+51.1201+86.6213+51.1654+86.2639C51.1902+86.0755+51.2067+85.8858+51.2067+85.692C51.2067+83.135+49.0745+81.0551+46.4543+81.0551C44.9518+81.0551+43.5688+81.7315+42.6601+82.9082C42.4869+83.1337+42.19+83.2285+41.9205+83.1474C41.6484+83.0663+41.4531+82.8257+41.4325+82.5425C41.3239+81.1417+40.6558+79.8715+39.5492+78.9642C38.4109+78.0294+36.9565+77.6115+35.4622+77.7916C33.1994+78.0624+31.3298+79.7739+30.916+81.9542C30.7854+82.6333+30.7909+83.3124+30.9284+83.9764C30.9916+84.2774+30.8459+84.5826+30.5737+84.7242C30.3043+84.8672+29.9702+84.8122+29.7558+84.5881C29.1674+83.9667+28.3687+83.6258+27.5081+83.6258C25.8997+83.6258+24.558+84.8507+24.4549+86.4137C24.4411+86.613+24.3422+86.7973+24.1827+86.9169C24.0246+87.0365+23.8198+87.0818+23.6246+87.0392C22.7434+86.8467+21.9172+86.9045+21.0855+87.2097C19.3506+87.8475+18.1381+89.4532+18.0708+91.2046C18.0226+92.4074+18.4584+93.5526+19.3011+94.4283C20.1741+95.3369+21.3563+95.836+22.632+95.836L34.7405+95.836C35.1199+95.836+35.4278+96.1439+35.4278+96.5233C35.4278+96.9027+35.1199+97.2107+34.7405+97.2107L22.632+97.2107C21.003+97.2107+19.4276+96.5439+18.31+95.3796C17.2061+94.2317+16.6342+92.7291+16.696+91.1482C16.7868+88.8469+18.3622+86.745+20.6126+85.9174C21.4525+85.6081+22.3241+85.4968+23.1984+85.5806C23.6713+83.6615+25.4378+82.2484+27.5095+82.2484C28.1872+82.2484+28.8526+82.4037+29.452+82.6924C29.4643+82.3597+29.5028+82.027+29.5661+81.6943C30.0898+78.9326+32.4474+76.766+35.2986+76.4237C37.1737+76.1996+38.991+76.7234+40.4221+77.8988C41.449+78.7415+42.1776+79.8357+42.5474+81.062C43.6348+80.1712+45.0013+79.6776+46.4557+79.6776C49.8347+79.6776+52.5828+82.3748+52.5828+85.6892C52.5828+85.736+52.5814+85.7827+52.58+85.8308C55.0064+86.5938+56.7096+88.8387+56.7096+91.3819C56.711+94.596+54.0455+97.2107+50.7695+97.2107ZM37.4926+97.2107L36.9991+97.2107C36.6197+97.2107+36.3117+96.9027+36.3117+96.5233C36.3117+96.1439+36.6197+95.836+36.9991+95.836L37.4926+95.836C37.872+95.836+38.18+96.1439+38.18+96.5233C38.18+96.9027+37.8734+97.2107+37.4926+97.2107Z" opacity="1" fill="#472b29"/>
<path d="M48.4229+89.2319C48.3982+89.2319+48.3734+89.2291+48.3473+89.2236C48.1617+89.1824+48.0449+88.9982+48.0875+88.8126C48.1397+88.583+48.2181+88.3603+48.3212+88.1527C49.1515+86.4728+51.4445+85.8528+53.4365+86.7698C53.6097+86.8495+53.6853+87.0543+53.6042+87.2262C53.5244+87.398+53.3182+87.4736+53.1491+87.3939C51.4913+86.6295+49.6024+87.1066+48.9384+88.4579C48.8587+88.616+48.7982+88.7865+48.7597+88.9624C48.7226+89.1233+48.581+89.2319+48.4229+89.2319ZM41.3308+97.2107L39.809+97.2107C39.4296+97.2107+39.1216+96.9027+39.1216+96.5233C39.1216+96.1439+39.4296+95.836+39.809+95.836L41.3308+95.836C41.7102+95.836+42.0181+96.1439+42.0181+96.5233C42.0181+96.9027+41.7116+97.2107+41.3308+97.2107Z" opacity="1" fill="#472b29"/>
</g>
</g>
</svg>
