<?xml version="1.0" encoding="UTF-8" standalone="no"?> <!-- Created with Vectornator for iOS (http://vectornator.io/) --><!DOCTYPE svg PUBLIC "-//W3C//DTD SVG 1.1//EN" "http://www.w3.org/Graphics/SVG/1.1/DTD/svg11.dtd">
<svg style="fill-rule:evenodd;clip-rule:evenodd;stroke-linecap:round;stroke-linejoin:round;" xmlns:vectornator="http://vectornator.io" xmlns:xlink="http://www.w3.org/1999/xlink" xmlns="http://www.w3.org/2000/svg" xml:space="preserve" version="1.1" viewBox="0 0 120 120">
<metadata>
<vectornator:setting key="DimensionsVisible" value="1"/>
<vectornator:setting key="SnapToGrid" value="0"/>
<vectornator:setting key="SnapToPoints" value="0"/>
<vectornator:setting key="GuidesVisible" value="1"/>
<vectornator:setting key="RulersVisible" value="1"/>
<vectornator:setting key="CMYKEnabledKey" value="0"/>
<vectornator:setting key="SnapToEdges" value="0"/>
<vectornator:setting key="DisplayWhiteBackground" value="0"/>
<vectornator:setting key="SnapToGuides" value="1"/>
<vectornator:setting key="GridSpacing" value="36"/>
<vectornator:setting key="Units" value="Pixels"/>
<vectornator:setting key="DynamicGuides" value="0"/>
<vectornator:setting key="New" value="1"/>
</metadata>
<defs/>
<g id="Layer 1" vectornator:layerName="Layer 1">
<g opacity="1">
<path d="M109.935+69.3816C111.522+66.3686+112.431+62.9431+112.431+59.3009C112.431+50.0437+106.616+42.1637+98.4479+39.0584C98.4479+39.0486+98.4493+39.0388+98.4493+39.0276C98.4493+22.8118+85.3038+9.66634+69.088+9.66634C55.4084+9.66634+43.9478+19.0354+40.6873+31.6971C38.6236+31.019+36.4243+30.6387+34.1341+30.6387C23.3795+30.6387+14.5277+38.7382+13.3155+49.1671C6.03952+50.7064+0.578321+57.1603+0.578321+64.8935C0.578321+73.7732+7.77743+80.9724+16.6571+80.9724C16.9046+80.9724+17.1493+80.9556+17.3926+80.9416C17.387+81.1863+17.3562+81.4254+17.3562+81.6714C17.3562+97.5014+30.1885+110.334+46.0184+110.334C55.0184+110.334+63.041+106.178+68.2967+99.6881C71.3418+102.799+75.5755+104.741+80.2733+104.741C86.7747+104.741+92.4009+101.036+95.186+95.6278C96.6569+96.0962+98.2214+96.3521+99.8475+96.3521C108.341+96.3521+115.227+89.4662+115.227+80.9724C115.227+76.3431+113.172+72.2017+109.935+69.3816Z" opacity="1" fill="#c7ede6"/>
<path d="M87.2641+90.7595L79.2247+90.7595C75.7502+91.8081+72.933+88.9908+72.933+85.5164C72.933+82.2545+75.4245+79.6036+78.6025+79.2876C78.5717+79.0345+78.5256+78.787+78.5256+78.5256C78.5256+75.0512+81.3429+72.2339+84.8173+72.2339C86.8278+72.2339+88.5965+73.193+89.7486+74.6611C89.9443+70.9755+92.9671+68.0394+96.7016+68.0394C100.562+68.0394+103.692+71.1699+103.692+75.0302C103.692+75.6538+103.585+76.2466+103.431+76.8226C104.329+75.7363+105.668+75.0302+107.188+75.0302C109.678+75.0302+111.709+76.8967+112.018+79.3016C112.272+79.2708+112.519+79.2247+112.78+79.2247C116.255+79.2247+119.072+82.0419+119.072+85.5164C119.072+88.9908+116.255+91.8081+112.78+90.7595L99.4979+90.7595L91.4585+90.7595L91.4585+92.1576L87.2641+92.1576L87.2641+90.7595Z" opacity="1" fill="#fdfcef"/>
<path d="M96.3521+66.9908C100.593+66.9908+104.042+70.44+104.042+74.6806C104.042+74.703+104.042+74.724+104.042+74.7464C104.884+74.25+105.846+73.9816+106.838+73.9816C109.398+73.9816+111.607+75.7446+112.232+78.183C112.298+78.1788+112.364+78.176+112.431+78.176C116.764+78.176+120.189+82.1384+119.272+86.6307C118.601+89.9178+115.512+92.1576+112.157+92.1576L91.6333+92.1576C91.2474+92.1576+90.9342+91.8444+90.9342+91.4585C90.9342+91.0726+91.2474+90.7595+91.6333+90.7595L112.211+90.7595C114.896+90.7595+117.366+88.967+117.903+86.3371C118.637+82.7438+115.897+79.5742+112.431+79.5742C112.267+79.5742+112.109+79.598+111.951+79.6189L111.754+79.6455C111.725+79.6497+111.697+79.6511+111.667+79.6511C111.324+79.6511+111.022+79.3924+110.975+79.0401C110.708+76.9527+108.93+75.3797+106.838+75.3797C105.601+75.3797+104.429+75.9404+103.621+76.9177C103.484+77.0827+103.284+77.1722+103.081+77.1722C102.972+77.1722+102.863+77.147+102.763+77.0939C102.47+76.9443+102.324+76.6101+102.408+76.2927C102.631+75.4538+102.69+74.7981+102.613+74.127C102.277+71.1531+99.874+68.6616+96.8918+68.4113C93.3251+68.1107+90.2855+70.8273+90.0981+74.3479C90.0827+74.6387+89.8884+74.889+89.6102+74.9771C89.5403+74.9994+89.469+75.0106+89.3976+75.0106C89.1879+75.0106+88.9838+74.9141+88.8496+74.7422C87.7702+73.3706+86.1749+72.5834+84.4677+72.5834C81.3834+72.5834+78.8751+75.0917+78.8751+78.176C78.8751+78.3396+78.8989+78.4976+78.9199+78.6556L78.9464+78.8527C78.9688+79.0401+78.9157+79.2275+78.7982+79.3743C78.6808+79.5211+78.5088+79.6147+78.3228+79.6329C75.0344+79.9601+72.6715+83.029+73.4237+86.435C73.9942+89.0257+76.4633+90.7595+79.117+90.7595L87.4388+90.7595C87.8247+90.7595+88.1379+91.0726+88.1379+91.4585C88.1379+91.8444+87.8247+92.1576+87.4388+92.1576L79.1366+92.1576C75.6873+92.1576+72.554+89.7752+71.985+86.372C71.339+82.5089+73.8641+79.0737+77.4812+78.3466C77.4784+78.2907+77.477+78.2334+77.477+78.176C77.477+74.3213+80.613+71.1853+84.4677+71.1853C86.112+71.1853+87.6737+71.7669+88.9181+72.8127C89.7542+69.4515+92.7798+66.9908+96.3521+66.9908L96.3521+66.9908Z" opacity="1" fill="#472b29"/>
<path d="M98.7989+77.1274C100.76+77.1274+102.447+78.5242+102.872+80.4005C103.385+80.0901+103.971+79.9237+104.566+79.9237C106.247+79.9237+107.639+81.1779+107.856+82.8151C108.14+82.7522+108.41+82.7201+108.674+82.7201C110.812+82.7201+112.604+84.3978+112.754+86.5398C112.766+86.7328+112.622+86.8991+112.429+86.9131C112.421+86.9131+112.413+86.9131+112.404+86.9131C112.223+86.9131+112.069+86.7719+112.056+86.5888C111.932+84.8117+110.447+83.4177+108.674+83.4177C108.354+83.4177+108.017+83.4765+107.642+83.5953C107.611+83.6051+107.579+83.6093+107.549+83.6093C107.472+83.6093+107.395+83.5813+107.33+83.5338C107.241+83.4681+107.188+83.3534+107.188+83.2416C107.188+81.7959+106.012+80.62+104.566+80.62C103.941+80.62+103.329+80.8549+102.845+81.2813C102.779+81.3387+102.697+81.3694+102.614+81.3694C102.57+81.3694+102.526+81.361+102.484+81.3429C102.361+81.2939+102.277+81.1793+102.268+81.0465C102.125+79.24+100.602+77.8237+98.8017+77.8237C98.5108+77.8237+98.2074+77.8712+97.8481+77.9733C97.816+77.9831+97.7824+77.9873+97.7502+77.9873C97.5978+77.9873+97.4608+77.8852+97.4161+77.7328C97.363+77.5469+97.4706+77.3539+97.6566+77.3008C98.076+77.1834+98.4409+77.1274+98.7989+77.1274L98.7989+77.1274ZM79.3882+79.2247C81.2422+79.2247+82.8948+80.4788+83.4065+82.2754C83.4597+82.4614+83.352+82.6543+83.1661+82.7075C83.1339+82.7173+83.1017+82.7214+83.071+82.7214C82.9186+82.7214+82.7788+82.6208+82.7354+82.467C82.309+80.9696+80.9332+79.9251+79.3896+79.9251C79.2261+79.9251+79.0681+79.9447+78.9115+79.9657C78.8947+79.9685+78.8793+79.9699+78.8625+79.9699C78.6934+79.9699+78.5424+79.8412+78.5186+79.6665C78.492+79.4749+78.6262+79.2988+78.8178+79.2736C79.0038+79.247+79.1939+79.2247+79.3882+79.2247L79.3882+79.2247Z" opacity="1" fill="#472b29"/>
<path d="M104.608+57.2037L90.7595+57.2037C90.3736+57.2037+90.0604+56.8905+90.0604+56.5046C90.0604+56.1187+90.3736+55.8055+90.7595+55.8055L104.608+55.8055C104.994+55.8055+105.307+56.1187+105.307+56.5046C105.307+56.8905+104.995+57.2037+104.608+57.2037ZM108.935+57.2037L107.537+57.2037C107.151+57.2037+106.838+56.8905+106.838+56.5046C106.838+56.1187+107.151+55.8055+107.537+55.8055L108.935+55.8055C109.321+55.8055+109.635+56.1187+109.635+56.5046C109.635+56.8905+109.323+57.2037+108.935+57.2037ZM115.914+60L103.343+60C102.957+60+102.644+59.6868+102.644+59.3009C102.644+58.915+102.957+58.6018+103.343+58.6018L115.914+58.6018C116.3+58.6018+116.613+58.915+116.613+59.3009C116.613+59.6868+116.3+60+115.914+60ZM100.547+60L99.1484+60C98.7625+60+98.4493+59.6868+98.4493+59.3009C98.4493+58.915+98.7625+58.6018+99.1484+58.6018L100.547+58.6018C100.932+58.6018+101.246+58.915+101.246+59.3009C101.246+59.6868+100.934+60+100.547+60ZM96.3521+60L93.5558+60C93.1699+60+92.8567+59.6868+92.8567+59.3009C92.8567+58.915+93.1699+58.6018+93.5558+58.6018L96.3521+58.6018C96.738+58.6018+97.0512+58.915+97.0512+59.3009C97.0512+59.6868+96.7394+60+96.3521+60ZM104.741+62.7963L101.945+62.7963C101.559+62.7963+101.246+62.4831+101.246+62.0972C101.246+61.7113+101.559+61.3982+101.945+61.3982L104.741+61.3982C105.127+61.3982+105.44+61.7113+105.44+62.0972C105.44+62.4831+105.127+62.7963+104.741+62.7963ZM108.935+50.2129C108.688+50.2129+107.785+50.2129+107.537+50.2129C107.151+50.2129+106.838+50.5261+106.838+50.912C106.838+51.2979+107.151+51.6111+107.537+51.6111C107.785+51.6111+108.688+51.6111+108.935+51.6111C109.321+51.6111+109.635+51.2979+109.635+50.912C109.635+50.5261+109.321+50.2129+108.935+50.2129ZM108.935+53.0092C108.688+53.0092+102.192+53.0092+101.945+53.0092C101.559+53.0092+101.246+53.3224+101.246+53.7083C101.246+54.0942+101.559+54.4074+101.945+54.4074C102.192+54.4074+108.688+54.4074+108.935+54.4074C109.321+54.4074+109.635+54.0942+109.635+53.7083C109.635+53.3224+109.321+53.0092+108.935+53.0092ZM115.926+55.8055C115.679+55.8055+111.979+55.8055+111.732+55.8055C111.346+55.8055+111.033+56.1187+111.033+56.5046C111.033+56.8905+111.346+57.2037+111.732+57.2037C111.979+57.2037+115.679+57.2037+115.926+57.2037C116.312+57.2037+116.625+56.8905+116.625+56.5046C116.625+56.1187+116.312+55.8055+115.926+55.8055ZM38.3286+101.945L24.347+101.945C23.9611+101.945+23.6479+101.632+23.6479+101.246C23.6479+100.86+23.9611+100.547+24.347+100.547L38.3286+100.547C38.7145+100.547+39.0276+100.86+39.0276+101.246C39.0276+101.632+38.7145+101.945+38.3286+101.945ZM43.9212+101.945L41.1249+101.945C40.739+101.945+40.4258+101.632+40.4258+101.246C40.4258+100.86+40.739+100.547+41.1249+100.547L43.9212+100.547C44.3071+100.547+44.6203+100.86+44.6203+101.246C44.6203+101.632+44.3071+101.945+43.9212+101.945ZM50.912+104.741L36.9304+104.741C36.5445+104.741+36.2313+104.428+36.2313+104.042C36.2313+103.656+36.5445+103.343+36.9304+103.343L50.912+103.343C51.2979+103.343+51.6111+103.656+51.6111+104.042C51.6111+104.428+51.2993+104.741+50.912+104.741ZM34.1341+104.741L32.7359+104.741C32.35+104.741+32.0369+104.428+32.0369+104.042C32.0369+103.656+32.35+103.343+32.7359+103.343L34.1341+103.343C34.52+103.343+34.8332+103.656+34.8332+104.042C34.8332+104.428+34.52+104.741+34.1341+104.741ZM29.7649+104.741L27.1433+104.741C26.7574+104.741+26.4442+104.428+26.4442+104.042C26.4442+103.656+26.7574+103.343+27.1433+103.343L29.7649+103.343C30.1507+103.343+30.4639+103.656+30.4639+104.042C30.4639+104.428+30.1507+104.741+29.7649+104.741ZM42.523+99.1484L35.5322+99.1484C35.1464+99.1484+34.8332+98.8352+34.8332+98.4493C34.8332+98.0634+35.1464+97.7502+35.5322+97.7502L42.523+97.7502C42.9089+97.7502+43.2221+98.0634+43.2221+98.4493C43.2221+98.8352+42.9103+99.1484+42.523+99.1484ZM38.3286+107.537L35.5322+107.537C35.1464+107.537+34.8332+107.224+34.8332+106.838C34.8332+106.452+35.1464+106.139+35.5322+106.139L38.3286+106.139C38.7145+106.139+39.0276+106.452+39.0276+106.838C39.0276+107.224+38.7145+107.537+38.3286+107.537Z" opacity="1" fill="#ffffff"/>
<path d="M25.7451+41.824C25.7451+41.824+23.2047+41.824+20.5021+41.824C17.7994+41.824+15.6085+39.633+15.6085+36.9304C15.6085+34.4403+17.475+32.4088+19.8799+32.0998C19.8407+31.8495+19.803+31.5992+19.803+31.3378C19.803+28.6351+21.9939+26.4442+24.6965+26.4442C26.1394+26.4442+27.4229+27.0804+28.3178+28.0731C28.856+25.5452+31.0973+23.6479+33.7846+23.6479C36.8731+23.6479+39.3772+26.152+39.3772+29.2405C39.3772+29.5076+39.3352+29.7635+39.2989+30.0207C39.8973+29.5397+40.6467+29.2405+41.4744+29.2405C43.1914+29.2405+44.6133+30.4807+44.9069+32.1138C45.1572+32.0746+45.4074+32.0369+45.6689+32.0369C48.3715+32.0369+50.5624+34.2278+50.5624+36.9304C50.5624+39.633+48.3715+41.824+45.6689+41.824C42.9663+41.824+35.5322+41.824+35.5322+41.824L35.5322+43.2221L25.7451+43.2221L25.7451+41.824Z" opacity="1" fill="#fdfcef"/>
<path d="M22.9488+35.5322C23.1418+35.5322+23.2984+35.3757+23.2984+35.1827C23.2984+33.4728+21.9072+32.0816+20.1973+32.0816C20.1497+32.0942+19.1668+32.0802+18.458+32.2717C18.272+32.3221+18.1615+32.5136+18.2119+32.6996C18.2622+32.8869+18.4538+32.9974+18.6397+32.9457C19.2605+32.7779+20.1777+32.7779+20.1959+32.7807C21.5213+32.7807+22.5993+33.8587+22.5993+35.1827C22.5993+35.3757+22.7559+35.5322+22.9488+35.5322ZM32.0369+41.824C31.6508+41.824+31.3378+42.1369+31.3378+42.523C31.3378+42.9091+31.6508+43.2221+32.0369+43.2221C32.4229+43.2221+32.7359+42.9091+32.7359+42.523C32.7359+42.1369+32.4229+41.824+32.0369+41.824Z" opacity="1" fill="#472b29"/>
<path d="M15.1443+39.2472C15.8504+41.6688+18.2259+43.2221+20.7481+43.2221L25.3956+43.2221C25.7815+43.2221+26.0947+42.9089+26.0947+42.523C26.0947+42.1371+25.7815+41.824+25.3956+41.824L20.6489+41.824C18.911+41.824+17.2444+40.8438+16.6138+39.2248C15.5582+36.5138+17.3632+33.8265+19.968+33.4923C20.1553+33.4672+20.3245+33.3693+20.4377+33.2183C20.551+33.0673+20.5985+32.8771+20.5692+32.6912C20.537+32.4759+20.5021+32.2606+20.5021+32.0369C20.5021+29.7243+22.384+27.8424+24.6965+27.8424C25.885+27.8424+26.9867+28.3387+27.799+29.2405C27.9738+29.4349+28.2479+29.5174+28.4981+29.4475C28.7526+29.379+28.9469+29.1748+29.0015+28.9176C29.4782+26.6749+31.4902+25.0461+33.7846+25.0461C36.483+25.0461+38.6781+27.2412+38.6781+29.9396C38.6781+30.1396+38.6487+30.3311+38.6208+30.524C38.5802+30.8079+38.7089+31.1364+38.9591+31.2791C39.2094+31.4217+39.5128+31.444+39.7365+31.2651C40.2468+30.8554+40.8466+30.6387+41.4744+30.6387C42.825+30.6387+43.9799+31.6048+44.219+32.9373C44.2861+33.3106+44.6329+33.5608+45.0146+33.5035C45.2299+33.47+45.4452+33.435+45.6689+33.435C48.4233+33.435+50.5666+36.1027+49.648+38.9913C49.0944+40.7306+47.3607+41.824+45.5347+41.824L35.1827+41.824C34.7968+41.824+34.4836+42.1371+34.4836+42.523C34.4836+42.9089+34.7968+43.2221+35.1827+43.2221L45.4494+43.2221C48.1338+43.2221+50.6044+41.4297+51.1413+38.7997C51.8753+35.2065+49.1349+32.0369+45.6689+32.0369C45.5864+32.0369+45.5067+32.0397+45.4256+32.0452C44.8468+30.387+43.2766+29.2405+41.4744+29.2405C40.9865+29.2405+40.5111+29.3258+40.0609+29.4922C39.8302+26.2303+37.1038+23.6479+33.7846+23.6479C31.2245+23.6479+28.9385+25.2236+27.978+27.5264C27.0273+26.8301+25.878+26.4442+24.6965+26.4442C21.6122+26.4442+19.1039+28.9525+19.1039+32.0369C19.1039+32.104+19.1053+32.1697+19.1095+32.2354C16.1706+32.9904+14.2104+36.0482+15.1443+39.2472Z" opacity="1" fill="#472b29"/>
<path d="M28.1919+41.824C28.4142+41.824+29.3678+41.824+29.5901+41.824C29.976+41.824+30.2892+42.1371+30.2892+42.523C30.2892+42.9089+29.976+43.2221+29.5901+43.2221C29.3678+43.2221+28.4142+43.2221+28.1919+43.2221C27.806+43.2221+27.4928+42.9089+27.4928+42.523C27.4928+42.1371+27.806+41.824+28.1919+41.824Z" opacity="1" fill="#472b29"/>
<path d="M76.6479+55.0701C76.0564+55.0701+75.4664+55.0323+74.8862+54.9582C74.8079+53.3504+73.8963+52.0263+72.4058+51.3957L72.2227+51.3174L72.1919+51.3174C71.7795+51.172+71.3502+51.0993+70.9154+51.0993C69.9311+51.0993+68.9776+51.474+68.1974+52.1633C67.2802+51.4531+66.4623+50.6379+65.7548+49.7319C67.1753+48.1241+66.9572+46.5274+66.4958+45.4396C65.8513+43.9436+64.6363+43.1089+62.9669+43.0096C62.8173+41.8687+62.8145+40.711+62.9599+39.5659C64.695+39.4723+65.938+38.5984+66.5685+37.0227C66.988+35.9349+67.153+34.362+65.7352+32.8086C66.4413+31.8914+67.2564+31.0721+68.1638+30.3633C68.9874+31.1281+69.8962+31.5181+70.8707+31.5181C71.4006+31.5181+71.9487+31.3993+72.4995+31.1658C73.5957+30.71+74.8708+29.7131+74.9505+27.5432C75.5084+27.4733+76.0802+27.4383+76.6493+27.4383C77.2253+27.4383+77.8097+27.4733+78.3942+27.5474C78.478+29.9033+79.9209+30.896+81.1625+31.3126C81.5987+31.458+82.035+31.5321+82.46+31.5321C83.4513+31.5321+84.3657+31.1434+85.1864+30.3758C86.0938+31.0805+86.9047+31.8984+87.6108+32.8184C86.126+34.4179+86.3231+36.0398+86.7775+37.1499C87.4235+38.7061+88.6706+39.5547+90.3959+39.6191C90.5176+40.4873+90.5036+42.1651+90.3708+43.0627C88.1505+43.1732+87.1634+44.4944+86.7258+45.6102C86.3077+46.6756+86.1358+48.2345+87.5241+49.799C86.8083+50.705+85.9848+51.5174+85.069+52.2165C84.244+51.4852+83.3436+51.1091+82.3915+51.1091C81.7749+51.1091+81.1387+51.2699+80.4998+51.5873C79.1562+52.2696+78.4319+53.4063+78.3368+54.9694C77.7748+55.0351+77.2071+55.0701+76.6479+55.0701ZM76.652+38.3537C75.0554+38.3537+73.7579+39.6526+73.7579+41.2479C73.7579+42.8432+75.0568+44.1421+76.652+44.1421C78.2473+44.1421+79.5462+42.8432+79.5462+41.2479C79.5462+39.6526+78.2487+38.3537+76.652+38.3537Z" opacity="1" fill="#a3a3cd"/>
<path d="M76.6493+28.4142C76.9317+28.4142+77.2155+28.424+77.5049+28.4436C77.8293+30.2878+78.9842+31.6118+80.8507+32.2382C81.3876+32.4186+81.9287+32.5094+82.46+32.5094C83.1828+32.5094+84.163+32.3361+85.1766+31.6356C85.5933+32.0019+85.9861+32.399+86.3539+32.8226C85.3724+34.2418+85.1962+35.8706+85.8743+37.5274C86.5524+39.1605+87.8149+40.1895+89.4885+40.4985C89.5095+41.0256+89.5053+41.6548+89.4759+42.1805C87.7534+42.5091+86.4741+43.5703+85.8128+45.2508C85.1976+46.8238+85.3626+48.3855+86.2714+49.7655C85.8925+50.1919+85.4856+50.5932+85.0522+50.9651C84.2217+50.4086+83.331+50.1276+82.3901+50.1276C81.6211+50.1276+80.8381+50.322+80.0482+50.7148C79.0191+51.2377+77.8349+52.2304+77.4644+54.0634C77.1917+54.0802+76.9177+54.0886+76.6479+54.0886C76.3473+54.0886+76.0466+54.0774+75.7488+54.0578C75.4049+52.4611+74.3367+51.1483+72.7847+50.4911L72.4184+50.3359L72.3443+50.3359C71.8787+50.1905+71.3978+50.1164+70.9098+50.1164C69.9535+50.1164+69.0265+50.3961+68.217+50.9148C67.7835+50.5373+67.3767+50.1332+66.9992+49.704C67.9331+48.289+68.0772+46.6742+67.3879+45.0411C66.7112+43.4696+65.4808+42.4671+63.8575+42.1357C63.8184+41.5723+63.817+41.006+63.8547+40.4328C65.5437+40.0986+66.8076+39.0402+67.4801+37.3582C68.0981+35.7574+67.9164+34.1816+66.9852+32.8142C67.3515+32.3934+67.7458+31.9963+68.1708+31.6216C69.0027+32.199+69.9045+32.4899+70.8651+32.4899C71.5264+32.4899+72.2031+32.3458+72.863+32.0662C74.5031+31.3839+75.5251+30.12+75.8299+28.4366C76.1068+28.424+76.378+28.4142+76.6493+28.4142M76.652+45.1208C78.787+45.1208+80.5249+43.3829+80.5249+41.2479C80.5249+39.1129+78.787+37.375+76.652+37.375C74.5171+37.375+72.7792+39.1129+72.7792+41.2479C72.7792+43.3829+74.5171+45.1208+76.652+45.1208M76.6493+26.4568C75.8663+26.4568+75.0889+26.5197+74.3213+26.6442C74.1088+26.6805+73.9606+26.8665+73.9704+27.079C74.0445+28.6701+73.4335+29.7159+72.1192+30.2626C71.6872+30.4458+71.2719+30.5366+70.8721+30.5366C70.036+30.5366+69.2614+30.1382+68.5288+29.337C68.4435+29.2475+68.3288+29.2+68.2156+29.2C68.1303+29.2+68.045+29.2266+67.9737+29.2825C66.6972+30.2081+65.5772+31.3364+64.6615+32.6143C64.5412+32.7807+64.5594+33.0212+64.7174+33.1694C65.8555+34.225+66.1603+35.3631+65.6611+36.6578C65.1424+37.9539+64.1567+38.5942+62.6467+38.5942C62.5936+38.5942+62.5405+38.5928+62.4859+38.5914C62.4803+38.5914+62.4747+38.5914+62.4677+38.5914C62.2622+38.5914+62.0874+38.7452+62.0595+38.9521C61.8092+40.4887+61.8092+42.0616+62.0693+43.6248C62.1056+43.8289+62.2818+43.9757+62.4859+43.9757C62.5307+43.9743+62.574+43.9743+62.6174+43.9743C64.098+43.9743+65.0641+44.5853+65.5954+45.8171C66.1505+47.1314+65.8639+48.2974+64.7342+49.3796C64.586+49.518+64.558+49.7585+64.6782+49.9263C65.6038+51.2028+66.7237+52.3143+67.9905+53.2301C68.0086+53.2483+68.0366+53.2581+68.0646+53.2665C68.1135+53.2888+68.168+53.2986+68.224+53.2986C68.3344+53.2986+68.4505+53.2581+68.5371+53.184C68.5735+53.156+68.6015+53.1281+68.621+53.1099C69.2712+52.4346+70.0905+52.0766+70.9154+52.0766C71.2775+52.0766+71.6397+52.1452+71.9892+52.2864C71.999+52.2864+72.0172+52.2962+72.0255+52.2962C73.228+52.8051+73.9312+53.9068+73.9131+55.2477C73.9131+55.4979+74.0053+55.8125+74.4681+55.8866C75.1924+55.9957+75.9208+56.0488+76.6507+56.0488C77.3469+56.0488+78.0432+55.9999+78.7353+55.9048C78.7912+55.8866+78.8555+55.8768+78.9115+55.8684L78.9674+55.8587C79.1617+55.8223+79.3099+55.6364+79.3099+55.4322C79.282+53.9977+79.8091+53.0358+80.9388+52.4611C81.4407+52.2123+81.9259+52.0864+82.3943+52.0864C83.2122+52.0864+83.9826+52.4681+84.7236+53.2385C84.8061+53.321+84.9152+53.3643+85.0256+53.3643C85.1109+53.3643+85.1976+53.3378+85.2703+53.286C86.5566+52.3703+87.6765+51.2601+88.6021+50.0004C88.7223+49.834+88.7042+49.5935+88.5462+49.4453C87.436+48.3813+87.1396+47.2432+87.6388+45.9653C88.1519+44.6608+89.1544+44.0302+90.6812+44.0302C90.7245+44.0302+90.7692+44.0302+90.8126+44.0316C90.8196+44.0316+90.8252+44.0316+90.8322+44.0316C91.0181+44.0316+91.1761+43.9044+91.2292+43.7352C91.5256+42.7635+91.5438+39.7938+91.2474+38.9228C91.1943+38.7536+91.0279+38.6348+90.8503+38.6348C90.8433+38.6348+90.8378+38.6348+90.8308+38.6348C90.7553+38.6376+90.6826+38.639+90.6099+38.639C89.1684+38.639+88.205+38.0252+87.6849+36.7738C87.1396+35.4414+87.4444+34.2753+88.6287+33.1833C88.7867+33.0351+88.8132+32.7947+88.693+32.6283C87.7674+31.3322+86.6475+30.2039+85.371+29.2881C85.2969+29.2336+85.2102+29.207+85.1263+29.207C85.0102+29.207+84.8956+29.2573+84.8159+29.3524C84.1028+30.1465+83.3143+30.5492+82.4614+30.5492C82.1412+30.5492+81.8126+30.4933+81.4757+30.38C79.9853+29.8809+79.3016+28.8071+79.3757+27.0762C79.3854+26.8539+79.2275+26.6693+79.0149+26.6414C78.2208+26.5197+77.4322+26.4568+76.6493+26.4568L76.6493+26.4568ZM76.652+43.1634C75.5922+43.1634+74.7366+42.3077+74.7366+41.2479C74.7366+40.1881+75.5922+39.3324+76.652+39.3324C77.7119+39.3324+78.5675+40.1881+78.5675+41.2479C78.5675+42.3077+77.7119+43.1634+76.652+43.1634L76.652+43.1634Z" opacity="1" fill="#472b29"/>
<path d="M76.6534+34.2865C72.8169+34.2865+69.692+37.41+69.692+41.2479C69.692+45.0859+72.8155+48.2093+76.6534+48.2093C80.49+48.2093+83.6149+45.0859+83.6149+41.2479C83.6149+39.8078+83.1745+38.4684+82.4222+37.3568C82.1356+36.9332+81.8029+36.5417+81.4309+36.1908C80.9835+35.7671+80.4788+35.4022+79.9321+35.1086C79.4386+34.8444+78.9101+34.6374+78.3564+34.4976C77.8097+34.3592+77.2407+34.2865+76.6534+34.2865ZM76.6534+38.0447C78.4151+38.0447+79.8566+39.4862+79.8566+41.2479C79.8566+43.0096+78.4151+44.4511+76.6534+44.4511C74.8918+44.4511+73.4503+43.0096+73.4503+41.2479C73.4503+39.4862+74.8918+38.0447+76.6534+38.0447Z" opacity="1" fill="#7777ab"/>
<path d="M42.063+91.0097C40.1979+90.5483+38.3118+89.7821+36.5445+88.7433C37.4701+86.365+37.0688+84.3126+35.3533+82.6306C34.2753+81.5903+33.0519+81.0646+31.7125+81.0646C30.9505+81.0646+30.1396+81.238+29.2979+81.5806C28.2576+79.851+27.4747+77.9971+26.9825+76.083C29.3846+75.0484+30.566+73.2867+30.5101+70.8371C30.4541+68.4756+29.2447+66.8006+26.914+65.8555C27.3908+63.8995+28.143+62.0441+29.1567+60.3146C30.0277+60.6767+30.8624+60.8599+31.644+60.8599C33.0337+60.8599+34.2879+60.2978+35.3673+59.1891C37.066+57.4707+37.4058+55.3917+36.3795+53.0148C38.0881+51.9802+39.9378+51.2042+41.8939+50.6967C42.881+53.1155+44.5951+54.3472+46.986+54.3472C47.1551+54.3472+47.3271+54.3403+47.5047+54.3277C49.7068+54.1613+51.3202+52.8988+52.1927+50.6701C54.09+51.1427+55.9635+51.9145+57.714+52.9603C56.7031+55.3819+57.0695+57.4735+58.8018+59.1835C59.8826+60.2517+61.1185+60.7914+62.4747+60.7914C63.2647+60.7914+64.1064+60.6026+64.9802+60.2335C65.7185+61.3017+66.9908+64.3874+67.2466+65.752C64.8278+66.7853+63.631+68.5497+63.6758+71.0035C63.7317+73.3314+64.9243+75.005+67.2215+75.9879C66.7335+77.9174+65.9645+79.7685+64.9299+81.4911C64.091+81.1653+63.2829+80.9975+62.5279+80.9975C60.9955+80.9975+59.6477+81.6658+58.5221+82.9815C57.124+84.602+56.8583+86.5202+57.7322+88.6846C55.9663+89.7318+54.1207+90.4938+52.1941+90.9846C51.3272+88.7992+49.4034+87.4766+47.0782+87.4766L46.8475+87.4766L46.8112+87.492C44.707+87.5926+42.9089+88.9223+42.063+91.0097ZM47.0698+65.9981C44.405+65.9981+42.2364+68.1666+42.2364+70.8315C42.2364+73.4964+44.405+75.665+47.0698+75.665C49.7347+75.665+51.9033+73.4964+51.9033+70.8315C51.9033+68.1666+49.7347+65.9981+47.0698+65.9981Z" opacity="1" fill="#a3a3cd"/>
<path d="M52.7296+51.839C54.0355+52.222+55.2994+52.7436+56.5116+53.4021C55.5622+56.4655+56.8094+58.5921+58.1139+59.8812C59.3848+61.1353+60.8515+61.7715+62.4733+61.7715C63.1417+61.7715+63.8351+61.6596+64.551+61.4331C65.0739+62.43+65.7604+64.0742+66.103+65.2151C63.2591+66.7475+62.6621+69.1691+62.6956+71.0329C62.7376+72.7722+63.3807+75.0386+66.061+76.5108C65.6695+77.8307+65.1382+79.103+64.4783+80.3096C63.8058+80.1181+63.1528+80.0216+62.5265+80.0216C60.6949+80.0216+59.0968+80.8046+57.7839+82.3411C56.7297+83.5631+55.737+85.5387+56.5368+88.2442C55.326+88.8999+54.0522+89.4284+52.731+89.8227C51.5635+87.752+49.4677+86.4993+47.0754+86.4993L46.5497+86.5091L46.5022+86.5328C44.3966+86.7188+42.5818+87.9394+41.5317+89.8423C40.2147+89.4592+38.9382+88.9377+37.726+88.2889C38.5774+85.2857+37.3247+83.1982+36.0244+81.9231C34.7647+80.7039+33.312+80.0859+31.7083+80.0859C31.0721+80.0859+30.4122+80.1866+29.7383+80.3865C29.0714+79.1729+28.5387+77.9104+28.143+76.6059C30.9463+75.0707+31.5279+72.6617+31.486+70.8133C31.444+69.0391+30.7883+66.7433+28.0661+65.313C28.4422+64.0001+28.9567+62.7292+29.6027+61.517C30.3017+61.7309+30.984+61.8386+31.6426+61.8386C33.3064+61.8386+34.7954+61.1772+36.058+59.8812C37.3401+58.5823+38.5551+56.4543+37.5861+53.4454C38.776+52.7911+40.0357+52.2626+41.3556+51.8627C42.839+54.6912+45.1823+55.3246+46.9832+55.3246C47.1747+55.3246+47.3704+55.3176+47.5802+55.3022C49.8522+55.1316+51.639+53.9278+52.7296+51.839M47.0698+76.6437C50.2744+76.6437+52.882+74.0361+52.882+70.8315C52.882+67.6269+50.2744+65.0194+47.0698+65.0194C43.8653+65.0194+41.2577+67.6269+41.2577+70.8315C41.2577+74.0361+43.8653+76.6437+47.0698+76.6437M51.9522+49.6327C51.6949+49.6327+51.4587+49.7962+51.3776+50.0549C50.6645+52.0976+49.3446+53.2064+47.4362+53.3504C47.2824+53.3615+47.1328+53.3671+46.986+53.3671C44.9209+53.3671+43.5227+52.2864+42.695+50.0549C42.5985+49.806+42.3678+49.6508+42.1162+49.6508C42.0658+49.6508+42.0141+49.6564+41.9638+49.6704C39.6708+50.2297+37.5316+51.1357+35.5938+52.3493C35.3239+52.5129+35.2274+52.8498+35.3631+53.1392C36.3655+55.2491+36.1432+57.0135+34.6696+58.5068C33.7734+59.4268+32.7709+59.8826+31.6468+59.8826C30.9099+59.8826+30.12+59.6868+29.2727+59.2981C29.1874+59.259+29.0993+59.2394+29.0112+59.2394C28.8001+59.2394+28.5988+59.3485+28.4827+59.5386C27.2775+61.524+26.4009+63.6827+25.8906+65.9366C25.8137+66.2358+25.9772+66.5532+26.2764+66.6594C28.4254+67.4396+29.4852+68.8182+29.5328+70.8609C29.5803+72.9903+28.5401+74.436+26.3338+75.293C26.0444+75.3993+25.8808+75.7167+25.9577+76.0159C26.4974+78.2515+27.4034+80.3809+28.6267+82.3565C28.7512+82.5425+28.9539+82.6501+29.1622+82.6501C29.2447+82.6501+29.3286+82.6334+29.4083+82.597C30.2318+82.2279+30.998+82.0433+31.7139+82.0433C32.8072+82.0433+33.7846+82.474+34.6696+83.3296C36.1628+84.7949+36.4424+86.5286+35.5267+88.6482C35.4008+88.9279+35.5071+89.255+35.7671+89.4186C37.7525+90.6238+39.8917+91.5005+42.1371+92.0206C42.1763+92.0304+42.214+92.0304+42.2532+92.0304C42.4937+92.0304+42.7453+91.8668+42.8502+91.6445C42.8894+91.5872+42.9075+91.5382+42.9271+91.4907C43.6304+89.6409+45.2019+88.4847+47.0223+88.4651C47.0419+88.4553+47.0615+88.4553+47.0796+88.4553C49.0063+88.4553+50.5778+89.5542+51.3188+91.3844C51.4391+91.6641+51.6712+91.9772+52.1256+91.9772C52.2193+91.9772+52.3227+91.9633+52.436+91.9339C54.4787+91.4138+56.4249+90.6043+58.2271+89.5347C58.304+89.4871+58.3809+89.4284+58.4494+89.3907L58.5166+89.3431C58.7668+89.1795+58.8633+88.851+58.7472+88.5727C57.8902+86.6461+58.0538+85.027+59.2674+83.6205C60.2055+82.5229+61.2835+81.9804+62.5279+81.9804C63.2409+81.9804+64.0085+82.158+64.8362+82.5131C64.9117+82.5453+64.9914+82.5593+65.0711+82.5593C65.2822+82.5593+65.4878+82.4516+65.608+82.2615C66.8314+80.2859+67.7178+78.1467+68.2477+75.911C68.3148+75.6118+68.161+75.3042+67.8716+75.198C65.752+74.3786+64.702+73.0015+64.6531+70.9867C64.6139+68.8671+65.6653+67.4116+67.8716+66.5546C68.1317+66.4581+68.2855+66.1882+68.2575+65.9184C68.1135+64.4252+66.4357+60.3873+65.5493+59.375C65.429+59.2422+65.2585+59.1709+65.0879+59.1709C64.9984+59.1709+64.9089+59.1905+64.8264+59.2296C63.9875+59.6183+63.2046+59.814+62.4719+59.814C61.3716+59.814+60.3845+59.3736+59.4869+58.4886C57.9839+57.0051+57.7434+55.2323+58.7263+53.0833C58.8605+52.7939+58.7654+52.4569+58.4956+52.2934C56.5004+51.0602+54.3514+50.1737+52.0976+49.6536C52.0501+49.6383+52.0011+49.6327+51.9522+49.6327L51.9522+49.6327ZM47.0698+74.6862C44.9404+74.6862+43.2151+72.9609+43.2151+70.8315C43.2151+68.7021+44.9404+66.9768+47.0698+66.9768C49.1992+66.9768+50.9246+68.7021+50.9246+70.8315C50.9246+72.9609+49.1992+74.6862+47.0698+74.6862L47.0698+74.6862Z" opacity="1" fill="#472b29"/>
<path d="M47.0698+58.6494C40.3531+58.6494+34.8877+64.1134+34.8877+70.8315C34.8877+77.5497+40.3517+83.0137+47.0698+83.0137C53.788+83.0137+59.252+77.5497+59.252+70.8315C59.252+64.1134+53.7866+58.6494+47.0698+58.6494ZM47.0698+78.6626C42.7537+78.6626+39.2388+75.1476+39.2388+70.8315C39.2388+66.5154+42.7537+63.0004+47.0698+63.0004C51.386+63.0004+54.9009+66.5154+54.9009+70.8315C54.9009+75.1476+51.3846+78.6626+47.0698+78.6626Z" opacity="1" fill="#7777ab"/>
<path d="M47.7661+83.3422C47.5816+83.3422+47.4278+83.1982+47.4166+83.0137C47.4054+82.8193+47.5536+82.6543+47.7452+82.6432C50.006+82.5145+52.1703+81.7427+54.0075+80.4103C54.1613+80.297+54.3808+80.3306+54.4955+80.4886C54.6087+80.6438+54.5751+80.8633+54.4172+80.9765C52.4723+82.3887+50.1807+83.2066+47.7871+83.3422C47.7801+83.3422+47.7731+83.3422+47.7661+83.3422ZM45.9723+83.3143C45.9625+83.3143+45.9513+83.3143+45.9415+83.3129C40.5097+82.8235+36.051+78.9199+34.8458+73.5999C34.8038+73.4111+34.9227+73.2238+35.1086+73.1804C35.3113+73.1399+35.4861+73.2573+35.5281+73.4447C36.6648+78.4697+40.8746+82.1538+46.003+82.6166C46.196+82.6348+46.3372+82.8039+46.3204+82.9955C46.3036+83.1773+46.1513+83.3143+45.9723+83.3143ZM55.9216+79.542C55.8349+79.542+55.7496+79.5113+55.6811+79.447C55.5399+79.3141+55.5357+79.0932+55.6671+78.952C56.3997+78.176+57.0289+77.3022+57.5309+76.357C57.6203+76.1851+57.8357+76.1249+58.0034+76.2116C58.174+76.3011+58.2383+76.5136+58.1488+76.6842C57.6161+77.6867+56.9534+78.6109+56.176+79.433C56.1075+79.5043+56.0138+79.542+55.9216+79.542ZM47.0698+79.0121C42.558+79.0121+38.8878+75.342+38.8878+70.8315C38.8878+66.3197+42.558+62.6495+47.0698+62.6495C51.5803+62.6495+55.2505+66.3197+55.2505+70.8315C55.2505+75.342+51.5803+79.0121+47.0698+79.0121ZM47.0698+63.35C42.9439+63.35+39.5869+66.7056+39.5869+70.8329C39.5869+74.9575+42.9425+78.3145+47.0698+78.3145C51.1944+78.3145+54.5514+74.9589+54.5514+70.8329C54.5514+66.7056+51.1944+63.35+47.0698+63.35ZM58.7151+74.7589C58.6815+74.7589+58.6466+74.7534+58.613+74.7436C58.4285+74.6862+58.325+74.4905+58.3809+74.3059C58.7263+73.1846+58.901+72.0144+58.901+70.8315C58.901+66.6482+56.6514+62.7334+53.0302+60.6124C52.8638+60.5159+52.8079+60.3006+52.9044+60.1342C53.0022+59.965+53.2175+59.9105+53.3825+60.0084C57.2177+62.2524+59.6001+66.3994+59.6001+70.8301C59.6001+72.0829+59.4142+73.3216+59.0493+74.5101C59.0031+74.6611+58.8647+74.7589+58.7151+74.7589ZM34.8877+71.1811C34.6948+71.1811+34.5382+71.0245+34.5382+70.8315C34.5382+63.9218+40.1602+58.2998+47.0698+58.2998C47.8724+58.2998+48.6791+58.3781+49.4705+58.5305C49.6592+58.5669+49.7837+58.75+49.7459+58.9402C49.7096+59.1289+49.5334+59.2618+49.3363+59.2156C48.591+59.0716+47.8276+58.9989+47.0698+58.9989C40.546+58.9989+35.2372+64.3077+35.2372+70.8315C35.2372+71.0245+35.0806+71.1811+34.8877+71.1811ZM52.0305+60.0559C51.983+60.0559+51.934+60.0461+51.8865+60.0266C51.488+59.8462+51.0728+59.6882+50.6547+59.5554C50.4716+59.4967+50.3695+59.2995+50.4282+59.1164C50.4869+58.9332+50.6827+58.8311+50.8672+58.8899C51.3091+59.0311+51.7495+59.1989+52.1731+59.3876C52.3493+59.4673+52.4276+59.6742+52.3493+59.8504C52.2906+59.979+52.1647+60.0559+52.0305+60.0559Z" opacity="1" fill="#472b29"/>
<path d="M59.1821+71.5837C59.1583+71.5837+59.1345+71.5809+59.1094+71.5767L54.7919+70.6679C54.6031+70.6274+54.4815+70.4428+54.522+70.2527C54.5626+70.0639+54.7401+69.9507+54.9373+69.9828L59.2548+70.8916C59.4435+70.9322+59.5652+71.1167+59.5246+71.3069C59.4897+71.4705+59.3443+71.5837+59.1821+71.5837ZM54.4955+68.614C54.3025+68.614+54.1459+68.4588+54.1459+68.2659C54.1459+68.0716+54.3011+67.915+54.4941+67.915L58.9052+67.8996L58.9066+67.8996C59.0996+67.8996+59.2562+68.0548+59.2562+68.2477C59.2562+68.4421+59.101+68.5987+58.908+68.5987L54.4955+68.614L54.4955+68.614ZM83.3772+42.9033C83.3436+42.9033+83.3073+42.8977+83.2723+42.8866L79.2484+41.6198C79.0639+41.5625+78.9618+41.3654+79.0205+41.1822C79.0779+40.999+79.2694+40.8956+79.4582+40.9543L83.482+42.221C83.6666+42.2784+83.7687+42.4755+83.7099+42.6587C83.6638+42.8083+83.5254+42.9033+83.3772+42.9033ZM74.4821+48.1968C74.4192+48.1968+74.3549+48.18+74.299+48.145C74.134+48.0444+74.0836+47.8276+74.1843+47.6641L76.68+43.6192C76.7821+43.4528+77.0002+43.4025+77.161+43.5045C77.326+43.6052+77.3763+43.8219+77.2756+43.9855L74.7799+48.0304C74.7128+48.138+74.5996+48.1968+74.4821+48.1968ZM71.8662+46.326C71.7599+46.326+71.655+46.2771+71.5865+46.1848C71.4705+46.0296+71.5026+45.8101+71.6578+45.6955L75.0987+43.1382C75.2553+43.025+75.4734+43.0557+75.5881+43.2109C75.7041+43.3661+75.6719+43.5856+75.5167+43.7003L72.0759+46.2575C72.013+46.3036+71.9389+46.326+71.8662+46.326ZM74.5031+40.0273C74.3395+40.0273+74.1941+39.9127+74.1605+39.7477L73.235+35.1799C73.1972+34.9898+73.3202+34.8052+73.5076+34.7675C73.6949+34.7311+73.8809+34.8527+73.9201+35.0401L74.8456+39.6079C74.8834+39.798+74.7603+39.9826+74.573+40.0203C74.5492+40.0245+74.5268+40.0273+74.5031+40.0273ZM76.2578+38.9116C76.2466+38.9116+76.234+38.9116+76.2228+38.9102C76.0313+38.8906+75.8914+38.7186+75.9096+38.5271L76.3291+34.3508C76.35+34.1593+76.4955+34.0194+76.7122+34.0376C76.9037+34.0572+77.0435+34.2292+77.0254+34.4207L76.6059+38.597C76.5863+38.7774+76.4353+38.9116+76.2578+38.9116ZM46.6364+63.3807C46.6112+63.3807+46.5861+63.3779+46.5595+63.3724C46.3708+63.329+46.2519+63.1417+46.2953+62.9543L47.2684+58.6508C47.3103+58.4634+47.4921+58.3404+47.6864+58.3865C47.8752+58.4299+47.994+58.6172+47.9507+58.8046L46.9776+63.1081C46.9412+63.2703+46.7972+63.3807+46.6364+63.3807ZM42.3441+64.73C42.1707+64.73+42.0211+64.6013+41.9973+64.4266L41.4157+60.0531C41.3905+59.8616+41.5248+59.6854+41.7163+59.6602C41.9232+59.6407+42.084+59.7693+42.1092+59.9608L42.6908+64.3343C42.716+64.5258+42.5818+64.702+42.3902+64.7272C42.3748+64.7286+42.3594+64.73+42.3441+64.73ZM44.4525+63.7303C44.4511+63.7303+44.4511+63.7303+44.4497+63.7303C44.2568+63.7289+44.1016+63.5723+44.103+63.3779L44.1337+58.9668C44.1351+58.7738+44.2903+58.62+44.4833+58.62C44.4847+58.62+44.4847+58.62+44.486+58.62C44.679+58.6214+44.8342+58.778+44.8328+58.9724L44.802+63.3835C44.8006+63.5765+44.6454+63.7303+44.4525+63.7303ZM53.328+66.4231C53.1504+66.4231+52.9994+66.2889+52.9799+66.1099C52.9603+65.917+53.1001+65.745+53.2916+65.7255L57.6805+65.2641C57.879+65.2445+58.0454+65.3843+58.0649+65.5759C58.0845+65.7688+57.9447+65.9408+57.7532+65.9603L53.3643+66.4217C53.3518+66.4231+53.3392+66.4231+53.328+66.4231ZM43.6681+82.7983C43.6108+82.7983+43.5521+82.7844+43.4989+82.755C43.3298+82.6627+43.2697+82.4488+43.3619+82.2796L45.4969+78.4193C45.5906+78.2515+45.8059+78.1886+45.9723+78.2823C46.1415+78.3746+46.2016+78.5885+46.1093+78.7577L43.9743+82.618C43.91+82.7326+43.7912+82.7983+43.6681+82.7983ZM40.4118+81.1751C40.3028+81.1751+40.1951+81.1234+40.1266+81.0283C40.0147+80.8703+40.0525+80.6508+40.2105+80.5403L43.8135+77.9957C43.9715+77.8838+44.191+77.923+44.3015+78.0796C44.4133+78.2376+44.3756+78.4571+44.2176+78.5675L40.6146+81.1122C40.553+81.1541+40.4817+81.1751+40.4118+81.1751ZM38.0363+79.2428C37.9077+79.2428+37.7833+79.1715+37.7218+79.0471C37.6365+78.8751+37.7078+78.6654+37.8812+78.5787L41.8365+76.6255C42.0071+76.5402+42.2182+76.6101+42.3049+76.7849C42.3902+76.9568+42.3189+77.1666+42.1455+77.2533L38.1901+79.2065C38.1412+79.2317+38.0881+79.2428+38.0363+79.2428Z" opacity="1" fill="#472b29"/>
<path d="M36.4984+77.0855C36.353+77.0855+36.216+76.9932+36.167+76.8464C36.1055+76.6632+36.2048+76.4661+36.3879+76.4046L40.574+75.0092C40.7558+74.9505+40.9543+75.047+41.0158+75.2301C41.0773+75.4133+40.9781+75.6104+40.7949+75.6719L36.6088+77.0673C36.5725+77.0799+36.5361+77.0855+36.4984+77.0855Z" opacity="1" fill="#472b29"/>
<path d="M76.6534+48.5575C72.6212+48.5575+69.3425+45.2774+69.3425+41.2465C69.3425+41.0536+69.4991+40.897+69.692+40.897C69.885+40.897+70.0416+41.0536+70.0416+41.2465C70.0416+44.8915+73.0085+47.8584+76.6534+47.8584C77.6951+47.8584+78.692+47.6221+79.6189+47.1537C79.7909+47.0712+80.0006+47.1356+80.0887+47.3089C80.1754+47.4809+80.1069+47.6906+79.9335+47.7787C78.9227+48.289+77.7901+48.5575+76.6534+48.5575ZM81.4184+46.6658C81.3261+46.6658+81.2324+46.6294+81.1625+46.5553C81.0311+46.4141+81.0381+46.1932+81.1793+46.0604C82.5033+44.8146+83.2639+43.0599+83.2639+41.2479C83.2639+39.6428+82.6767+38.0909+81.6113+36.8815C81.4827+36.7361+81.4981+36.5152+81.6421+36.3879C81.7847+36.2593+82.007+36.2733+82.1356+36.4187C83.3143+37.7553+83.963+39.4709+83.963+41.2465C83.963+43.2515+83.1227+45.1907+81.6575+46.5707C81.5903+46.6336+81.505+46.6658+81.4184+46.6658ZM76.6534+44.7992C74.6946+44.7992+73.1007+43.2053+73.1007+41.2479C73.1007+39.2891+74.6946+37.6952+76.6534+37.6952C78.6109+37.6952+80.2048+39.2891+80.2048+41.2479C80.2048+43.2053+78.6123+44.7992+76.6534+44.7992ZM76.6534+38.3943C75.0805+38.3943+73.7998+39.675+73.7998+41.2479C73.7998+42.8208+75.0805+44.1002+76.6534+44.1002C78.2264+44.1002+79.5057+42.8208+79.5057+41.2479C79.5057+39.675+78.2264+38.3943+76.6534+38.3943ZM70.7281+37.9483C70.6651+37.9483+70.6008+37.9315+70.5435+37.8965C70.3799+37.7945+70.3296+37.5792+70.4303+37.4142C71.7767+35.2372+74.1032+33.9384+76.6534+33.9384C77.2644+33.9384+77.8712+34.0152+78.4613+34.1649C78.6486+34.2124+78.7619+34.4025+78.7143+34.5899C78.6682+34.7772+78.4752+34.8877+78.2893+34.843C77.7552+34.7059+77.2057+34.6388+76.6534+34.6388C74.3479+34.6388+72.2437+35.8147+71.0259+37.7847C70.9588+37.8895+70.8455+37.9483+70.7281+37.9483ZM80.9192+36.1013C80.8437+36.1013+80.7696+36.0761+80.7053+36.0272C80.3432+35.7462+79.9573+35.5043+79.556+35.3071C79.3826+35.2219+79.3099+35.0135+79.3952+34.8402C79.4791+34.6654+79.6888+34.5913+79.8622+34.6794C80.3068+34.8961+80.7361+35.1659+81.1345+35.4749C81.2869+35.5938+81.3149+35.8133+81.1961+35.9657C81.1262+36.0552+81.0227+36.1013+80.9192+36.1013Z" opacity="1" fill="#472b29"/>
</g>
</g>
</svg>
