<?xml version="1.0" encoding="UTF-8" standalone="no"?> <!-- Created with Vectornator for iOS (http://vectornator.io/) --><!DOCTYPE svg PUBLIC "-//W3C//DTD SVG 1.1//EN" "http://www.w3.org/Graphics/SVG/1.1/DTD/svg11.dtd">
<svg style="fill-rule:evenodd;clip-rule:evenodd;stroke-linecap:round;stroke-linejoin:round;" xmlns:vectornator="http://vectornator.io" xmlns:xlink="http://www.w3.org/1999/xlink" xmlns="http://www.w3.org/2000/svg" xml:space="preserve" version="1.1" viewBox="0 0 120 120">
<metadata>
<vectornator:setting key="DimensionsVisible" value="1"/>
<vectornator:setting key="SnapToGrid" value="0"/>
<vectornator:setting key="SnapToPoints" value="0"/>
<vectornator:setting key="GuidesVisible" value="1"/>
<vectornator:setting key="RulersVisible" value="1"/>
<vectornator:setting key="CMYKEnabledKey" value="0"/>
<vectornator:setting key="SnapToEdges" value="0"/>
<vectornator:setting key="DisplayWhiteBackground" value="0"/>
<vectornator:setting key="SnapToGuides" value="1"/>
<vectornator:setting key="GridSpacing" value="36"/>
<vectornator:setting key="Units" value="Pixels"/>
<vectornator:setting key="DynamicGuides" value="0"/>
<vectornator:setting key="New" value="1"/>
</metadata>
<defs/>
<g id="Layer 1" vectornator:layerName="Layer 1">
<g opacity="1">
<path d="M113.349+69.4188C113.763+68.5695+114.13+67.6762+114.447+66.7401C118.077+56.0283+112.587+43.1962+101.029+40.0985C99.7798+24.4044+88.7509+13.6389+76.2952+11.8012C62.039+9.6988+48.9794+18.7549+44.634+33.1489C39.3967+31.2933+34.2931+31.5194+29.4831+34.3304C27.3008+35.3395+25.3046+36.8284+23.5137+38.7874C20.8847+41.6632+19.1753+45.2931+18.4791+49.1201C17.4479+49.2828+16.4346+49.4455+15.4792+49.7874C9.90963+51.785+6.39556+55.896+5.43191+62.0887C4.83221+65.9447+6.04263+69.791+6.71815+71.3447C9.38576+77.4864+15.5716+80.9674+21.8567+80.0464C22.1696+80.001+22.6245+80.1416+22.8934+80.3677C23.2256+90.1834+27.9915+98.8645+35.1409+103.823C46.6123+111.781+61.3717+109.329+70.6828+98.4178C74.6725+102.498+79.4205+104.481+84.9983+103.761C90.5445+103.046+94.8512+99.9853+97.9931+95.0085C99.4448+95.3986+100.821+95.9611+102.243+96.1169C107.816+96.7262+112.34+94.5108+115.66+89.4996C116.931+87.5819+118.133+85.0963+118.133+80.7399C118.133+76.2525+116.349+72.1622+113.349+69.4188Z" opacity="1" fill="#c7ede6"/>
<path d="M41.841+90.5404C41.841+90.5404+56.053+90.5404+56.1385+90.5404C59.421+90.5404+62.0803+87.8797+62.0803+84.5972C62.0803+81.7339+60.0551+79.3447+57.3586+78.7809C57.3903+78.53+57.411+78.2763+57.411+78.0171C57.411+74.6175+54.6551+71.8616+51.2569+71.8616C49.2496+71.8616+47.4726+72.8267+46.349+74.3128C46.0623+70.5285+42.6819+67.61+38.7281+68.0939C35.8371+68.4482+33.4452+70.6829+32.9131+73.5463C32.7421+74.4645+32.7601+75.3564+32.9296+76.1932C32.1549+75.3578+31.0506+74.8325+29.8223+74.8325C27.5724+74.8325+25.7374+76.5834+25.5913+78.796C24.5698+78.5699+23.4586+78.5851+22.2882+79.0235C20.0521+79.8631+18.4584+81.9696+18.366+84.356C18.2337+87.746+20.9426+90.5363+24.3037+90.5363C24.5587+90.5363+25.4562+90.5363+25.663+90.5363L38.0029+90.5363" opacity="1" fill="#fdfcef"/>
<path d="M56.1399+91.2311L41.841+91.2311C41.4605+91.2311+41.1517+90.9223+41.1517+90.5418C41.1517+90.1613+41.4605+89.8525+41.841+89.8525L56.1399+89.8525C59.0364+89.8525+61.3924+87.4965+61.3924+84.5986C61.3924+82.124+59.6388+79.9624+57.2207+79.4578C56.8706+79.3847+56.6334+79.0552+56.6776+78.6982C56.7051+78.4762+56.723+78.2501+56.723+78.0199C56.723+75.0049+54.2719+72.5537+51.2582+72.5537C49.535+72.5537+47.9468+73.3478+46.9018+74.7319C46.7281+74.9608+46.4304+75.0559+46.1574+74.9773C45.883+74.896+45.6859+74.6547+45.6638+74.3693C45.5384+72.7164+44.7292+71.1655+43.4443+70.1108C42.147+69.0465+40.5065+68.5778+38.8149+68.7805C36.2162+69.0989+34.0697+71.1117+33.5927+73.6759C33.4452+74.4769+33.4494+75.2792+33.6093+76.0595C33.67+76.3628+33.5238+76.6689+33.2481+76.8109C32.9738+76.9542+32.6374+76.8922+32.4278+76.6661C31.7454+75.9313+30.8217+75.526+29.825+75.526C27.9598+75.526+26.4047+76.9846+26.282+78.8471C26.2682+79.0483+26.1689+79.2317+26.0076+79.353C25.8477+79.4729+25.6423+79.5143+25.4452+79.4743C24.4388+79.2496+23.4862+79.3158+22.5349+79.6742C20.5373+80.4242+19.1394+82.3184+19.0595+84.3891C19.0016+85.8338+19.5213+87.2014+20.5208+88.2409C21.5217+89.2818+22.8658+89.8539+24.3078+89.8539L38.0071+89.8539C38.3876+89.8539+38.6964+90.1627+38.6964+90.5432C38.6964+90.9237+38.3876+91.2325+38.0071+91.2325L24.3078+91.2325C22.4881+91.2325+20.7896+90.5101+19.5268+89.1963C18.2654+87.8838+17.6092+86.1578+17.6808+84.3353C17.7829+81.7187+19.5392+79.3254+22.0497+78.3852C23.0133+78.0227+24.01+77.8986+25.0137+78.0089C25.5072+75.7934+27.4924+74.1488+29.825+74.1488C30.6246+74.1488+31.4077+74.3473+32.1066+74.714C32.1149+74.2852+32.1576+73.8565+32.2376+73.4264C32.8221+70.2762+35.458+67.8044+38.6467+67.4143C40.716+67.162+42.726+67.741+44.3169+69.0465C45.5163+70.0295+46.378+71.3681+46.7888+72.8432C48.0199+71.7734+49.5874+71.1779+51.2582+71.1779C55.0315+71.1779+58.1017+74.2494+58.1017+78.0227C58.1017+78.104+58.1003+78.1839+58.0961+78.2653C60.8382+79.1118+62.771+81.6842+62.771+84.6028C62.771+88.2547+59.796+91.2311+56.1399+91.2311Z" opacity="1" fill="#472b29"/>
<path d="M58.5456+79.4785C56.4804+78.5052+54.0913+79.1945+53.2104+81.0184C53.1014+81.2445+53.0201+81.4788+52.9663+81.7159" opacity="1" fill="#fdfcef"/>
<path d="M52.9663+82.0606C52.9401+82.0606+52.9153+82.0578+52.8891+82.0523C52.703+82.0096+52.5872+81.8249+52.63+81.6387C52.6906+81.3727+52.7816+81.1135+52.8988+80.8681C53.8611+78.8774+56.457+78.1136+58.6917+79.1655C58.864+79.2482+58.9385+79.4523+58.8571+79.6246C58.7758+79.7983+58.5676+79.8686+58.3981+79.79C56.5052+78.8994+54.3174+79.5143+53.5205+81.1673C53.4254+81.3672+53.351+81.5767+53.3027+81.7918C53.2669+81.9517+53.1249+82.0606+52.9663+82.0606Z" opacity="1" fill="#472b29"/>
<path d="M16.3836+58.4395L2.55613+58.4395C2.17563+58.4395+1.86682+58.1307+1.86682+57.7502C1.86682+57.3697+2.17563+57.0609+2.55613+57.0609L16.3836+57.0609C16.7641+57.0609+17.0729+57.3697+17.0729+57.7502C17.0729+58.1307+16.7655+58.4395+16.3836+58.4395ZM20.3567+58.4395L18.3633+58.4395C17.9828+58.4395+17.674+58.1307+17.674+57.7502C17.674+57.3697+17.9828+57.0609+18.3633+57.0609L20.3567+57.0609C20.7372+57.0609+21.046+57.3697+21.046+57.7502C21.046+58.1307+20.7372+58.4395+20.3567+58.4395ZM25.9456+58.4395L22.437+58.4395C22.0565+58.4395+21.7477+58.1307+21.7477+57.7502C21.7477+57.3697+22.0565+57.0609+22.437+57.0609L25.9456+57.0609C26.3261+57.0609+26.6349+57.3697+26.6349+57.7502C26.6349+58.1307+26.3261+58.4395+25.9456+58.4395ZM25.9456+61.0106L12.6889+61.0106C12.3084+61.0106+11.9996+60.7018+11.9996+60.3213C11.9996+59.9408+12.3084+59.632+12.6889+59.632L25.9456+59.632C26.3261+59.632+26.6349+59.9408+26.6349+60.3213C26.6349+60.7018+26.3261+61.0106+25.9456+61.0106ZM10.3012+61.0106L9.50156+61.0106C9.12106+61.0106+8.81225+60.7018+8.81225+60.3213C8.81225+59.9408+9.12106+59.632+9.50156+59.632L10.3012+59.632C10.6816+59.632+10.9905+59.9408+10.9905+60.3213C10.9905+60.7018+10.6816+61.0106+10.3012+61.0106ZM7.0242+61.0106L5.01695+61.0106C4.63645+61.0106+4.32764+60.7018+4.32764+60.3213C4.32764+59.9408+4.63645+59.632+5.01695+59.632L7.0242+59.632C7.4047+59.632+7.7135+59.9408+7.7135+60.3213C7.7135+60.7018+7.40469+61.0106+7.0242+61.0106ZM19.6192+55.8684L12.6889+55.8684C12.3084+55.8684+11.9996+55.5596+11.9996+55.1791C11.9996+54.7986+12.3084+54.4898+12.6889+54.4898L19.6192+54.4898C19.9997+54.4898+20.3085+54.7986+20.3085+55.1791C20.3085+55.5596+19.9997+55.8684+19.6192+55.8684ZM19.6192+53.2973L17.8863+53.2973C17.5058+53.2973+17.197+52.9885+17.197+52.608C17.197+52.2275+17.5058+51.9187+17.8863+51.9187L19.6192+51.9187C19.9997+51.9187+20.3085+52.2275+20.3085+52.608C20.3085+52.9885+19.9997+53.2973+19.6192+53.2973ZM15.1125+63.5817L12.6875+63.5817C12.307+63.5817+11.9982+63.2729+11.9982+62.8924C11.9982+62.5119+12.307+62.2031+12.6875+62.2031L15.1125+62.2031C15.493+62.2031+15.8018+62.5119+15.8018+62.8924C15.8018+63.2729+15.4944+63.5817+15.1125+63.5817ZM89.6966+22.2138L75.8678+22.2138C75.4873+22.2138+75.1785+21.905+75.1785+21.5245C75.1785+21.144+75.4873+20.8352+75.8678+20.8352L89.6966+20.8352C90.0771+20.8352+90.3859+21.144+90.3859+21.5245C90.3859+21.905+90.0771+22.2138+89.6966+22.2138ZM93.6684+22.2138L91.6749+22.2138C91.2944+22.2138+90.9856+21.905+90.9856+21.5245C90.9856+21.144+91.2944+20.8352+91.6749+20.8352L93.6684+20.8352C94.0489+20.8352+94.3577+21.144+94.3577+21.5245C94.3577+21.905+94.0489+22.2138+93.6684+22.2138ZM99.2573+22.2138L95.7473+22.2138C95.3668+22.2138+95.058+21.905+95.058+21.5245C95.058+21.144+95.3668+20.8352+95.7473+20.8352L99.2573+20.8352C99.6378+20.8352+99.9466+21.144+99.9466+21.5245C99.9466+21.905+99.6391+22.2138+99.2573+22.2138ZM96.4642+17.073L83.2075+17.073C82.827+17.073+82.5182+16.7642+82.5182+16.3837C82.5182+16.0032+82.827+15.6944+83.2075+15.6944L96.4642+15.6944C96.8447+15.6944+97.1535+16.0032+97.1535+16.3837C97.1535+16.7642+96.8447+17.073+96.4642+17.073ZM80.8198+17.073L80.0202+17.073C79.6397+17.073+79.3309+16.7642+79.3309+16.3837C79.3309+16.0032+79.6397+15.6944+80.0202+15.6944L80.8198+15.6944C81.2002+15.6944+81.5091+16.0032+81.5091+16.3837C81.5091+16.7642+81.2016+17.073+80.8198+17.073ZM77.5428+17.073L75.5355+17.073C75.155+17.073+74.8462+16.7642+74.8462+16.3837C74.8462+16.0032+75.155+15.6944+75.5355+15.6944L77.5428+15.6944C77.9233+15.6944+78.2321+16.0032+78.2321+16.3837C78.2321+16.7642+77.9247+17.073+77.5428+17.073ZM92.9322+19.6427L86.0019+19.6427C85.6214+19.6427+85.3126+19.3339+85.3126+18.9534C85.3126+18.5729+85.6214+18.2641+86.0019+18.2641L92.9322+18.2641C93.3127+18.2641+93.6215+18.5729+93.6215+18.9534C93.6215+19.3339+93.3127+19.6427+92.9322+19.6427Z" opacity="1" fill="#ffffff"/>
<path d="M92.9322+17.073L91.1979+17.073C90.8174+17.073+90.5086+16.7642+90.5086+16.3837C90.5086+16.0032+90.8174+15.6944+91.1979+15.6944L92.9322+15.6944C93.3127+15.6944+93.6215+16.0032+93.6215+16.3837C93.6215+16.7642+93.3127+17.073+92.9322+17.073ZM83.9933+19.6427L81.5683+19.6427C81.1878+19.6427+80.879+19.3339+80.879+18.9534C80.879+18.5729+81.1878+18.2641+81.5683+18.2641L83.9933+18.2641C84.3738+18.2641+84.6826+18.5729+84.6826+18.9534C84.6826+19.3339+84.3738+19.6427+83.9933+19.6427Z" opacity="1" fill="#ffffff"/>
<path d="M97.0322+63.7347C99.6281+63.7347+101.881+63.7347+101.912+63.7347C104.821+63.7347+107.18+61.427+107.18+58.5801C107.18+56.0959+105.385+54.0238+102.996+53.5344C103.024+53.3166+103.043+53.0974+103.043+52.8727C103.043+49.9238+100.6+47.5333+97.5878+47.5333C95.8094+47.5333+94.2336+48.3701+93.2383+49.6605C92.9832+46.3781+89.9875+43.8456+86.4831+44.266C83.9202+44.5735+81.7999+46.5118+81.3285+48.996C81.1768+49.7929+81.1934+50.5663+81.3436+51.2914C80.6571+50.5677+79.6783+50.1113+78.5892+50.1113C76.5957+50.1113+74.9676+51.6306+74.8393+53.5496C73.9336+53.3538+72.9493+53.3662+71.9126+53.7467C69.9301+54.4746+68.5184+56.3013+68.4357+58.3733C68.3185+61.3139+70.7201+63.7347+73.6992+63.7347C73.9253+63.7347+74.7208+63.7347+74.9041+63.7347L85.842+63.7347M88.1029+63.7347L88.5992+63.7347" opacity="1" fill="#fdfcef"/>
<path d="M101.912+64.4227L97.0322+64.4227C96.6517+64.4227+96.3429+64.1139+96.3429+63.7334C96.3429+63.3529+96.6517+63.0441+97.0322+63.0441L101.912+63.0441C104.437+63.0441+106.489+61.0409+106.489+58.5787C106.489+56.4777+104.962+54.6401+102.855+54.2099C102.503+54.1369+102.264+53.8032+102.31+53.4448C102.334+53.2559+102.351+53.0671+102.351+52.8713C102.351+50.3071+100.213+48.2213+97.585+48.2213C96.0782+48.2213+94.6913+48.8982+93.7801+50.081C93.6064+50.3071+93.31+50.3995+93.0384+50.3209C92.7654+50.2382+92.5696+49.9983+92.549+49.7143C92.44+48.3081+91.77+47.0357+90.6616+46.1244C89.5188+45.1869+88.0643+44.7747+86.5617+44.9471C84.2925+45.2187+82.4176+46.935+82.0012+49.1229C81.8716+49.8025+81.8771+50.4836+82.015+51.1494C82.0784+51.4513+81.9323+51.7574+81.6593+51.9008C81.3891+52.0428+81.0527+51.9862+80.8404+51.7643C80.249+51.1412+79.448+50.7993+78.585+50.7993C76.9734+50.7993+75.6265+52.0276+75.5218+53.5937C75.508+53.795+75.4087+53.9783+75.2488+54.0983C75.0889+54.2196+74.8848+54.2651+74.6877+54.221C73.8095+54.0307+72.9782+54.0845+72.1442+54.3933C70.4044+55.033+69.1884+56.6418+69.1209+58.3982C69.0726+59.6044+69.5096+60.7514+70.3534+61.6296C71.2288+62.5409+72.4158+63.0427+73.6951+63.0427L85.8379+63.0427C86.2184+63.0427+86.5272+63.3515+86.5272+63.732C86.5272+64.1125+86.2184+64.4213+85.8379+64.4213L73.6951+64.4213C72.0601+64.4213+70.4802+63.7527+69.358+62.585C68.2524+61.4338+67.6789+59.927+67.7423+58.343C67.8333+56.0352+69.4131+53.9287+71.6699+53.0974C72.5123+52.7886+73.3766+52.6728+74.2631+52.761C74.7387+50.8365+76.5102+49.4193+78.5864+49.4193C79.2757+49.4193+79.9361+49.5709+80.5344+49.8577C80.5468+49.5268+80.584+49.1959+80.6474+48.8637C81.1741+46.0927+83.5398+43.9186+86.3976+43.5767C88.2767+43.3465+90.1005+43.8759+91.5357+45.056C92.5669+45.9011+93.2975+46.9971+93.667+48.2282C94.7575+47.3348+96.1278+46.8399+97.5864+46.8399C100.975+46.8399+103.731+49.5447+103.731+52.8686C103.731+52.9154+103.729+52.9623+103.728+53.0105C106.161+53.7757+107.868+56.0269+107.868+58.576C107.868+61.8019+105.196+64.4227+101.912+64.4227ZM88.5979+64.4227L88.1029+64.4227C87.7224+64.4227+87.4136+64.1139+87.4136+63.7334C87.4136+63.3529+87.7224+63.0441+88.1029+63.0441L88.5979+63.0441C88.9784+63.0441+89.2872+63.3529+89.2872+63.7334C89.2872+64.1139+88.9784+64.4227+88.5979+64.4227Z" opacity="1" fill="#472b29"/>
<path d="M99.5592+56.424C99.5344+56.424+99.5096+56.4212+99.4834+56.4157C99.2972+56.3744+99.1801+56.1896+99.2228+56.0035C99.2738+55.7733+99.3538+55.5499+99.4572+55.3418C100.29+53.6544+102.594+53.034+104.587+53.9563C104.761+54.0362+104.836+54.2403+104.755+54.4126C104.675+54.5863+104.467+54.6607+104.299+54.5808C102.636+53.8129+100.743+54.294+100.075+55.6464C99.9962+55.8064+99.9355+55.9759+99.8969+56.1538C99.8597+56.3137+99.7177+56.424+99.5592+56.424ZM92.4469+64.4227L90.9208+64.4227C90.5403+64.4227+90.2315+64.1139+90.2315+63.7334C90.2315+63.3529+90.5403+63.0441+90.9208+63.0441L92.4469+63.0441C92.8274+63.0441+93.1362+63.3529+93.1362+63.7334C93.1362+64.1139+92.8274+64.4227+92.4469+64.4227Z" opacity="1" fill="#472b29"/>
<path d="M81.5918+72.3676L43.0597+74.4066L39.5249+49.6371L86.5396+49.8232L81.5918+72.3676Z" opacity="1" fill="#ef8f70"/>
<path d="M43.061+75.3716C42.5827+75.3716+42.1732+75.02+42.1057+74.5417L38.5709+49.7736C38.5323+49.4965+38.615+49.2152+38.7984+49.0029C38.9831+48.7934+39.2478+48.6721+39.5263+48.6721C39.5277+48.6721+39.529+48.6721+39.5304+48.6721L86.5465+48.8582C86.8374+48.8596+87.1131+48.9933+87.2951+49.2208C87.4784+49.4482+87.5487+49.746+87.4853+50.0314L82.5361+72.5758C82.4438+73.0004+82.0784+73.3092+81.6455+73.3326L43.1148+75.3716C43.0941+75.3702+43.0762+75.3716+43.061+75.3716ZM40.6388+50.6076L43.891+73.396L80.806+71.4425L85.3416+50.7841L40.6388+50.6076ZM81.5918+72.3676L81.6056+72.3676L81.5918+72.3676Z" opacity="1" fill="#472b29"/>
<path d="M51.5147+50.6504C51.5147+50.6504+51.5119+50.6504+51.5105+50.6504L39.5221+50.6035C39.0451+50.6007+38.6398+50.2506+38.5723+49.7777L37.9671+45.6584C37.3853+39.6422+34.3165+39.3554+34.1856+39.3458C33.6603+39.3086+33.2536+38.8564+33.2826+38.3311C33.3101+37.8169+33.7265+37.4171+34.2366+37.4171C34.2476+37.4171+34.26+37.4171+34.271+37.4185C34.4695+37.4254+39.1348+37.6846+39.8806+45.4268L40.3603+48.6776L50.5469+48.7162L50.5345+46.0334C50.6599+43.1025+50.074+40.9601+48.7919+39.6229C47.4684+38.2415+45.81+38.2029+45.7934+38.2029L34.6915+37.3633C34.1594+37.3234+33.7609+36.8588+33.8009+36.328C33.8409+35.7959+34.3055+35.4057+34.8363+35.4374L45.8651+36.2742C45.9409+36.2742+48.2777+36.2963+50.1857+38.2884C51.8441+40.0213+52.6107+42.6393+52.4618+46.072L52.4797+49.6826C52.4811+49.9404+52.379+50.1872+52.1971+50.3691C52.0165+50.5484+51.7697+50.6504+51.5147+50.6504Z" opacity="1" fill="#472b29"/>
<path d="M34.8707+35.3657L30.8934+35.3657C30.0676+35.3685+29.3907+36.0192+29.4721+36.8133L29.4721+37.7755C29.5658+38.5545+30.1283+38.8247+30.8934+38.8247L34.8707+38.8247L34.8707+35.3657Z" opacity="1" fill="#ef9922"/>
<path d="M34.8707+39.343L30.8934+39.343C29.3687+39.343+29.0268+38.4+28.9592+37.839L28.9551+36.8133C28.9069+36.3652+29.0668+35.88+29.4073+35.5008C29.7781+35.0886+30.3186+34.8515+30.8907+34.8488L34.8707+34.8488C35.1561+34.8488+35.3877+35.0804+35.3877+35.3657L35.3877+38.826C35.3877+39.1114+35.1561+39.343+34.8707+39.343ZM30.8948+35.8827C30.615+35.8841+30.353+35.9971+30.1779+36.1915C30.0759+36.3046+29.9601+36.4962+29.9863+36.7609L29.9891+37.7769C30.0194+38.0016+30.1228+38.3091+30.8934+38.3091L34.3537+38.3091L34.3537+35.8827L30.8948+35.8827Z" opacity="1" fill="#472b29"/>
<path d="M53.0945+85.9359C53.5136+86.4335+53.7894+87.0415+53.8611+87.717C54.0692+89.6691+52.4921+91.4365+50.3401+91.6667C48.1867+91.897+46.2732+90.5004+46.065+88.5483C45.9354+87.3283+46.502+86.1799+47.4712+85.4354" opacity="1" fill="#c0e5e4"/>
<path d="M49.8783+92.2072C47.6615+92.2085+45.7714+90.6769+45.5494+88.6049C45.406+87.2483+46.0057+85.9097+47.1555+85.026C47.383+84.8523+47.7069+84.8936+47.8793+85.1197C48.0544+85.3458+48.0116+85.6698+47.7855+85.8435C46.9239+86.5066+46.4717+87.4978+46.5779+88.4946C46.7557+90.1572+48.4031+91.3483+50.2836+91.1511C51.1976+91.0546+52.0192+90.6424+52.5996+89.9931C53.1662+89.3562+53.4309+88.569+53.3455+87.7722C53.2876+87.2235+53.0642+86.7038+52.6975+86.2681C52.5142+86.0503+52.5431+85.7236+52.7609+85.5402C52.9787+85.3582+53.3069+85.3858+53.4888+85.6036C53.9865+86.1978+54.2939+86.9092+54.3739+87.6633C54.4897+88.7524+54.134+89.8249+53.3703+90.681C52.6189+91.522+51.5615+92.0555+50.3939+92.1796C50.2215+92.1989+50.0478+92.2072+49.8783+92.2072Z" opacity="1" fill="#472b29"/>
<path d="M51.5767+88.3264C49.7087+89.8235+48.1509+89.5244+48.1509+89.5244L47.5277+82.9374L53.1331+82.9374C53.1331+82.9374+53.4447+86.8292+51.5767+88.3264Z" opacity="1" fill="#f1bc19"/>
<path d="M48.4996+90.0648C48.235+90.0648+48.0737+90.0358+48.053+90.0317C47.8283+89.989+47.6587+89.8015+47.6366+89.5726L47.0135+82.987C46.9997+82.8436+47.0466+82.6989+47.1459+82.5914C47.2451+82.4838+47.383+82.4218+47.5277+82.4218L53.1331+82.4218C53.402+82.4218+53.6267+82.6286+53.6487+82.8974C53.6625+83.0684+53.9576+87.0815+51.8979+88.7317C50.4531+89.8883+49.1559+90.0648+48.4996+90.0648ZM48.0957+83.4544L48.6237+89.0308C49.1352+89.0102+50.1168+88.8323+51.2527+87.9224C52.4342+86.9753+52.6548+84.6924+52.6382+83.4544C52.6382+83.4544+48.0957+83.4544+48.0957+83.4544Z" opacity="1" fill="#472b29"/>
<path d="M50.165+85.9634C49.9168+85.9634+49.7156+86.1572+49.7156+86.3963C49.7156+86.6354+49.9168+86.8292+50.165+86.8292C50.4132+86.8292+50.6144+86.6354+50.6144+86.3963C50.6144+86.1572+50.4132+85.9634+50.165+85.9634Z" opacity="1" fill="#fdfcee"/>
<path d="M50.165+85.9648C50.4132+85.9648+50.6144+86.1578+50.6144+86.3977C50.6144+86.6362+50.4132+86.8306+50.165+86.8306C49.9169+86.8306+49.7156+86.6376+49.7156+86.3977C49.7156+86.1578+49.9169+85.9648+50.165+85.9648M50.165+85.2755C49.5364+85.2755+49.0263+85.7787+49.0263+86.3977C49.0263+87.0167+49.5377+87.5199+50.165+87.5199C50.7923+87.5199+51.3037+87.0167+51.3037+86.3977C51.3037+85.7787+50.7923+85.2755+50.165+85.2755L50.165+85.2755Z" opacity="1" fill="#472b29"/>
<path d="M77.0686+86.1302C77.4435+86.6844+77.6586+87.3379+77.6586+88.0355C77.6586+90.0551+75.8526+91.6916+73.6262+91.6916C71.3997+91.6916+69.5937+90.0551+69.5937+88.0355C69.5937+86.7741+70.2996+85.6615+71.3721+85.0039" opacity="1" fill="#c0e5e4"/>
<path d="M73.6262+92.2085C71.1185+92.2085+69.0768+90.3364+69.0768+88.0355C69.0768+86.639+69.8336+85.3417+71.1006+84.5642C71.3446+84.4139+71.663+84.4897+71.8119+84.7337C71.9608+84.9777+71.8864+85.2962+71.6424+85.4451C70.6842+86.0337+70.1121+87.0015+70.1121+88.0355C70.1121+89.767+71.6892+91.1746+73.6276+91.1746C75.5659+91.1746+77.1444+89.767+77.1444+88.0355C77.1444+87.4634+76.9707+86.9064+76.6426+86.4198C76.4826+86.184+76.5447+85.8628+76.7818+85.7015C77.0175+85.5388+77.3388+85.6022+77.5001+85.8407C77.944+86.4983+78.1797+87.2552+78.1797+88.0355C78.1756+90.335+76.1352+92.2085+73.6262+92.2085Z" opacity="1" fill="#472b29"/>
<path d="M75.6045+87.462C73.7365+88.9592+72.1786+88.66+72.1786+88.66L71.5555+82.0716L77.1609+82.0716C77.1609+82.0716+77.4725+85.9648+75.6045+87.462Z" opacity="1" fill="#f1bc19"/>
<path d="M72.526+89.199C72.2613+89.199+72.1014+89.1701+72.0821+89.1673C71.856+89.1246+71.6865+88.9371+71.6644+88.7082L71.0427+82.1212C71.0289+81.9765+71.0757+81.8331+71.175+81.7256C71.2743+81.6181+71.4121+81.556+71.5569+81.556L77.1609+81.556C77.4298+81.556+77.6545+81.7628+77.6765+82.0316C77.6903+82.2026+77.9867+86.2157+75.9271+87.8659C74.4809+89.0239+73.1795+89.199+72.526+89.199ZM72.1249+82.5886L72.6515+88.1664C73.163+88.1444+74.1459+87.9666+75.2819+87.0567C76.4633+86.1096+76.6839+83.8266+76.666+82.5886C76.666+82.5886+72.1249+82.5886+72.1249+82.5886Z" opacity="1" fill="#472b29"/>
<path d="M74.8228+85.7815C74.6794+85.9758+74.3982+86.0227+74.1955+85.8849C73.9929+85.747+73.9446+85.4768+74.088+85.2824C74.2314+85.088+74.5126+85.0411+74.7153+85.179C74.9179+85.3169+74.9662+85.5871+74.8228+85.7815Z" opacity="1" fill="#fdfcee"/>
<path d="M74.4561+85.099C74.5457+85.099+74.6367+85.1252+74.7153+85.179C74.9179+85.3169+74.9662+85.5871+74.8228+85.7815C74.7346+85.9+74.5967+85.9634+74.4561+85.9634C74.3665+85.9634+74.2755+85.9372+74.1969+85.8835C73.9943+85.7456+73.946+85.4754+74.0894+85.281C74.1762+85.1625+74.3141+85.099+74.4561+85.099M74.4561+84.4097C74.0921+84.4097+73.7475+84.5821+73.5338+84.873C73.3532+85.1183+73.2815+85.4189+73.3325+85.718C73.3835+86.0186+73.5531+86.2805+73.8081+86.4542C73.9998+86.5852+74.2231+86.6541+74.4561+86.6541C74.82+86.6541+75.1647+86.4804+75.3784+86.1909C75.559+85.9455+75.6307+85.645+75.5797+85.3458C75.5286+85.048+75.3563+84.7806+75.104+84.6083C74.9124+84.4787+74.6877+84.4097+74.4561+84.4097L74.4561+84.4097ZM49.2662+55.6037C49.0773+55.6037+48.9229+55.4521+48.9215+55.2618C48.9201+55.0716+49.0718+54.9158+49.2634+54.9144L85.2492+54.6097C85.4353+54.6084+85.5953+54.76+85.5966+54.9516C85.598+55.1419+85.4464+55.2977+85.2547+55.299L49.2689+55.6037C49.2675+55.6037+49.2675+55.6037+49.2662+55.6037ZM42.9673+55.6037C42.7784+55.6037+42.624+55.4521+42.6226+55.2618C42.6213+55.0716+42.7729+54.9158+42.9645+54.9144L46.5627+54.8841C46.5641+54.8841+46.5641+54.8841+46.5655+54.8841C46.7543+54.8841+46.9087+55.0357+46.9101+55.226C46.9115+55.4162+46.7598+55.572+46.5682+55.5734L42.97+55.6037C42.9687+55.6037+42.9687+55.6037+42.9673+55.6037ZM41.1696+59.9298C40.9807+59.9298+40.8263+59.7781+40.8249+59.5893C40.8235+59.3976+40.9752+59.2419+41.1654+59.2405L84.3476+58.7897C84.349+58.7897+84.3504+58.7897+84.3517+58.7897C84.5406+58.7897+84.695+58.9413+84.6964+59.1302C84.6978+59.3218+84.5461+59.4776+84.3559+59.479L41.1737+59.9298C41.1723+59.9298+41.171+59.9298+41.1696+59.9298ZM42.0588+64.635C41.8713+64.635+41.7183+64.4861+41.7141+64.2972C41.71+64.107+41.8603+63.9498+42.0505+63.9457L83.6114+63.0537C83.8196+63.0578+83.9602+63.1998+83.9644+63.3901C83.9685+63.5817+83.8182+63.7389+83.6266+63.743L42.0657+64.635C42.0643+64.635+42.0615+64.635+42.0588+64.635ZM74.3692+68.5227C74.1817+68.5227+74.0287+68.3738+74.0246+68.1863C74.0205+67.996+74.1707+67.8375+74.361+67.8333L80.1801+67.6982C80.4048+67.7065+80.5289+67.8458+80.533+68.0346C80.5371+68.2249+80.3869+68.3834+80.1966+68.3875L74.3775+68.5227C74.3748+68.5227+74.372+68.5227+74.3692+68.5227ZM42.959+69.2478C42.7715+69.2478+42.6185+69.0989+42.6144+68.9114C42.6102+68.7212+42.7605+68.5626+42.9507+68.5585L71.5486+67.8981C71.7664+67.8968+71.8988+68.0443+71.9015+68.2345C71.9057+68.4248+71.7554+68.5833+71.5651+68.5874L42.9673+69.2478C42.9632+69.2478+42.9604+69.2478+42.959+69.2478ZM41.9995+83.4709C41.5004+83.4709+41.0814+83.0711+41.0372+82.5734C41.0372+82.5734+41.0262+82.4535+41.0345+80.2064C41.051+76.1987+46.6909+73.5008+46.9294+73.3878C47.4105+73.1644+47.9868+73.3685+48.2129+73.8496C48.4404+74.3321+48.2336+74.907+47.7524+75.1345C46.4235+75.7631+42.9742+77.8999+42.9645+80.216C42.9618+80.7868+42.9604+81.2155+42.9604+81.5353L79.397+81.2555C79.3984+81.2555+79.4012+81.2555+79.4039+81.2555C79.9333+81.2555+80.3648+81.6829+80.3689+82.2136C80.3731+82.7444+79.943+83.1814+79.4108+83.1855L42.0064+83.4723C42.005+83.4709+42.0023+83.4709+41.9995+83.4709Z" opacity="1" fill="#472b29"/>
<path d="M77.1816+72.97C77.1568+72.97+77.132+72.9673+77.1072+72.9618C76.921+72.9204+76.8025+72.7371+76.8452+72.551L81.9309+49.5875C81.9723+49.4014+82.1611+49.2869+82.3417+49.3255C82.5278+49.3669+82.6464+49.5502+82.6037+49.7364L77.518+72.6998C77.4808+72.8598+77.3401+72.97+77.1816+72.97ZM73.0968+72.97C73.072+72.97+73.0472+72.9673+73.0223+72.9618C72.8362+72.9204+72.7177+72.7371+72.7604+72.551L77.8461+49.5875C77.8874+49.4014+78.0763+49.2869+78.2569+49.3255C78.443+49.3669+78.5616+49.5502+78.5189+49.7364L73.4332+72.6998C73.3973+72.8598+73.2553+72.97+73.0968+72.97ZM69.0133+72.97C68.9885+72.97+68.9637+72.9673+68.9389+72.9618C68.7528+72.9204+68.6342+72.7371+68.677+72.551L73.7627+49.5875C73.804+49.4014+73.9929+49.2869+74.1735+49.3255C74.3596+49.3669+74.4782+49.5502+74.4354+49.7364L69.3497+72.6985C69.3139+72.8598+69.1719+72.97+69.0133+72.97ZM65.4607+72.97C65.4359+72.97+65.411+72.9673+65.3862+72.9618C65.2001+72.9204+65.0816+72.7371+65.1243+72.551L70.21+49.5875C70.2513+49.4014+70.4374+49.2869+70.6208+49.3255C70.8069+49.3669+70.9255+49.5502+70.8827+49.7364L65.7971+72.6998C65.7612+72.8598+65.6192+72.97+65.4607+72.97ZM62.6676+67.1344C62.6428+67.1344+62.618+67.1316+62.5932+67.1261C62.4071+67.0848+62.2885+66.9014+62.3312+66.7153L66.1252+49.5861C66.1665+49.4+66.354+49.2855+66.536+49.3241C66.7221+49.3655+66.8407+49.5489+66.7979+49.735L63.004+66.8642C62.9681+67.0255+62.8275+67.1344+62.6676+67.1344ZM60.2247+59.7299C60.1999+59.7299+60.1751+59.7271+60.1503+59.7216C59.9642+59.6803+59.8456+59.4969+59.8883+59.3108L62.0417+49.5861C62.0831+49.4+62.2692+49.2855+62.4525+49.3241C62.6387+49.3655+62.7572+49.5489+62.7145+49.735L60.5611+59.4597C60.5252+59.621+60.3833+59.7299+60.2247+59.7299Z" opacity="1" fill="#472b29"/>
<path d="M77.6586+72.2284C71.7442+72.2284+66.9496+77.023+66.9496+82.9374C66.9496+88.8518+71.7442+93.6464+77.6586+93.6464C83.573+93.6464+88.3676+88.8518+88.3676+82.9374C88.3676+77.023+83.573+72.2284+77.6586+72.2284Z" opacity="1" fill="#fdfcee"/>
<path d="M77.6586+94.3357C71.3735+94.3357+66.2603+89.2225+66.2603+82.9374C66.2603+76.6523+71.3735+71.5391+77.6586+71.5391C83.9437+71.5391+89.0569+76.6523+89.0569+82.9374C89.0569+89.2225+83.9437+94.3357+77.6586+94.3357ZM77.6586+72.9177C72.1331+72.9177+67.6389+77.4119+67.6389+82.9374C67.6389+88.4629+72.1331+92.9571+77.6586+92.9571C83.1841+92.9571+87.6783+88.4629+87.6783+82.9374C87.6783+77.4119+83.1841+72.9177+77.6586+72.9177Z" opacity="1" fill="#472b29"/>
<path d="M77.6586+74.237C72.8535+74.237+68.9582+78.1323+68.9582+82.9374C68.9582+87.7425+72.8535+91.6378+77.6586+91.6378C82.4637+91.6378+86.359+87.7425+86.359+82.9374C86.359+78.1323+82.4637+74.237+77.6586+74.237Z" opacity="1" fill="#f1bc19"/>
<path d="M77.6586+92.0858C72.6143+92.0858+68.5088+87.9817+68.5088+82.9374C68.5088+77.8931+72.6143+73.7876+77.6586+73.7876C82.7029+73.7876+86.8071+77.8931+86.8071+82.9374C86.8071+87.9817+82.7043+92.0858+77.6586+92.0858ZM77.6586+74.685C73.1078+74.685+69.4062+78.388+69.4062+82.9374C69.4062+87.4868+73.1092+91.1884+77.6586+91.1884C82.2094+91.1884+85.9096+87.4868+85.9096+82.9374C85.9096+78.388+82.2094+74.685+77.6586+74.685Z" opacity="1" fill="#472b29"/>
<path d="M76.3062+85.1818C76.3172+85.1818+76.3407+85.1928+76.3751+85.2162L76.3572+85.2066C76.5254+85.3224+76.677+85.4134+76.8094+85.4809C76.9431+85.5471+77.0851+85.5953+77.2354+85.6243L77.2354+82.9195L77.0796+82.8326C76.888+82.7278+76.706+82.6176+76.5309+82.5018C76.3558+82.3859+76.2+82.2577+76.0608+82.1185C75.9216+81.9793+75.8044+81.8317+75.7079+81.6746C75.6127+81.5174+75.5466+81.3465+75.5121+81.1617C75.4901+81.0694+75.4763+80.9825+75.4735+80.8998C75.4708+80.8185+75.4694+80.7316+75.4694+80.6379C75.4694+80.3649+75.5135+80.1278+75.6045+79.9251C75.6941+79.7225+75.8182+79.5488+75.9753+79.4082C76.1325+79.2662+76.3172+79.1531+76.5323+79.0676C76.7473+78.9835+76.9817+78.927+77.2367+78.8981L77.2367+78.6541C77.2367+78.5383+77.2629+78.439+77.3153+78.3577C77.3677+78.2763+77.4628+78.2363+77.6021+78.2363L77.6379+78.2363C77.9385+78.2363+78.1039+78.3838+78.1342+78.6802L78.126+78.916C78.2886+78.9449+78.4554+78.9904+78.6264+79.0511C78.7973+79.1118+78.9903+79.189+79.2054+79.2813L79.1806+79.2648C79.2785+79.2992+79.3557+79.342+79.4108+79.3944C79.466+79.4468+79.499+79.5308+79.5115+79.6467L79.5115+79.699C79.5115+79.7404+79.5004+79.7914+79.4811+79.8562C79.4604+79.921+79.4301+79.9817+79.3901+80.0382C79.3488+80.0961+79.3033+80.1471+79.2509+80.1898C79.1985+80.2339+79.1406+80.256+79.0772+80.256C79.0248+80.256+78.9779+80.2505+78.9338+80.2422C78.8911+80.2339+78.8401+80.2091+78.7822+80.1691L78.7822+80.1774L78.687+80.125C78.5189+80.0382+78.3327+79.9679+78.1301+79.9155L78.1301+82.2908L78.1646+82.3087C78.6347+82.5472+78.9959+82.8106+79.2523+83.1001C79.5073+83.3896+79.6755+83.6915+79.7568+84.0044C79.7913+84.1382+79.8161+84.2595+79.8299+84.3698C79.8437+84.4801+79.852+84.5931+79.852+84.7089C79.852+84.9764+79.8079+85.2162+79.721+85.4313C79.6341+85.6464+79.5156+85.8325+79.3653+85.9924C79.2151+86.1523+79.0331+86.2819+78.8221+86.3839C78.6098+86.4859+78.3796+86.5535+78.1301+86.5879L78.1301+87.2152C78.1301+87.331+78.1067+87.4303+78.0598+87.5116C78.0143+87.593+77.9178+87.6329+77.773+87.6329L77.7206+87.6329C77.5759+87.6329+77.4601+87.5943+77.3732+87.5158C77.2864+87.4372+77.2423+87.3227+77.2423+87.1725L77.2423+86.5893C76.9293+86.5549+76.6591+86.4859+76.433+86.3798C76.2069+86.275+75.9739+86.1454+75.7368+85.9883C75.672+85.9372+75.6293+85.8876+75.6059+85.8407C75.5824+85.7952+75.5576+85.7305+75.5287+85.6491L75.5287+85.5967C75.5287+85.5457+75.5438+85.4851+75.5755+85.4189C75.6072+85.3513+75.6458+85.2879+75.6927+85.2273C75.7396+85.1666+75.7878+85.1142+75.8402+85.0701C75.8926+85.0274+75.9409+85.0053+75.9877+85.0053C76.0511+85.0053+76.1077+85.0246+76.1573+85.0618C76.2055+85.0991+76.2538+85.1377+76.3007+85.179L76.3062+85.179C76.3172+85.1845+76.3255+85.1873+76.331+85.1873L76.3062+85.1818ZM76.7542+81.4843C76.8907+81.6112+77.052+81.7256+77.2367+81.8235L77.2367+79.9182C77.0162+79.9651+76.8328+80.0547+76.6839+80.1884C76.5364+80.3222+76.462+80.5028+76.462+80.7275C76.462+80.7619+76.4633+80.8005+76.4661+80.8405C76.4689+80.8805+76.4758+80.9301+76.4882+80.988C76.5295+81.1921+76.6178+81.3561+76.7542+81.4843ZM78.5423+83.777C78.4265+83.635+78.2872+83.5109+78.1246+83.4075L78.1246+85.5747C78.3272+85.4933+78.4968+85.3693+78.6333+85.1997C78.7698+85.0315+78.8373+84.8344+78.8373+84.6083C78.8373+84.5448+78.8318+84.4869+78.8208+84.4346C78.8084+84.3822+78.7973+84.327+78.7863+84.2691C78.7394+84.083+78.6581+83.919+78.5423+83.777Z" opacity="1" fill="#472b29"/>
</g>
</g>
</svg>
