<?xml version="1.0" encoding="UTF-8" standalone="no"?> <!-- Created with Vectornator for iOS (http://vectornator.io/) --><!DOCTYPE svg PUBLIC "-//W3C//DTD SVG 1.1//EN" "http://www.w3.org/Graphics/SVG/1.1/DTD/svg11.dtd">
<svg style="fill-rule:evenodd;clip-rule:evenodd;stroke-linecap:round;stroke-linejoin:round;" xmlns:vectornator="http://vectornator.io" xmlns:xlink="http://www.w3.org/1999/xlink" xmlns="http://www.w3.org/2000/svg" xml:space="preserve" version="1.1" viewBox="0 0 120 120">
<metadata>
<vectornator:setting key="DimensionsVisible" value="1"/>
<vectornator:setting key="SnapToGrid" value="0"/>
<vectornator:setting key="SnapToPoints" value="0"/>
<vectornator:setting key="GuidesVisible" value="1"/>
<vectornator:setting key="RulersVisible" value="1"/>
<vectornator:setting key="CMYKEnabledKey" value="0"/>
<vectornator:setting key="SnapToEdges" value="0"/>
<vectornator:setting key="DisplayWhiteBackground" value="0"/>
<vectornator:setting key="SnapToGuides" value="1"/>
<vectornator:setting key="GridSpacing" value="36"/>
<vectornator:setting key="Units" value="Pixels"/>
<vectornator:setting key="DynamicGuides" value="0"/>
<vectornator:setting key="New" value="1"/>
</metadata>
<defs/>
<g id="Layer 1" vectornator:layerName="Layer 1">
<g opacity="1">
<path d="M114.697+69.6558C115.121+68.7852+115.497+67.8693+115.822+66.9095C119.544+55.9271+113.916+42.7708+102.065+39.5948C100.785+23.5041+89.4773+12.4666+76.7069+10.5825C62.0905+8.42837+48.7009+17.7133+44.2458+32.471C38.8761+30.5685+33.6436+30.8003+28.7121+33.6823C26.4746+34.717+24.4279+36.2435+22.5918+38.252C19.8964+41.2004+18.1437+44.922+17.43+48.8457C16.3727+49.0125+15.3338+49.1793+14.3543+49.5298C8.64401+51.5779+5.04114+55.7928+4.05315+62.142C3.4383+66.0954+4.6793+70.0389+5.37189+71.6318C8.1069+77.9287+14.449+81.4977+20.8929+80.5535C21.2137+80.5068+21.6802+80.651+21.9558+80.8828C22.2964+90.9465+27.1827+99.847+34.5128+104.931C46.2741+113.089+61.4064+110.576+70.9528+99.389C75.0433+103.573+79.9112+105.605+85.6299+104.868C91.3162+104.134+95.7318+100.996+98.953+95.8936C100.441+96.2936+101.852+96.8703+103.311+97.03C109.024+97.6547+113.663+95.3833+117.066+90.2454C118.369+88.2794+119.601+85.7309+119.601+81.2644C119.602+76.6623+117.774+72.4686+114.697+69.6558Z" opacity="1" fill="#c7ede6"/>
<path d="M15.2829+58.3992L1.10612+58.3992C0.716008+58.3992+0.399397+58.0826+0.399397+57.6925C0.399397+57.3024+0.716008+56.9857+1.10612+56.9857L15.2829+56.9857C15.673+56.9857+15.9897+57.3024+15.9897+57.6925C15.9897+58.0826+15.6745+58.3992+15.2829+58.3992ZM19.3551+58.3992L17.3126+58.3992C16.9225+58.3992+16.6059+58.0826+16.6059+57.6925C16.6059+57.3024+16.9225+56.9857+17.3126+56.9857L19.3551+56.9857C19.7452+56.9857+20.0618+57.3024+20.0618+57.6925C20.0618+58.0826+19.7466+58.3992+19.3551+58.3992ZM25.0866+58.3992L21.488+58.3992C21.0978+58.3992+20.7812+58.0826+20.7812+57.6925C20.7812+57.3024+21.0978+56.9857+21.488+56.9857L25.0866+56.9857C25.4767+56.9857+25.7933+57.3024+25.7933+57.6925C25.7933+58.0826+25.4767+58.3992+25.0866+58.3992ZM25.0866+61.0353L11.4949+61.0353C11.1048+61.0353+10.7882+60.7186+10.7882+60.3285C10.7882+59.9384+11.1048+59.6218+11.4949+59.6218L25.0866+59.6218C25.4767+59.6218+25.7933+59.9384+25.7933+60.3285C25.7933+60.7186+25.4767+61.0353+25.0866+61.0353ZM9.04683+61.0353L8.22704+61.0353C7.83693+61.0353+7.52032+60.7186+7.52032+60.3285C7.52032+59.9384+7.83693+59.6218+8.22704+59.6218L9.04683+59.6218C9.43694+59.6218+9.75356+59.9384+9.75356+60.3285C9.75356+60.7186+9.43836+61.0353+9.04683+61.0353ZM5.68708+61.0353L3.62911+61.0353C3.239+61.0353+2.92239+60.7186+2.92239+60.3285C2.92239+59.9384+3.239+59.6218+3.62911+59.6218L5.68708+59.6218C6.07719+59.6218+6.3938+59.9384+6.3938+60.3285C6.3938+60.7186+6.07861+61.0353+5.68708+61.0353ZM18.6003+55.7631L11.4949+55.7631C11.1048+55.7631+10.7882+55.4465+10.7882+55.0564C10.7882+54.6663+11.1048+54.3497+11.4949+54.3497L18.6003+54.3497C18.9904+54.3497+19.307+54.6663+19.307+55.0564C19.307+55.4465+18.9904+55.7631+18.6003+55.7631ZM18.6003+53.1271L16.8236+53.1271C16.4335+53.1271+16.1169+52.8104+16.1169+52.4203C16.1169+52.0302+16.4335+51.7136+16.8236+51.7136L18.6003+51.7136C18.9904+51.7136+19.307+52.0302+19.307+52.4203C19.307+52.8104+18.9904+53.1271+18.6003+53.1271ZM13.9797+63.6713L11.4935+63.6713C11.1034+63.6713+10.7868+63.3547+10.7868+62.9646C10.7868+62.5745+11.1034+62.2579+11.4935+62.2579L13.9797+62.2579C14.3699+62.2579+14.6865+62.5745+14.6865+62.9646C14.6865+63.3547+14.3713+63.6713+13.9797+63.6713ZM90.447+21.2582L76.2701+21.2582C75.88+21.2582+75.5634+20.9416+75.5634+20.5515C75.5634+20.1613+75.88+19.8447+76.2701+19.8447L90.447+19.8447C90.8371+19.8447+91.1537+20.1613+91.1537+20.5515C91.1537+20.9416+90.8371+21.2582+90.447+21.2582ZM94.5191+21.2582L92.4767+21.2582C92.0865+21.2582+91.7699+20.9416+91.7699+20.5515C91.7699+20.1613+92.0865+19.8447+92.4767+19.8447L94.5191+19.8447C94.9092+19.8447+95.2258+20.1613+95.2258+20.5515C95.2258+20.9416+94.9092+21.2582+94.5191+21.2582ZM100.251+21.2582L96.652+21.2582C96.2618+21.2582+95.9452+20.9416+95.9452+20.5515C95.9452+20.1613+96.2618+19.8447+96.652+19.8447L100.251+19.8447C100.641+19.8447+100.957+20.1613+100.957+20.5515C100.957+20.9416+100.641+21.2582+100.251+21.2582ZM97.3869+15.9875L83.7953+15.9875C83.4052+15.9875+83.0886+15.6708+83.0886+15.2807C83.0886+14.8906+83.4052+14.574+83.7953+14.574L97.3869+14.574C97.7771+14.574+98.0937+14.8906+98.0937+15.2807C98.0937+15.6708+97.7785+15.9875+97.3869+15.9875ZM81.3472+15.9875L80.5274+15.9875C80.1373+15.9875+79.8207+15.6708+79.8207+15.2807C79.8207+14.8906+80.1373+14.574+80.5274+14.574L81.3472+14.574C81.7373+14.574+82.0539+14.8906+82.0539+15.2807C82.0539+15.6708+81.7373+15.9875+81.3472+15.9875ZM77.9889+15.9875L75.9295+15.9875C75.5394+15.9875+75.2228+15.6708+75.2228+15.2807C75.2228+14.8906+75.5394+14.574+75.9295+14.574L77.9889+14.574C78.379+14.574+78.6956+14.8906+78.6956+15.2807C78.6956+15.6708+78.379+15.9875+77.9889+15.9875ZM93.7643+18.6221L86.6589+18.6221C86.2688+18.6221+85.9522+18.3055+85.9522+17.9154C85.9522+17.5253+86.2688+17.2087+86.6589+17.2087L93.7643+17.2087C94.1544+17.2087+94.471+17.5253+94.471+17.9154C94.471+18.3055+94.1544+18.6221+93.7643+18.6221Z" opacity="1" fill="#ffffff"/>
<path d="M93.7643+15.9875L91.9876+15.9875C91.5975+15.9875+91.2809+15.6708+91.2809+15.2807C91.2809+14.8906+91.5975+14.574+91.9876+14.574L93.7643+14.574C94.1544+14.574+94.471+14.8906+94.471+15.2807C94.471+15.6708+94.1544+15.9875+93.7643+15.9875ZM84.601+18.6221L82.1147+18.6221C81.7246+18.6221+81.408+18.3055+81.408+17.9154C81.408+17.5253+81.7246+17.2087+82.1147+17.2087L84.601+17.2087C84.9911+17.2087+85.3077+17.5253+85.3077+17.9154C85.3077+18.3055+84.9925+18.6221+84.601+18.6221Z" opacity="1" fill="#ffffff"/>
<path d="M102.973+64.5335L97.9679+64.5335C97.5778+64.5335+97.2612+64.2169+97.2612+63.8268C97.2612+63.4367+97.5778+63.1201+97.9679+63.1201L102.973+63.1201C105.561+63.1201+107.666+61.0664+107.666+58.5419C107.666+56.3879+106.099+54.5052+103.94+54.0627C103.579+53.9878+103.335+53.6486+103.38+53.2825C103.404+53.0875+103.421+52.8924+103.421+52.6903C103.421+50.0613+101.229+47.9228+98.5347+47.9228C96.9912+47.9228+95.5693+48.6168+94.6336+49.8295C94.4555+50.0613+94.1488+50.1546+93.8731+50.0754C93.5933+49.9906+93.3926+49.7447+93.3714+49.4535C93.2597+48.0118+92.5728+46.7058+91.4364+45.7729C90.266+44.8104+88.7706+44.3877+87.2328+44.5658C84.9048+44.8443+82.984+46.6054+82.5585+48.8457C82.4257+49.5454+82.4299+50.245+82.5713+50.9249C82.6363+51.2345+82.4864+51.5482+82.2066+51.6952C81.9296+51.8408+81.5861+51.7843+81.3656+51.5539C80.7606+50.9164+79.9394+50.5645+79.0546+50.5645C77.4009+50.5645+76.0214+51.8239+75.9154+53.4309C75.9012+53.6373+75.7995+53.8253+75.6355+53.9483C75.4715+54.0712+75.2623+54.1179+75.0602+54.0741C74.1613+53.8818+73.309+53.9355+72.4538+54.2507C70.6687+54.9052+69.4206+56.5561+69.3513+58.3568C69.3019+59.5935+69.7499+60.7709+70.6164+61.6713C71.5139+62.6042+72.7295+63.1187+74.0411+63.1187L86.4907+63.1187C86.8808+63.1187+87.1974+63.4353+87.1974+63.8254C87.1974+64.2155+86.8808+64.5321+86.4907+64.5321L74.0411+64.5321C72.3662+64.5321+70.7478+63.8466+69.5973+62.6494C68.4623+61.4692+67.8743+59.9243+67.9379+58.3017C68.0312+55.9341+69.651+53.773+71.9662+52.9221C72.8312+52.6041+73.7273+52.4868+74.6235+52.5772C75.1111+50.6041+76.926+49.1496+79.056+49.1496C79.7529+49.1496+80.437+49.3093+81.0546+49.6062C81.0674+49.2655+81.1055+48.9235+81.1705+48.5814C81.7091+45.7404+84.1331+43.5114+87.0646+43.1609C88.9911+42.9248+90.8611+43.469+92.3325+44.6761C93.3897+45.5439+94.1389+46.6676+94.5177+47.9298C95.6357+47.0139+97.0421+46.5065+98.5361+46.5065C102.01+46.5065+104.836+49.2797+104.836+52.6875C104.836+52.7355+104.834+52.7836+104.833+52.8331C107.328+53.6175+109.079+55.9257+109.079+58.5391C109.08+61.8466+106.34+64.5335+102.973+64.5335ZM89.3219+64.5335L88.8144+64.5335C88.4243+64.5335+88.1077+64.2169+88.1077+63.8268C88.1077+63.4367+88.4243+63.1201+88.8144+63.1201L89.3219+63.1201C89.712+63.1201+90.0286+63.4367+90.0286+63.8268C90.0286+64.2169+89.7134+64.5335+89.3219+64.5335Z" opacity="1" fill="#472b29"/>
<path d="M100.559+56.3327C100.533+56.3327+100.508+56.3299+100.481+56.3243C100.29+56.2819+100.17+56.0925+100.214+55.9016C100.265+55.6712+100.347+55.4437+100.453+55.2246C101.306+53.4917+103.671+52.8585+105.714+53.8027C105.892+53.8847+105.969+54.0938+105.886+54.2705C105.804+54.4486+105.591+54.5235+105.418+54.443C103.714+53.6543+101.773+54.149+101.089+55.5356C101.005+55.7038+100.943+55.8776+100.905+56.0557C100.867+56.2197+100.723+56.3327+100.559+56.3327ZM93.2668+64.5335L91.7035+64.5335C91.3134+64.5335+90.9968+64.2169+90.9968+63.8268C90.9968+63.4367+91.3134+63.1201+91.7035+63.1201L93.2668+63.1201C93.6569+63.1201+93.9735+63.4367+93.9735+63.8268C93.9735+64.2169+93.6583+64.5335+93.2668+64.5335Z" opacity="1" fill="#472b29"/>
<path d="M82.3776+90.5394L42.0691+90.5394C37.7609+90.5394+34.2358+87.0143+34.2358+82.7061L34.2358+42.3976C34.2358+38.0894+37.7609+34.5643+42.0691+34.5643L82.3776+34.5643C86.6858+34.5643+90.2109+38.0894+90.2109+42.3976L90.2109+82.7061C90.2109+87.0143+86.6858+90.5394+82.3776+90.5394Z" opacity="1" fill="#fdfcee"/>
<path d="M82.3776+91.5289L42.0691+91.5289C37.2054+91.5289+33.2464+87.5698+33.2464+82.7062L33.2464+42.3976C33.2464+37.534+37.2054+33.5749+42.0691+33.5749L82.3776+33.5749C87.2413+33.5749+91.2003+37.534+91.2003+42.3976L91.2003+82.7061C91.2003+87.5698+87.2413+91.5289+82.3776+91.5289ZM42.0691+35.5537C38.2952+35.5537+35.2252+38.6237+35.2252+42.3976L35.2252+82.7061C35.2252+86.48+38.2952+89.55+42.0691+89.55L82.3776+89.55C86.1515+89.55+89.2215+86.48+89.2215+82.7061L89.2215+42.3976C89.2215+38.6237+86.1515+35.5537+82.3776+35.5537C82.3776+35.5537+42.0691+35.5537+42.0691+35.5537Z" opacity="1" fill="#472b29"/>
<path d="M78.2758+43.9142L73.3372+43.9142C72.9471+43.9142+72.6305+43.5976+72.6305+43.2075C72.6305+42.8174+72.9471+42.5008+73.3372+42.5008L78.2758+42.5008C78.6659+42.5008+78.9825+42.8174+78.9825+43.2075C78.9825+43.5976+78.6659+43.9142+78.2758+43.9142ZM70.868+43.9142L34.6485+43.9142C34.2584+43.9142+33.9418+43.5976+33.9418+43.2075C33.9418+42.8174+34.2584+42.5008+34.6485+42.5008L70.868+42.5008C71.2581+42.5008+71.5747+42.8174+71.5747+43.2075C71.5747+43.5976+71.2581+43.9142+70.868+43.9142ZM89.7996+43.9142L82.3917+43.9142C82.0016+43.9142+81.685+43.5976+81.685+43.2075C81.685+42.8174+82.0016+42.5008+82.3917+42.5008L89.7996+42.5008C90.1897+42.5008+90.5063+42.8174+90.5063+43.2075C90.5063+43.5976+90.1897+43.9142+89.7996+43.9142ZM89.7996+85.0737L44.5256+85.0737C44.1355+85.0737+43.8189+84.7571+43.8189+84.3669C43.8189+83.9768+44.1355+83.6602+44.5256+83.6602L89.7996+83.6602C90.1897+83.6602+90.5063+83.9768+90.5063+84.3669C90.5063+84.7571+90.1897+85.0737+89.7996+85.0737ZM42.0564+85.0737L34.6485+85.0737C34.2584+85.0737+33.9418+84.7571+33.9418+84.3669C33.9418+83.9768+34.2584+83.6602+34.6485+83.6602L42.0564+83.6602C42.4465+83.6602+42.7631+83.9768+42.7631+84.3669C42.7631+84.7571+42.4465+85.0737+42.0564+85.0737Z" opacity="1" fill="#472b29"/>
<path d="M41.2323+37.4449C40.3227+37.4446+39.5851+38.1819+39.5851+39.0916C39.5851+40.0012+40.3227+40.7385+41.2323+40.7382C42.1417+40.7382+42.879+40.001+42.879+39.0916C42.879+38.1821+42.1417+37.4449+41.2323+37.4449Z" opacity="1" fill="#ee3e54"/>
<path d="M41.2337+41.1623C40.0917+41.1623+39.163+40.2336+39.163+39.0916C39.163+37.9495+40.0917+37.0209+41.2337+37.0209C42.3758+37.0209+43.303+37.9495+43.303+39.0916C43.303+40.2336+42.3744+41.1623+41.2337+41.1623ZM41.2337+37.8689C40.5595+37.8689+40.0111+38.4188+40.0111+39.0916C40.0111+39.7644+40.5609+40.3142+41.2337+40.3142C41.9065+40.3142+42.4549+39.7644+42.4549+39.0916C42.4549+38.4188+41.9065+37.8689+41.2337+37.8689Z" opacity="1" fill="#472b29"/>
<path d="M46.9949+37.4449C46.0853+37.4446+45.3477+38.1819+45.3477+39.0916C45.3477+40.0012+46.0853+40.7385+46.9949+40.7382C47.9043+40.7382+48.6416+40.001+48.6416+39.0916C48.6416+38.1821+47.9043+37.4449+46.9949+37.4449Z" opacity="1" fill="#f1bc19"/>
<path d="M46.9949+41.1623C45.8529+41.1623+44.9242+40.2336+44.9242+39.0916C44.9242+37.9495+45.8529+37.0209+46.9949+37.0209C48.137+37.0209+49.0656+37.9495+49.0656+39.0916C49.0656+40.2336+48.1356+41.1623+46.9949+41.1623ZM46.9949+37.8689C46.3207+37.8689+45.7723+38.4188+45.7723+39.0916C45.7723+39.7644+46.3221+40.3142+46.9949+40.3142C47.6677+40.3142+48.2175+39.7644+48.2175+39.0916C48.2175+38.4188+47.6677+37.8689+46.9949+37.8689Z" opacity="1" fill="#472b29"/>
<path d="M52.7575+37.4449C51.8479+37.4446+51.1103+38.1819+51.1103+39.0916C51.1103+40.0012+51.8479+40.7385+52.7575+40.7382C53.667+40.7382+54.4042+40.001+54.4042+39.0916C54.4042+38.1821+53.667+37.4449+52.7575+37.4449Z" opacity="1" fill="#88ae45"/>
<path d="M52.7575+41.1623C51.6155+41.1623+50.6868+40.2336+50.6868+39.0916C50.6868+37.9495+51.6155+37.0209+52.7575+37.0209C53.8996+37.0209+54.8268+37.9495+54.8268+39.0916C54.8268+40.2336+53.8996+41.1623+52.7575+41.1623ZM52.7575+37.8689C52.0833+37.8689+51.5349+38.4188+51.5349+39.0916C51.5349+39.7644+52.0847+40.3142+52.7575+40.3142C53.4303+40.3142+53.9787+39.7644+53.9787+39.0916C53.9787+38.4188+53.4317+37.8689+52.7575+37.8689Z" opacity="1" fill="#472b29"/>
<path d="M38.2881+59.5285L38.2881+50.1871L86.1586+50.1871L86.1586+61.0861L40.4139+61.0861" opacity="1" fill="#c0d078"/>
<path d="M86.1586+61.6162L40.4139+61.6162C40.1214+61.6162+39.8839+61.3787+39.8839+61.0861C39.8839+60.7936+40.1214+60.5561+40.4139+60.5561L85.6285+60.5561L85.6285+50.7171L38.8182+50.7171L38.8182+59.5285C38.8182+59.8211+38.5807+60.0586+38.2881+60.0586C37.9955+60.0586+37.7581+59.8211+37.7581+59.5285L37.7581+50.1871C37.7581+49.8945+37.9955+49.6571+38.2881+49.6571L86.1586+49.6571C86.4512+49.6571+86.6886+49.8945+86.6886+50.1871L86.6886+61.0861C86.6886+61.3787+86.4511+61.6162+86.1586+61.6162ZM72.7832+47.7305L51.6635+47.7305C51.3907+47.7305+51.1688+47.51+51.1688+47.2358C51.1688+46.9616+51.3893+46.7411+51.6635+46.7411L72.7832+46.7411C73.056+46.7411+73.2779+46.9616+73.2779+47.2358C73.2779+47.51+73.056+47.7305+72.7832+47.7305ZM52.4946+66.5208L38.5058+66.5208C38.233+66.5208+38.0111+66.3003+38.0111+66.0261C38.0111+65.7519+38.2316+65.5314+38.5058+65.5314L52.4946+65.5314C52.7674+65.5314+52.9893+65.7519+52.9893+66.0261C52.9893+66.3003+52.7688+66.5208+52.4946+66.5208ZM52.4946+72.2806L38.5058+72.2806C38.233+72.2806+38.0111+72.0601+38.0111+71.7859C38.0111+71.5117+38.2316+71.2912+38.5058+71.2912L52.4946+71.2912C52.7674+71.2912+52.9893+71.5117+52.9893+71.7859C52.9893+72.0601+52.7688+72.2806+52.4946+72.2806ZM52.4946+78.0418L38.5058+78.0418C38.233+78.0418+38.0111+77.8213+38.0111+77.5471C38.0111+77.2729+38.2316+77.0524+38.5058+77.0524L52.4946+77.0524C52.7674+77.0524+52.9893+77.2729+52.9893+77.5471C52.9893+77.8213+52.7688+78.0418+52.4946+78.0418ZM69.2496+66.5222L55.2593+66.5222C54.9865+66.5222+54.7646+66.3017+54.7646+66.0275C54.7646+65.7533+54.9851+65.5328+55.2593+65.5328L69.2496+65.5328C69.5224+65.5328+69.7443+65.7533+69.7443+66.0275C69.7443+66.3017+69.5224+66.5222+69.2496+66.5222ZM69.2496+72.282L55.2593+72.282C54.9865+72.282+54.7646+72.0615+54.7646+71.7873C54.7646+71.5131+54.9851+71.2926+55.2593+71.2926L69.2496+71.2926C69.5224+71.2926+69.7443+71.5131+69.7443+71.7873C69.7443+72.0615+69.5224+72.282+69.2496+72.282ZM69.2496+78.0432L55.2593+78.0432C54.9865+78.0432+54.7646+77.8227+54.7646+77.5485C54.7646+77.2743+54.9851+77.0538+55.2593+77.0538L69.2496+77.0538C69.5224+77.0538+69.7443+77.2743+69.7443+77.5485C69.7443+77.8227+69.5224+78.0432+69.2496+78.0432ZM86.0031+66.5222L72.0143+66.5222C71.7415+66.5222+71.5195+66.3017+71.5195+66.0275C71.5195+65.7533+71.74+65.5328+72.0143+65.5328L86.0031+65.5328C86.2759+65.5328+86.4978+65.7533+86.4978+66.0275C86.4978+66.3017+86.2759+66.5222+86.0031+66.5222ZM86.0031+72.2834L72.0143+72.2834C71.7415+72.2834+71.5195+72.0629+71.5195+71.7887C71.5195+71.5145+71.74+71.294+72.0143+71.294L86.0031+71.294C86.2759+71.294+86.4978+71.5145+86.4978+71.7887C86.4978+72.0629+86.2759+72.2834+86.0031+72.2834ZM86.0031+78.0432L72.0143+78.0432C71.7415+78.0432+71.5195+77.8227+71.5195+77.5485C71.5195+77.2743+71.74+77.0538+72.0143+77.0538L86.0031+77.0538C86.2759+77.0538+86.4978+77.2743+86.4978+77.5485C86.4978+77.8227+86.2759+78.0432+86.0031+78.0432Z" opacity="1" fill="#472b29"/>
<path d="M85.9112+95.4724L85.9112+95.4724C85.4745+95.3225+85.2384+94.8448+85.3882+94.4109L89.6611+80.9026C89.8109+80.4673+90.5883+80.5012+91.0265+80.6496L91.0265+80.6496C91.4632+80.7994+91.982+81.263+91.8321+81.697L86.9798+94.9522C86.8285+95.3875+86.348+95.6208+85.9112+95.4724Z" opacity="1" fill="#c29b67"/>
<path d="M86.1826+96.0476C86.0356+96.0476+85.8872+96.0236+85.7402+95.9727C85.3939+95.8554+85.114+95.608+84.9515+95.2787C84.7918+94.9508+84.7677+94.5805+84.8865+94.237L89.1565+80.7415C89.4491+79.8991+90.5629+79.9316+91.1975+80.1478C91.548+80.2665+92.0385+80.5733+92.2689+81.0439C92.4032+81.3167+92.4244+81.6037+92.3325+81.8708L87.4759+95.136C87.2851+95.6929+86.7536+96.0476+86.1826+96.0476ZM90.3989+81.0779C90.2717+81.0779+90.1699+81.0962+90.1303+81.1231L85.8943+94.5706C85.8561+94.6851+85.8844+94.7713+85.9056+94.8137C85.9409+94.8886+86.0045+94.9437+86.0837+94.9706C86.2391+95.0229+86.4243+94.9381+86.478+94.7798L91.3346+81.5132C91.319+81.4581+91.1141+81.2376+90.8568+81.1485C90.7042+81.0991+90.536+81.0779+90.3989+81.0779Z" opacity="1" fill="#472b29"/>
<path d="M106.95+95.4724L106.95+95.4724C107.387+95.3225+107.623+94.8448+107.473+94.4109L103.2+80.9026C103.051+80.4673+102.273+80.5012+101.835+80.6496L101.835+80.6496C101.398+80.7994+100.88+81.263+101.029+81.697L105.882+94.9522C106.032+95.3875+106.514+95.6208+106.95+95.4724Z" opacity="1" fill="#c29b67"/>
<path d="M106.679+96.0476C106.109+96.0476+105.576+95.6914+105.38+95.1275L100.53+81.8793C100.436+81.6037+100.457+81.3182+100.591+81.0439C100.822+80.5733+101.312+80.2665+101.663+80.1478C102.299+79.9316+103.414+79.8991+103.699+80.7273L107.976+94.2497C108.091+94.5819+108.067+94.9522+107.906+95.2801C107.745+95.6095+107.465+95.8554+107.119+95.9727C106.974+96.025+106.826+96.0476+106.679+96.0476ZM102.694+81.0623C102.649+81.0666+102.299+81.051+102.006+81.1499C101.749+81.2376+101.544+81.4595+101.534+81.5401L106.381+94.7699C106.437+94.9367+106.622+95.0158+106.779+94.9706C106.857+94.9423+106.921+94.8872+106.957+94.8137C106.993+94.7402+106.998+94.6582+106.973+94.5833L102.694+81.0623Z" opacity="1" fill="#472b29"/>
<path d="M113.781+65.5385C113.363+69.2742+113.032+72.9308+112.512+76.5605C112.255+78.3542+110.962+79.4015+109.273+80.1012C106.317+81.3252+103.226+81.2234+100.143+81.2404C96.2053+81.2616+84.666+81.892+82.2787+79.3365C81.302+78.4446+80.4836+77.3888+80.2956+76.2524C79.7119+72.7442+79.4659+69.1809+79.0786+65.5385C79.6483+65.4537+80.0737+65.3689+80.5048+65.3293C83.3925+65.0664+85.7798+64.0204+87.9183+61.8918C92.666+57.1638+99.6993+57.072+104.444+61.3745C108.114+64.7017+108.114+64.7017+113.781+65.5385Z" opacity="1" fill="#88ae45"/>
<path d="M94.3311+82.0235C88.7381+82.0235+83.4759+81.6517+81.7628+79.8171C80.5317+78.6934+79.7896+77.5202+79.5988+76.3669C79.1748+73.8227+78.9232+71.2007+78.6801+68.665C78.5839+67.653+78.485+66.6367+78.3762+65.6134C78.3366+65.2374+78.5995+64.8968+78.974+64.8402L79.4829+64.7583C79.8306+64.7017+80.1345+64.6537+80.4398+64.624C83.2426+64.3696+85.4603+63.342+87.4194+61.39C92.3353+56.4939+99.8605+56.2592+104.919+60.8501C108.429+64.0332+108.429+64.0332+113.886+64.8374C114.263+64.894+114.528+65.2374+114.485+65.6162C114.361+66.7215+114.245+67.8212+114.129+68.9138C113.859+71.4594+113.579+74.0926+113.213+76.6594C112.949+78.4997+111.75+79.8383+109.544+80.7528C106.7+81.9302+103.75+81.9358+100.899+81.9429L100.149+81.9457C99.6329+81.9485+98.987+81.9627+98.2463+81.9768C96.9516+82.0051+95.6315+82.0235+94.3311+82.0235ZM79.8518+66.1307C79.9338+66.9336+80.0101+67.735+80.0864+68.5293C80.3394+71.1569+80.5783+73.6389+80.9939+76.1351C81.1338+76.969+81.726+77.8708+82.7578+78.8149C84.6518+80.8432+93.8138+80.6552+98.2181+80.5648C98.9658+80.5492+99.6202+80.5351+100.14+80.5337L100.895+80.5309C103.736+80.5252+106.417+80.5181+109.003+79.4482C110.731+78.7316+111.623+77.7817+111.813+76.4602C112.177+73.9188+112.442+71.417+112.723+68.7668C112.815+67.8947+112.908+67.0198+113.005+66.1392C107.841+65.3703+107.61+65.2007+103.969+61.8989C99.4039+57.7589+92.8639+57.9667+88.4158+62.395C86.2095+64.5929+83.7161+65.7491+80.567+66.0346C80.338+66.0544+80.1076+66.0897+79.8518+66.1307Z" opacity="1" fill="#472b29"/>
<path d="M96.6138+74.675C91.0813+74.6743+86.5939+75.3516+86.5939+76.1874C86.5939+77.0231+91.0813+77.7004+96.6138+77.6997C102.146+77.7004+106.634+77.0231+106.634+76.1874C106.634+75.3516+102.146+74.6743+96.6138+74.675Z" opacity="1" fill="#6f913d"/>
<path d="M86.6547+76.692C86.4596+76.692+86.3027+76.5238+86.3027+76.3287C86.3027+74.3527+96.0159+74.3301+96.4301+74.3301C96.8442+74.3301+106.557+74.3527+106.557+76.3287C106.557+76.5238+106.399+76.6821+106.204+76.6821C106.009+76.6821+105.851+76.5238+105.851+76.3287C105.657+75.8778+102.341+75.0368+96.4301+75.0368C90.519+75.0368+87.2031+75.8778+87.0066+76.3485C87.0066+76.5421+86.8497+76.692+86.6547+76.692ZM83.1112+69.759C82.9331+69.759+82.7804+69.6247+82.7607+69.4438C82.6575+68.5223+82.5599+67.6092+82.4709+66.771L82.2716+64.9265C82.249+64.7328+82.3889+64.5576+82.584+64.5378C82.7762+64.4982+82.9529+64.6565+82.9727+64.8501L83.1734+66.6975C83.2624+67.5343+83.36+68.4445+83.4617+69.3675C83.4843+69.5611+83.3444+69.7364+83.1493+69.7562C83.1366+69.759+83.1225+69.759+83.1112+69.759Z" opacity="1" fill="#472b29"/>
<path d="M94.8724+79.2178C90.5289+79.2178+86.4596+78.9464+85.1635+77.6192C84.2137+76.7923+83.6497+75.9414+83.5041+75.1117C83.4631+74.8771+83.4221+74.6255+83.3826+74.3626C83.3529+74.169+83.4857+73.988+83.678+73.9598C83.8688+73.9301+84.0525+74.063+84.0808+74.2552C84.1204+74.5167+84.1614+74.7612+84.1995+74.9916C84.3154+75.6587+84.8031+76.3711+85.6469+77.1075C87.1932+78.6891+94.4767+78.5464+97.9862+78.4771C98.57+78.4658+99.0803+78.4559+99.4887+78.4531L100.074+78.4517C102.337+78.4474+104.474+78.4446+106.555+77.6206C107.988+77.0552+108.728+76.2948+108.887+75.2319C109.124+73.6516+109.311+71.4495+109.492+69.3209L109.667+67.2926C109.739+66.5039+109.811+65.7689+109.886+65.1243C109.909+64.9307+110.067+64.8007+110.278+64.8148C110.471+64.8374+110.61+65.0127+110.587+65.2063C110.514+65.8452+110.441+66.5759+110.371+67.3548L110.196+69.3802C110.015+71.5216+109.825+73.7336+109.585+75.3365C109.388+76.6566+108.482+77.6178+106.813+78.2778C104.608+79.1499+102.304+79.1542+100.074+79.1584L99.4901+79.1598C99.0859+79.1627+98.5771+79.1725+97.9976+79.1839C96.9643+79.2022+95.9099+79.2178+94.8724+79.2178Z" opacity="1" fill="#472b29"/>
<path d="M109.92+66.9463C109.906+66.9463+109.892+66.9449+109.879+66.9434C105.599+66.306+104.902+66.0897+102.351+63.8212C102.234+63.718+102.224+63.5385+102.327+63.4226C102.429+63.3038+102.608+63.2939+102.726+63.3985C105.208+65.6049+105.829+65.7689+109.961+66.3823C110.115+66.4063+110.222+66.5491+110.2+66.7046C110.179+66.8459+110.058+66.9463+109.92+66.9463ZM101.449+62.9109C101.381+62.9109+101.313+62.8855+101.26+62.8374C100.668+62.3017+100.027+61.824+99.353+61.4183C99.2188+61.3377+99.1764+61.1639+99.2583+61.031C99.3375+60.8967+99.5128+60.8543+99.6456+60.9363C100.35+61.3604+101.019+61.8579+101.637+62.419C101.753+62.5236+101.763+62.7031+101.658+62.8176C101.603+62.8784+101.527+62.9109+101.449+62.9109ZM90.1826+87.7832C90.0498+87.7832+89.9226+87.7083+89.8632+87.5811C89.7784+87.4044+89.8547+87.1938+90.03+87.1104L100.878+81.9641C101.059+81.8807+101.267+81.9556+101.349+82.1309C101.434+82.3076+101.357+82.5182+101.182+82.6016L90.3339+87.7479C90.2844+87.7719+90.2335+87.7832+90.1826+87.7832Z" opacity="1" fill="#472b29"/>
<path d="M102.659+87.5726C102.608+87.5726+102.557+87.5613+102.508+87.5387L91.6597+82.3938C91.4844+82.3104+91.4081+82.0998+91.4929+81.9231C91.5763+81.7478+91.7855+81.6715+91.9636+81.7563L102.812+86.9012C102.987+86.9846+103.063+87.1952+102.979+87.3719C102.918+87.4977+102.791+87.5726+102.659+87.5726Z" opacity="1" fill="#472b29"/>
<path d="M39.7341+94.8462C39.7341+94.8462+54.3052+94.8462+54.3929+94.8462C57.7583+94.8462+60.4848+92.1183+60.4848+88.7529C60.4848+85.8171+58.4085+83.3676+55.6438+82.7895C55.6763+82.5323+55.6975+82.2722+55.6975+82.0065C55.6975+78.521+52.872+75.6955+49.3879+75.6955C47.3299+75.6955+45.508+76.6849+44.356+78.2086C44.062+74.3287+40.5963+71.3364+36.5425+71.8325C33.5785+72.1958+31.1262+74.487+30.5806+77.4227C30.4054+78.3641+30.4237+79.2786+30.5976+80.1365C29.8032+79.28+28.6711+78.7414+27.4117+78.7414C25.1049+78.7414+23.2237+80.5365+23.0738+82.8051C22.0265+82.5733+20.8872+82.5888+19.6872+83.0383C17.3946+83.8991+15.7607+86.0588+15.666+88.5055C15.5303+91.9812+18.3077+94.842+21.7537+94.842C22.0152+94.842+22.9353+94.842+23.1473+94.842L35.799+94.842" opacity="1" fill="#fdfcef"/>
<path d="M54.3929+95.5529L39.7341+95.5529C39.344+95.5529+39.0273+95.2363+39.0273+94.8462C39.0273+94.4561+39.344+94.1395+39.7341+94.1395L54.3929+94.1395C57.3639+94.1395+59.7795+91.7239+59.7795+88.7529C59.7795+86.2171+57.9802+84.0009+55.501+83.4821C55.142+83.4072+54.8989+83.068+54.9441+82.7033C54.9724+82.4758+54.9922+82.2454+54.9922+82.0079C54.9922+78.9167+52.4791+76.4036+49.3893+76.4036C47.6225+76.4036+45.9942+77.2178+44.92+78.6369C44.7447+78.8715+44.4352+78.969+44.1581+78.8884C43.8755+78.8051+43.6747+78.5577+43.6521+78.2651C43.5235+76.5704+42.6952+74.9803+41.3779+73.899C40.0464+72.8092+38.3574+72.3301+36.6302+72.5364C33.9672+72.8615+31.7665+74.9252+31.2774+77.5542C31.1248+78.3768+31.1305+79.1994+31.2944+79.998C31.358+80.309+31.2068+80.6227+30.9241+80.7683C30.6456+80.9125+30.2993+80.8545+30.0831+80.6213C29.382+79.868+28.4336+79.4524+27.4131+79.4524C25.5007+79.4524+23.9078+80.9478+23.782+82.8574C23.7678+83.0638+23.6661+83.2517+23.5007+83.3761C23.3353+83.4991+23.1261+83.5415+22.924+83.5005C21.8936+83.2715+20.9169+83.338+19.9402+83.7055C17.8922+84.4758+16.4589+86.4179+16.3769+88.5394C16.319+90.0221+16.8519+91.4243+17.8766+92.49C18.9028+93.5557+20.2809+94.1423+21.7593+94.1423L35.8047+94.1423C36.1948+94.1423+36.5114+94.4589+36.5114+94.849C36.5114+95.2391+36.1948+95.5558+35.8047+95.5558L21.7593+95.5558C19.8936+95.5558+18.1508+94.8151+16.8575+93.4695C15.5642+92.1239+14.8914+90.3543+14.9635+88.4843C15.0695+85.8016+16.8702+83.3493+19.4441+82.3839C20.4307+82.0136+21.447+81.8878+22.483+81.998C22.989+79.7266+25.0244+78.0404+27.4145+78.0404C28.2343+78.0404+29.0371+78.2439+29.7552+78.6199C29.7622+78.1803+29.8061+77.7393+29.8894+77.2983C30.4887+74.07+33.1912+71.5357+36.4591+71.1371C38.568+70.8771+40.6415+71.4707+42.274+72.8106C43.5037+73.8184+44.3857+75.1895+44.8069+76.7033C46.0705+75.605+47.6776+74.9944+49.3907+74.9944C53.2593+74.9944+56.407+78.1436+56.407+82.0122C56.407+82.0955+56.4056+82.1789+56.4014+82.2609C59.2127+83.1302+61.1944+85.7677+61.1944+88.7585C61.1929+92.5013+58.1427+95.5529+54.3929+95.5529Z" opacity="1" fill="#472b29"/>
<path d="M56.8607+83.5047C54.7434+82.5069+52.2939+83.2136+51.3907+85.0836C51.2791+85.3154+51.1957+85.5556+51.1405+85.7988" opacity="1" fill="#fdfcef"/>
<path d="M51.1391+86.1507C51.1123+86.1507+51.0868+86.1479+51.06+86.1422C50.8692+86.0984+50.7504+85.909+50.7943+85.7182C50.8564+85.4468+50.9497+85.1797+51.0727+84.9267C52.0565+82.8871+54.7194+82.104+57.0106+83.1825C57.1873+83.2673+57.2636+83.4765+57.1802+83.6532C57.0954+83.8313+56.8819+83.9019+56.7095+83.8228C54.766+82.9083+52.5257+83.5429+51.7088+85.2348C51.6098+85.4412+51.5335+85.6546+51.484+85.8751C51.4473+86.0405+51.3017+86.1507+51.1391+86.1507Z" opacity="1" fill="#472b29"/>
</g>
<g opacity="1">
<path d="M77.7104+68.5011L72.4466+68.5011C72.3+68.5011+72.1809+68.382+72.1809+68.2354C72.1809+68.0887+72.3+67.9697+72.4466+67.9697L77.7104+67.9697C77.8566+67.9697+77.9762+68.0887+77.9762+68.2354C77.9762+68.382+77.8577+68.5011+77.7104+68.5011ZM79.3552+68.5011L78.8238+68.5011C78.6771+68.5011+78.5581+68.382+78.5581+68.2354C78.5581+68.0887+78.6771+67.9697+78.8238+67.9697L79.3552+67.9697C79.5019+67.9697+79.6209+68.0887+79.6209+68.2354C79.6209+68.382+79.5024+68.5011+79.3552+68.5011ZM82.0076+69.564L77.2295+69.564C77.0828+69.564+76.9638+69.4449+76.9638+69.2982C76.9638+69.1516+77.0828+69.0325+77.2295+69.0325L82.0076+69.0325C82.1537+69.0325+82.2733+69.1516+82.2733+69.2982C82.2733+69.4449+82.1543+69.564+82.0076+69.564ZM76.1666+69.564L75.6352+69.564C75.4885+69.564+75.3695+69.4449+75.3695+69.2982C75.3695+69.1516+75.4885+69.0325+75.6352+69.0325L76.1666+69.0325C76.3133+69.0325+76.4324+69.1516+76.4324+69.2982C76.4324+69.4449+76.3138+69.564+76.1666+69.564ZM74.5724+69.564L73.5095+69.564C73.3628+69.564+73.2438+69.4449+73.2438+69.2982C73.2438+69.1516+73.3628+69.0325+73.5095+69.0325L74.5724+69.0325C74.719+69.0325+74.8381+69.1516+74.8381+69.2982C74.8381+69.4449+74.7196+69.564+74.5724+69.564ZM77.7609+70.6268L76.6981+70.6268C76.5514+70.6268+76.4324+70.5078+76.4324+70.3611C76.4324+70.2144+76.5514+70.0954+76.6981+70.0954L77.7609+70.0954C77.9076+70.0954+78.0266+70.2144+78.0266+70.3611C78.0266+70.5078+77.9076+70.6268+77.7609+70.6268ZM79.3552+65.8439C79.2612+65.8439+78.9179+65.8439+78.8238+65.8439C78.6771+65.8439+78.5581+65.963+78.5581+66.1097C78.5581+66.2563+78.6771+66.3754+78.8238+66.3754C78.9179+66.3754+79.2612+66.3754+79.3552+66.3754C79.5019+66.3754+79.6209+66.2563+79.6209+66.1097C79.6209+65.963+79.5019+65.8439+79.3552+65.8439ZM79.3552+66.9068C79.2612+66.9068+76.7921+66.9068+76.6981+66.9068C76.5514+66.9068+76.4324+67.0258+76.4324+67.1725C76.4324+67.3192+76.5514+67.4382+76.6981+67.4382C76.7921+67.4382+79.2612+67.4382+79.3552+67.4382C79.5019+67.4382+79.6209+67.3192+79.6209+67.1725C79.6209+67.0258+79.5019+66.9068+79.3552+66.9068ZM82.0124+67.9697C81.9183+67.9697+80.5122+67.9697+80.4181+67.9697C80.2714+67.9697+80.1524+68.0887+80.1524+68.2354C80.1524+68.382+80.2714+68.5011+80.4181+68.5011C80.5122+68.5011+81.9183+68.5011+82.0124+68.5011C82.1591+68.5011+82.2781+68.382+82.2781+68.2354C82.2781+68.0887+82.1591+67.9697+82.0124+67.9697ZM114.164+76.4725L108.85+76.4725C108.703+76.4725+108.584+76.3535+108.584+76.2068C108.584+76.0602+108.703+75.9411+108.85+75.9411L114.164+75.9411C114.311+75.9411+114.43+76.0602+114.43+76.2068C114.43+76.3535+114.311+76.4725+114.164+76.4725ZM116.29+76.4725L115.227+76.4725C115.08+76.4725+114.961+76.3535+114.961+76.2068C114.961+76.0602+115.08+75.9411+115.227+75.9411L116.29+75.9411C116.436+75.9411+116.555+76.0602+116.555+76.2068C116.555+76.3535+116.436+76.4725+116.29+76.4725ZM118.947+77.5354L113.633+77.5354C113.486+77.5354+113.367+77.4164+113.367+77.2697C113.367+77.123+113.486+77.004+113.633+77.004L118.947+77.004C119.093+77.004+119.213+77.123+119.213+77.2697C119.213+77.4164+119.094+77.5354+118.947+77.5354ZM112.57+77.5354L112.038+77.5354C111.892+77.5354+111.772+77.4164+111.772+77.2697C111.772+77.123+111.892+77.004+112.038+77.004L112.57+77.004C112.716+77.004+112.835+77.123+112.835+77.2697C112.835+77.4164+112.716+77.5354+112.57+77.5354ZM110.909+77.5354L109.912+77.5354C109.766+77.5354+109.647+77.4164+109.647+77.2697C109.647+77.123+109.766+77.004+109.912+77.004L110.909+77.004C111.056+77.004+111.175+77.123+111.175+77.2697C111.175+77.4164+111.056+77.5354+110.909+77.5354ZM115.758+75.4097L113.101+75.4097C112.954+75.4097+112.835+75.2906+112.835+75.144C112.835+74.9973+112.954+74.8783+113.101+74.8783L115.758+74.8783C115.905+74.8783+116.024+74.9973+116.024+75.144C116.024+75.2906+115.905+75.4097+115.758+75.4097ZM114.164+78.5983L113.101+78.5983C112.954+78.5983+112.835+78.4792+112.835+78.3326C112.835+78.1859+112.954+78.0668+113.101+78.0668L114.164+78.0668C114.311+78.0668+114.43+78.1859+114.43+78.3326C114.43+78.4792+114.311+78.5983+114.164+78.5983Z" opacity="1" fill="#ffffff"/>
<path d="M96.8409+54.1525L101.109+62.8594L110.634+64.2385L103.738+71.0057L105.376+80.5747L96.8409+76.049L88.3066+80.5747L89.945+71.0057L83.0481+64.2385L92.574+62.8594L96.8409+54.1525Z" opacity="1" fill="#fef6aa"/>
<path d="M96.3392+54.6286L96.3812+54.5452L96.5066+54.7126L96.5486+67.3426L82.8313+64.3315L92.5336+62.9933L96.3392+54.6286ZM110.224+64.3315L97.0088+67.51L105.206+80.3074L103.533+70.8978L110.224+64.3315Z" opacity="1" fill="#f9e65c"/>
<path d="M83.1682+64.5366L96.6692+67.5371C96.8127+67.569+96.9546+67.4786+96.9865+67.3351C97.0184+67.1916+96.928+67.0498+96.7846+67.0179L83.2836+64.0174C83.1401+63.9855+82.9982+64.0759+82.9663+64.2194C82.9344+64.3628+83.0248+64.5047+83.1682+64.5366" opacity="1" fill="#472b29"/>
<path d="M110.251+64.1843L96.4498+67.1614L104.961+80.2223C105.041+80.3451+105.206+80.3802+105.329+80.2999C105.452+80.2197+105.487+80.0549+105.406+79.9322L97.3165+67.5179L110.363+64.7035C110.507+64.6727+110.598+64.5313+110.567+64.3878C110.536+64.2449+110.394+64.1535+110.251+64.1843L110.251+64.1843ZM96.5863+54.1828L96.5863+61.3082C96.5863+61.4549+96.7054+61.5739+96.852+61.5739C96.9987+61.5739+97.1178+61.4549+97.1178+61.3082L97.1178+54.1828C97.1178+54.0361+96.9987+53.917+96.852+53.917C96.7054+53.917+96.5863+54.0355+96.5863+54.1828" opacity="1" fill="#472b29"/>
<path d="M96.5863+65.3088L96.5863+67.3091C96.5863+67.4558+96.7054+67.5748+96.852+67.5748C96.9987+67.5748+97.1178+67.4558+97.1178+67.3091L97.1178+65.3088C97.1178+65.1621+96.9987+65.0431+96.852+65.0431C96.7054+65.0431+96.5863+65.1621+96.5863+65.3088M96.6172+62.8084L96.6172+63.8086C96.6172+63.9552+96.7362+64.0743+96.8829+64.0743C97.0295+64.0743+97.1486+63.9552+97.1486+63.8086L97.1486+62.8084C97.1486+62.6617+97.0295+62.5427+96.8829+62.5427C96.7362+62.5427+96.6172+62.6617+96.6172+62.8084" opacity="1" fill="#472b29"/>
<path d="M96.6055+67.2841L91.5888+74.9909C91.5085+75.1137+91.5436+75.2784+91.6663+75.3587C91.7891+75.4389+91.9539+75.4038+92.0341+75.2811L97.0508+67.5743C97.131+67.4515+97.096+67.2868+96.9732+67.2065C96.8499+67.1263+96.6852+67.1608+96.6055+67.2841M89.4078+78.3442L88.3167+80.0204C88.2365+80.1431+88.2716+80.3079+88.3943+80.3881C88.5171+80.4684+88.6818+80.4333+88.7621+80.3105L89.8531+78.6344C89.9334+78.5116+89.8983+78.3469+89.7755+78.2667C89.6522+78.1864+89.4875+78.2215+89.4078+78.3442M90.7969+76.2653L90.2517+77.1034C90.1714+77.2261+90.2065+77.3909+90.3293+77.4711C90.452+77.5514+90.6168+77.5163+90.697+77.3935L91.2423+76.5555C91.3225+76.4327+91.2874+76.2679+91.1647+76.1877C91.0414+76.1075+90.8772+76.1425+90.7969+76.2653" opacity="1" fill="#472b29"/>
<path d="M88.3066+80.9467C88.2296+80.9467+88.1531+80.9227+88.0888+80.876C87.9734+80.7931+87.916+80.6512+87.94+80.5114L89.5454+71.1343L82.7877+64.5042C82.6868+64.4048+82.6506+64.2571+82.6947+64.1226C82.7383+63.9882+82.8552+63.8904+82.9945+63.8702L92.3264+62.5188L96.5066+53.9883C96.632+53.7332+97.0492+53.7332+97.1752+53.9883L101.356+62.5188L110.688+63.8702C110.828+63.8904+110.944+63.9882+110.988+64.1226C111.032+64.2571+110.996+64.4048+110.895+64.5042L104.137+71.1349L105.743+80.512C105.767+80.6517+105.709+80.7931+105.594+80.8765C105.48+80.9594+105.327+80.97+105.202+80.9036L96.842+76.4704L88.482+80.9036C88.4257+80.9323+88.3662+80.9467+88.3066+80.9467ZM96.8409+75.677C96.9004+75.677+96.961+75.6913+97.0152+75.7206L104.881+79.8918L103.371+71.0684C103.35+70.9478+103.39+70.8256+103.477+70.74L109.838+64.4994L101.055+63.2272C100.933+63.2096+100.829+63.1331+100.775+63.0226L96.8414+54.9974L92.9088+63.0226C92.8541+63.1331+92.7494+63.2096+92.6282+63.2272L83.8448+64.4994L90.2054+70.74C90.2926+70.8256+90.3319+70.9483+90.3117+71.0684L88.8009+79.8918L96.6666+75.7206C96.7213+75.6913+96.7814+75.677+96.8409+75.677Z" opacity="1" fill="#472b29"/>
</g>
</g>
</svg>
